<svg cache-id="ad7a96551e854f71918e6b69ef5eb2bc" id="eofqnzk3HBj1" xmlns="http://www.w3.org/2000/svg" xmlns:xlink="http://www.w3.org/1999/xlink" viewBox="0 0 815 823.3" shape-rendering="geometricPrecision" text-rendering="geometricPrecision"><style><![CDATA[#eofqnzk3HBj4_tr {animation: eofqnzk3HBj4_tr__tr 5000ms linear infinite normal forwards}@keyframes eofqnzk3HBj4_tr__tr { 0% {transform: translate(255.1px,755.3px) rotate(-7.993628deg)} 50% {transform: translate(255.1px,755.3px) rotate(0deg)} 100% {transform: translate(255.1px,755.3px) rotate(-7.993628deg)}} #eofqnzk3HBj4_ts {animation: eofqnzk3HBj4_ts__ts 5000ms linear infinite normal forwards}@keyframes eofqnzk3HBj4_ts__ts { 0% {transform: scale(1,1)} 44% {transform: scale(1,1.032917)} 100% {transform: scale(1,1)}} #eofqnzk3HBj15_tr {animation: eofqnzk3HBj15_tr__tr 5000ms linear infinite normal forwards}@keyframes eofqnzk3HBj15_tr__tr { 0% {transform: translate(553.818004px,340.133963px) rotate(0deg)} 46% {transform: translate(553.818004px,340.133963px) rotate(-6.42706deg)} 100% {transform: translate(553.818004px,340.133963px) rotate(0deg)}} #eofqnzk3HBj22_tr {animation: eofqnzk3HBj22_tr__tr 5000ms linear infinite normal forwards}@keyframes eofqnzk3HBj22_tr__tr { 0% {transform: translate(567.915168px,430.233963px) rotate(0deg)} 46% {transform: translate(567.915168px,430.233963px) rotate(7.530052deg)} 100% {transform: translate(567.915168px,430.233963px) rotate(0deg)}} #eofqnzk3HBj25_tr {animation: eofqnzk3HBj25_tr__tr 5000ms linear infinite normal forwards}@keyframes eofqnzk3HBj25_tr__tr { 0% {transform: translate(551.697595px,601.744613px) rotate(0deg)} 46% {transform: translate(551.697595px,601.744613px) rotate(-7.444141deg)} 100% {transform: translate(551.697595px,601.744613px) rotate(0deg)}} #eofqnzk3HBj33_to {animation: eofqnzk3HBj33_to__to 5000ms linear infinite normal forwards}@keyframes eofqnzk3HBj33_to__to { 0% {transform: translate(422.499954px,464.249947px)} 50% {transform: translate(422.499954px,452.249947px)} 100% {transform: translate(422.499954px,464.249947px)}} #eofqnzk3HBj37_ts {animation: eofqnzk3HBj37_ts__ts 5000ms linear infinite normal forwards}@keyframes eofqnzk3HBj37_ts__ts { 0% {transform: translate(423.649491px,718px) scale(1,1)} 18% {transform: translate(423.649491px,718px) scale(1,1)} 22% {transform: translate(423.649491px,718px) scale(0.825502,0.825503)} 26% {transform: translate(423.649491px,718px) scale(1,1)} 100% {transform: translate(423.649491px,718px) scale(1,1)}} #eofqnzk3HBj37 {animation: eofqnzk3HBj37_c_o 5000ms linear infinite normal forwards}@keyframes eofqnzk3HBj37_c_o { 0% {opacity: 1} 18% {opacity: 1} 22% {opacity: 0.67} 26% {opacity: 1} 100% {opacity: 1}} #eofqnzk3HBj40_ts {animation: eofqnzk3HBj40_ts__ts 5000ms linear infinite normal forwards}@keyframes eofqnzk3HBj40_ts__ts { 0% {transform: translate(424.650009px,487.240402px) scale(0.700046,0.700046)} 52% {transform: translate(424.650009px,487.240402px) scale(0.700046,0.700046)} 62% {transform: translate(424.650009px,487.240402px) scale(1,1)} 100% {transform: translate(424.650009px,487.240402px) scale(1,1)}} #eofqnzk3HBj40 {animation: eofqnzk3HBj40_c_o 5000ms linear infinite normal forwards}@keyframes eofqnzk3HBj40_c_o { 0% {opacity: 0} 52% {opacity: 0} 62% {opacity: 1} 100% {opacity: 1}} #eofqnzk3HBj51_ts {animation: eofqnzk3HBj51_ts__ts 5000ms linear infinite normal forwards}@keyframes eofqnzk3HBj51_ts__ts { 0% {transform: translate(421.800018px,445.199997px) scale(0.380208,0.380208)} 46% {transform: translate(421.800018px,445.199997px) scale(0.380208,0.380208)} 58% {transform: translate(421.800018px,445.199997px) scale(1,1)} 100% {transform: translate(421.800018px,445.199997px) scale(1,1)}} #eofqnzk3HBj51 {animation: eofqnzk3HBj51_c_o 5000ms linear infinite normal forwards}@keyframes eofqnzk3HBj51_c_o { 0% {opacity: 0} 46% {opacity: 0} 58% {opacity: 1} 100% {opacity: 1}} #eofqnzk3HBj53_to {animation: eofqnzk3HBj53_to__to 5000ms linear infinite normal forwards}@keyframes eofqnzk3HBj53_to__to { 0% {transform: translate(435.032913px,261.061676px)} 40% {transform: translate(435.032913px,275.061676px)} 100% {transform: translate(435.032913px,261.061676px)}} #eofqnzk3HBj53 {animation: eofqnzk3HBj53_c_o 5000ms linear infinite normal forwards}@keyframes eofqnzk3HBj53_c_o { 0% {opacity: 1} 44% {opacity: 0} 100% {opacity: 1}} #eofqnzk3HBj63_ts {animation: eofqnzk3HBj63_ts__ts 5000ms linear infinite normal forwards}@keyframes eofqnzk3HBj63_ts__ts { 0% {transform: translate(422.300003px,333.200027px) scale(0.376518,0.376516)} 34% {transform: translate(422.300003px,333.200027px) scale(0.376518,0.376516)} 40% {transform: translate(422.300003px,333.200027px) scale(1.1,1.1)} 45.8% {transform: translate(422.300003px,333.200027px) scale(0.889767,0.889767)} 46% {transform: translate(422.300003px,333.200027px) scale(0.8,0.8)} 51.8% {transform: translate(422.300003px,333.200027px) scale(1.05,1.05)} 52% {transform: translate(422.300003px,333.200027px) scale(1.03,1.03)} 58% {transform: translate(422.300003px,333.200027px) scale(1,1)} 100% {transform: translate(422.300003px,333.200027px) scale(1,1)}} #eofqnzk3HBj63 {animation: eofqnzk3HBj63_c_o 5000ms linear infinite normal forwards}@keyframes eofqnzk3HBj63_c_o { 0% {opacity: 0} 33.8% {opacity: 0} 34% {opacity: 1} 40% {opacity: 1} 100% {opacity: 1}} #eofqnzk3HBj66_tr {animation: eofqnzk3HBj66_tr__tr 5000ms linear infinite normal forwards}@keyframes eofqnzk3HBj66_tr__tr { 0% {transform: translate(261.3px,678.75474px) rotate(0deg)} 44% {transform: translate(261.3px,678.75474px) rotate(-20.275196deg)} 50% {transform: translate(261.3px,678.75474px) rotate(-7.533704deg)} 100% {transform: translate(261.3px,678.75474px) rotate(0deg)}} #eofqnzk3HBj73_ts {animation: eofqnzk3HBj73_ts__ts 5000ms linear infinite normal forwards}@keyframes eofqnzk3HBj73_ts__ts { 0% {transform: translate(421.800011px,322.956193px) scale(1,1)} 40% {transform: translate(421.800011px,322.956193px) scale(1,1)} 50% {transform: translate(421.800011px,322.956193px) scale(0.768631,0.768631)} 100% {transform: translate(421.800011px,322.956193px) scale(0.768631,0.768631)}} #eofqnzk3HBj73 {animation: eofqnzk3HBj73_c_o 5000ms linear infinite normal forwards}@keyframes eofqnzk3HBj73_c_o { 0% {opacity: 1} 40% {opacity: 1} 50% {opacity: 0} 100% {opacity: 0}} #eofqnzk3HBj76_tr {animation: eofqnzk3HBj76_tr__tr 5000ms linear infinite normal forwards}@keyframes eofqnzk3HBj76_tr__tr { 0% {transform: translate(141.374999px,805.400024px) rotate(0deg)} 42% {transform: translate(141.374999px,805.400024px) rotate(0.789752deg)} 100% {transform: translate(141.374999px,805.400024px) rotate(0deg)}}]]></style><defs><filter id="eofqnzk3HBj40-filter" x="-150%" width="400%" y="-150%" height="400%"><feComponentTransfer id="eofqnzk3HBj40-filter-brightness-0" result="result"><feFuncR id="eofqnzk3HBj40-filter-brightness-0-R" type="linear" slope="0"/><feFuncG id="eofqnzk3HBj40-filter-brightness-0-G" type="linear" slope="0"/><feFuncB id="eofqnzk3HBj40-filter-brightness-0-B" type="linear" slope="0"/></feComponentTransfer></filter></defs><g id="eofqnzk3HBj4_tr" transform="translate(255.1,755.3) rotate(-7.993628)"><g id="eofqnzk3HBj4_ts" transform="scale(1,1)"><g transform="translate(-255.1,-755.3)"><path d="M135,455.7c0,0-17.1,4.5-2.7,41.5s25.1,55.7,25.1,55.7s2.4,8.5-4.6,9.1-21.9-3.4-25.8,4.8s1.5,17.3,13.6,25.8s38,28.1,40.3,29.9s4.4,5.8-.4,7-39.1,1.3-38.1,17.6s38.7,34.5,42.8,36.6s4.9,4,4.3,6.2-12.1,1.3-21.9,1.7-21.1,2.7-19.7,12s22.6,30.9,78.3,42.1l26.1,3.5l16.5-20.8c32.6-46.5,33.1-76.7,27.7-84.5s-15.1-1.6-22.5,4.8-15.1,15.1-17,13.9-2.7-3.2-1.2-7.5s16.3-43.4,5.8-56-35.5,11.1-39.7,13.5-5.5-1.9-5.1-4.8s5.7-35,8.6-49.5.8-24.7-8-28c-8.4-3.2-16.5,10-22,14.4s-9.6-3.4-9.6-3.4-5.2-20.9-20.2-57.6-31-27.9-31-27.9" fill="#808080"/><g><path d="M253.1,755.3L207.2,638.6L165.4,532.7l-12.9-32.1-3.5-8.7-.9-2.3c-.1-.3-.2-.5-.3-.8.1.3.2.5.4.8l1,2.2l3.6,8.7l13.1,31.9L208,638.2L253.6,755" fill="#e0e0e0"/><path d="M147.5,573c.6.2,1.2.4,1.8.7l4.7,2.2c3.9,1.9,9.3,4.7,15.2,7.9l15.1,8.2l4.6,2.4c.6.3,1.1.6,1.6,1-.6-.2-1.2-.4-1.8-.7-1.1-.5-2.7-1.3-4.7-2.2-3.9-1.9-9.3-4.8-15.1-8l-15.1-8.1-4.6-2.4c-.6-.3-1.2-.6-1.7-1v0Zm44.9,20.9c-.2-.1,5-11.4,11.7-25.3l12.5-25c.2.1-5,11.5-11.7,25.3l-12.5,25Zm22.1,64.7c.4-.5.8-1,1.2-1.5l3.5-3.9c3-3.3,7.1-7.9,11.3-13.2l10.8-13.7l3.2-4.2c.4-.5.8-1,1.2-1.5-.3.6-.6,1.2-1,1.7l-3,4.4c-2.6,3.6-6.3,8.6-10.6,13.9s-8.5,9.8-11.6,13.1c-1.5,1.6-2.8,2.9-3.8,3.8-.3.3-.8.7-1.2,1.1v0Zm-44.8-10c.6,0,1.3.1,1.9.2l4.8.9l15.8,3.2l15.8,3.4l4.8,1.1c.6.1,1.2.3,1.7.5-.6,0-1.3-.1-1.9-.2l-4.8-.9-15.8-3.2-15.8-3.4-4.8-1.1c-.5-.1-1.1-.2-1.7-.5Zm12.2,59.6c.8,0,1.5.1,2.3.3l6.2,1.1l20.3,3.9l20.3,4.2l6.1,1.3c.8.1,1.5.3,2.2.6-.8,0-1.5-.1-2.3-.3l-6.2-1.1-20.3-3.9-20.3-4.2-6.1-1.4c-.7,0-1.5-.2-2.2-.5Z" fill="#e0e0e0"/><path d="M238.1,719c.4-.7.9-1.3,1.5-1.9l4.3-5.2c3.6-4.4,8.6-10.4,13.9-17.2s10-13.1,13.3-17.7l4-5.4c.5-.7,1-1.3,1.5-1.9-.4.7-.8,1.5-1.3,2.1l-3.8,5.7c-4.2,6.1-8.6,12-13.2,17.8-5.4,6.8-10.4,12.8-14.1,17.1l-4.5,5c-.5.6-1,1.1-1.6,1.6v0Z" fill="#e0e0e0"/></g></g></g></g><g><path d="M329.6,0c-1.4,20.4,0,58.3-7.4,77.4s-17.3,38.6-35.8,47.2c-22.9,10.5-49.7,6-74.1,12.2-38.2,9.6-65.9,44.7-77.7,82.3s-10.5,77.9-9.1,117.3l195.1,27.1c0,0,1-79.2,18-100.9s97.9-41.1,124.5-100.4c24-53.3,31.3-137.9,31.3-137.9L329.6,0Z" fill="#9d9d9d"/><path d="M422.8,86.1c0,.3-17.8-1.9-39.7-4.9l-39.6-5.9c0-.2,17.8,1.9,39.6,4.9l39.7,5.9ZM420.6,102c0,.3-17.8-1.9-39.6-4.9l-39.6-5.9c0-.2,17.8,1.9,39.6,4.9l39.6,5.9Zm-7.2,16.2c0,.3-17.8-1.9-39.6-4.9l-39.6-5.9c0-.2,17.8,1.9,39.6,4.9l39.6,5.9Zm-13.3,16.3c0,.3-17.8-1.9-39.7-4.9l-39.6-5.9c0-.2,17.8,1.9,39.7,4.9l39.6,5.9Zm-21,16.4c0,.3-17.8-1.9-39.6-4.9l-39.6-5.9c0-.2,17.8,1.9,39.6,4.9l39.6,5.9Zm79.2-59.5c-6.5-.4-13-1.5-19.4-3.2c3.3,0,6.6.4,9.8,1.1c3.3.4,6.5,1.1,9.6,2.1v0Zm-.7,14.2c-3.3,0-6.5-.4-9.7-1.1-3.3-.4-6.5-1.1-9.6-2.1c3.3,0,6.5.4,9.8,1.1c3.2.4,6.4,1.1,9.5,2.1v0Zm-4.8,19.7c-3.3-.1-6.6-.4-9.8-1.1-3.2-.4-6.4-1.1-9.6-2c0-.3,4.4.2,9.8,1c3.3.3,6.5,1,9.6,2.1v0Zm-6.9,16.5c-3.3-.1-6.6-.4-9.8-1.1-3.2-.4-6.4-1.1-9.6-2c0-.3,4.4.2,9.8,1c3.2.3,6.5,1,9.6,2.1v0Zm-15,15.7c-3.3-.1-6.6-.4-9.8-1.1-3.2-.4-6.5-1.1-9.6-2c0-.3,4.4.2,9.7,1.1c3.4.3,6.6,1,9.7,2v0Zm-69.8,13.3c0,.3-26.7-3.3-59.6-7.9L242,154c0-.3,26.7,3.3,59.6,7.9l59.5,8.9Zm-13.8,16.7c-.4,0-.9-.1-1.3-.1l-3.8-.5-13.8-2-45.4-7-45.3-7.3-13.7-2.4-3.8-.7c-.4-.1-.9-.2-1.3-.3.4,0,.9.1,1.3.2l3.8.5l13.8,2.1l45.4,7l45.3,7.3l13.7,2.3l3.8.7c.4,0,.9.1,1.3.2v0Zm-24.9,15.2c-1.6,0-3.3-.1-4.9-.4L304,200.4l-44.5-6.8-44.5-7.2-13.5-2.3-3.6-.7c-.4-.1-.9-.2-1.3-.3.4,0,.9,0,1.3.1l3.7.5l13.5,1.9l44.5,6.8l44.5,7.1l18.3,3.2ZM406,180c-3.3-.1-6.6-.4-9.8-1.1-3.2-.4-6.4-1.1-9.6-2c0-.3,4.4.2,9.8,1c3.3.3,6.5,1,9.6,2.1v0Zm-19.2,10.6c-3.3-.1-6.6-.4-9.8-1.1-3.2-.4-6.4-1.1-9.6-2c0-.3,4.4.2,9.8,1c3.3.4,6.5,1.1,9.6,2.1v0Zm-25.9,18.1c-3.3-.1-6.6-.4-9.8-1.1-3.2-.4-6.5-1.1-9.6-2c0-.3,4.4.2,9.8,1.1c3.3.2,6.5.9,9.6,2Zm-49.5,28.4c0,.3-33-4.6-73.6-10.8l-73.6-11.8c0-.3,33,4.6,73.6,10.8l73.6,11.8Zm-19.7,35.7c0,.3-10.9-1.3-24.1-3.4s-24-4.1-24-4.4s10.9,1.3,24.1,3.4s24,4.1,24,4.4Z" fill="#e0e0e0"/></g><g><path d="M812.8,811.5c0,.3-182,.5-406.4.5s-406.4-.2-406.4-.5s181.9-.5,406.4-.5l406.4.5Z" fill="#263238"/></g><g id="eofqnzk3HBj15_tr" transform="translate(553.818004,340.133963) rotate(0)"><g transform="translate(-555.051963,-338.899996)"><path d="M534.8,162.7l200.7-28.3c3.7-.5,7.1,2.1,7.7,5.8L770,329.8c.5,3.7-2.1,7.1-5.8,7.7L563.5,365.8c-3.7.5-7.1-2.1-7.7-5.8L529,170.4c-.5-3.7,2-7.1,5.8-7.7Z" fill="#ef724b"/><g><path d="M689.6,275.6c-.5.1-.9.2-1.4.3l-4.1.7-15.4,2.4-51.5,7.5h-.4l-.1-.4-2.4-8.4L597,217.1l.3.2-13.7,1.9-3.7.5c-.4,0-.9,0-1.3,0c.4-.1.8-.2,1.2-.3l3.6-.6l13.7-2.1h.3v.2l17.7,60.5l2.4,8.4-.5-.4l51.7-7.2l15.4-2.1l4.2-.5c.4.1.8,0,1.3,0v0Z" fill="#ebebeb"/><path d="M612.9,271.3h.4l1.1-.2l4.1-.7L634,268l53.4-7.8-.4.5.9-29.5.5-15.5.5.5-63,8.9-18.7,2.5-5,.6-1.3.2h-.5c.1-.1.3-.1.5-.1l1.3-.2l5-.8l18.6-2.8l63-9.2h.6v.6l-.5,15.5-1,29.5v.3h-.4L634,268.7l-15.5,2.1-4.2.5-1.1.1-.3-.1Zm25.2,31.8c-.1,0-.2-.6-.7-1.7-.7-1.4-1.8-2.6-3.2-3.4-3.3-1.8-7.5-.7-9.3,2.7-1.8,3.3-.7,7.5,2.7,9.3.6.3,1.2.6,1.9.7c2.3.5,4.7-.2,6.4-1.9c1.1-1.1,1.9-2.6,2.1-4.2.2-1.1,0-1.8.2-1.8.2.6.3,1.2.2,1.9-.1,1.7-.8,3.4-2,4.6-3,3.1-7.9,3.2-10.9.2s-3.2-7.9-.2-10.9c2.5-2.5,6.3-3.1,9.4-1.4c1.5.8,2.6,2.2,3.2,3.8.2.8.3,1.4.2,2.1v0Zm46.6-6.7c-.2-.6-.4-1.1-.7-1.7-.7-1.4-1.8-2.6-3.2-3.4-3.1-1.7-7-.7-9,2.2s-1.4,6.9,1.3,9.1s6.7,2.1,9.2-.4c1.1-1.1,1.9-2.6,2.1-4.2.3-.9.2-1.6.3-1.6.2.6.3,1.3.2,1.9-.1,1.7-.8,3.4-2,4.6-3,3.1-7.9,3.2-10.9.2s-3.2-7.9-.2-10.9c2.5-2.5,6.3-3.1,9.4-1.4c1.5.8,2.6,2.2,3.2,3.8.3.6.4,1.2.3,1.8v0Z" fill="#ebebeb"/></g><ellipse rx="20.9" ry="20.9" transform="matrix(.5516-.8341 0.8341 0.5516 683.767332 208.833355)" fill="#fafafa"/><path d="M694,199.5c-.6,1.3-1.3,2.6-2.2,3.8-1.5,2.2-3.5,5.2-5.9,8.6l-2.5,3.5-.3.4-.4-.2c-3-1.8-5.8-3.8-8.5-6c3.1,1.5,6.1,3.3,9,5.2l-.6.1l2.5-3.5l6.1-8.4c.8-1.3,1.8-2.5,2.8-3.5v0Z" fill="#ef724b"/></g></g><g id="eofqnzk3HBj22_tr" transform="translate(567.915168,430.233963) rotate(0)"><g transform="translate(-563.995846,-456.198817)"><path d="M595.6,372.6L752.3,412c3.6.9,5.8,4.6,4.9,8.2L720,568.2c-.9,3.6-4.6,5.8-8.2,4.9L555,533.8c-3.6-.9-5.8-4.6-4.9-8.2l37.2-148c.9-3.7,4.6-5.9,8.3-5v0v0Z" fill="#282c2f"/><path d="M628.1,447.7h7.8v-11.6h7.8v-7.8h-23.3v7.8h7.8l-.1,11.6v0Zm23.3-3.9h-7.8c0,4.2-5.3,7.8-11.6,7.8s-11.6-3.6-11.6-7.8h-7.8c0,7.5,6.7,13.8,15.5,15.2v12h7.8v-12c8.8-1.4,15.5-7.7,15.5-15.2v0ZM694,482.6c0-6.4-5.2-11.6-11.6-11.6v-7.8h-7.8v7.8h-7.8c-2.1,0-3.9,1.7-3.9,3.9v31c0,2.1,1.7,3.9,3.9,3.9h7.8v7.8h7.8v-7.8c4.6,0,8.7-2.7,10.6-6.9s1.1-9.1-2-12.5c2-2.2,3-4.9,3-7.8v0Zm-23.3-3.9h11.6c2.1,0,3.9,1.7,3.9,3.9c0,2.1-1.7,3.9-3.9,3.9h-11.6v-7.8ZM682.4,502h-11.6v-7.8h11.6c2.1,0,3.9,1.7,3.9,3.9s-1.8,3.9-3.9,3.9v0Z" opacity="0.638" fill="#fff"/></g></g><g id="eofqnzk3HBj25_tr" transform="translate(551.697595,601.744613) rotate(0)"><g transform="translate(-567.699991,-602.189873)"><path d="M518.9,574.7l143.9-87c3.6-2.2,8.2-1,10.4,2.6L811.1,718.6c2.2,3.6,1,8.2-2.6,10.4L664.6,816c-3.6,2.2-8.2,1-10.4-2.6L516.4,585.1c-2.2-3.6-1.1-8.2,2.5-10.4Z" fill="#a2a2a2"/><g><path d="M757,711.6c-7.9,4.8-18.2,3.3-24.4-3.5s-6.8-17.2-1.3-24.6s15.5-10,23.9-6.1s12.8,13.2,10.6,22.2c-1.2,5-4.3,9.3-8.8,12v0Z" fill="#fff"/><path d="M759.2,735.4c-1.7,0-3.3-.2-4.9-.6-10.8-2.7-17.4-13.7-14.6-24.6c2.5-9.8,11.9-16.3,22-15.1c10.6,1.3,18.4,10.6,17.7,21.3s-9.5,19-20.2,19v0Zm0-38.9c-10.2,0-18.5,8.3-18.5,18.5s8.3,18.5,18.5,18.5c3.3,0,6.6-.9,9.4-2.6v0c8.7-5.3,11.5-16.7,6.3-25.4-2.5-4.2-6.6-7.2-11.4-8.4-1.4-.4-2.9-.6-4.4-.6h.1ZM581.9,566l-13.4,8.1-.8-1.4l12.2-7.4-1.9-3.2l1.2-.7l2.7,4.6Zm-3.8,21.1l-1.2.7-5.7-9.4l1-.6l8.8,2.3c1.4.6,3,.5,4.4-.2c1.5-.9,1.9-2.6.6-4.6-.8-1.4-2.2-2.5-3.8-2.8l.2-1.5c2,.4,3.8,1.7,4.8,3.6c1.6,2.7,1.3,5.3-.9,6.6-1.7.9-3.7,1.1-5.5.3l-7.2-1.9l4.5,7.5Zm10.8,12.7l-1.6-2.7-3.5,2.1-.8-1.4l3.5-2.1-4.6-7.5l1-.6l13.2,1.7.9,1.5-12.8-1.6l3.5,5.8l3.1-1.9.8,1.3-3.1,1.9l1.6,2.7-1.2.8Zm12.4,20.6l-1.6-2.7-3.5,2.1-.8-1.4l3.5-2.1-4.6-7.5l1-.6l13.2,1.7.9,1.5-12.8-1.6l3.5,5.8l3.1-1.9.8,1.3-3.1,1.9l1.7,2.6-1.3.9Zm7.5,11.4c-2.3,1.4-5,.8-7-2.4-1.1-1.7-1.5-3.8-1.2-5.8h1.5c-.4,1.7,0,3.6.9,5.1c1.4,2.3,3.2,2.8,4.8,1.9s2.2-2.8,0-6.2l-1.7-2.8l7.1-3.4l4.4,7.3-1.2.7-3.8-6.1-4.5,2.1l1,1.7c2.7,4,2.1,6.5-.3,7.9v0Zm8,13.2c-2.3,1.4-5.3.6-6.7-1.7-.1-.1-.1-.2-.2-.4-2.2-3.6-.8-7,3.4-9.5c4.5-2.7,8.4-1.7,10.6,1.9.7,1.1,1.1,2.3,1.2,3.6l-1.5.1c0-1.1-.3-2.1-.9-3-1.7-2.9-4.7-3.6-8.3-1.4-.4.2-.7.5-1.1.7c2-.1,3.9.9,4.8,2.7.8,1.1,1.2,2.4.9,3.8-.2,1.3-1,2.5-2.2,3.2v0Zm-.8-1.3c1.4-.8,2.1-2.5,1.6-4s-2-2.5-3.6-2.3-2.9,1.4-3,3s.8,3.1,2.4,3.6c.8.3,1.8.2,2.6-.3v0Zm11.8,19.7c-2.2,1.4-4.9.8-6.9-2.5-1.1-1.7-1.6-3.8-1.2-5.8h1.5c-.4,1.8,0,3.6,1,5.1c1.3,2.2,3.1,2.8,4.8,1.9s2-2.7.5-5.2l-.6-.9l1-.6l6.9.9-4.1-6.8l1.2-.7l5.2,8.6-1,.6-7.1-.9c1.5,2.7.9,5-1.2,6.3v0Zm8.2,13.4c-2.3,1.4-5.3.6-6.7-1.7-.1-.1-.1-.2-.2-.4-2.2-3.5-.8-7,3.4-9.5c4.5-2.8,8.4-1.7,10.6,1.9.7,1.1,1.1,2.3,1.2,3.6l-1.4.1c0-1.1-.4-2.1-.9-3-1.8-2.9-4.7-3.6-8.4-1.4-.3.2-.7.4-1.1.7c2-.1,3.9,1,4.8,2.7.8,1.1,1.2,2.5.9,3.8s-1,2.5-2.2,3.2v0Zm-.8-1.4c1.4-.8,2.1-2.5,1.6-4s-2-2.5-3.6-2.3-2.9,1.5-3,3.1.8,3.1,2.4,3.6c.7.2,1.7.1,2.6-.4v0Zm17.6,8l-1,.6-15.8,1.9-.9-1.5l15.5-1.9-4.2-6.9-2.5,1.5-.8-1.4l3.8-2.2l5.9,9.9Zm11.6,19.2l-1,.6-15.8,1.9-.9-1.5l15.5-1.9-4.2-6.9-2.5,1.5-.8-1.4l3.8-2.3l5.9,10Zm-1.7,18.9c-2.4,1.4-5.1.3-7-2.9s-1.6-6.1.7-7.5c1.6-1,3.6-.7,4.9.6-.4-1.5.3-3.1,1.7-3.9c2.2-1.3,4.7-.3,6.4,2.5s1.5,5.5-.7,6.9c-1.3.8-3.1.7-4.2-.4.5,1.8-.2,3.8-1.8,4.7v0Zm-.8-1.4c1.6-1,1.9-3,.4-5.4s-3.3-3.2-5-2.2-1.9,3-.4,5.4s3.3,3.2,5,2.2v0Zm1.5-6c1.3,2.1,3,2.8,4.4,1.9s1.6-2.8.4-4.8-2.9-2.7-4.4-1.9-1.7,2.7-.4,4.8Zm10.3,18.7c-4.5,2.8-8.4,1.7-10.6-1.9-.7-1.1-1.1-2.3-1.2-3.6l1.4-.1c0,1.1.4,2.1.9,3c1.8,2.9,4.7,3.6,8.4,1.4.3-.2.7-.4,1.1-.7-2,.1-3.9-.9-4.8-2.7-.8-1.1-1.2-2.4-.9-3.8s1-2.5,2.2-3.2c2.3-1.4,5.3-.6,6.7,1.7.1.1.2.3.2.4c2.1,3.4.8,6.8-3.4,9.5v0Zm1.5-3.5c1.6-1.2,2-3.4.9-5.1-.1-.1-.1-.1-.2-.2-.5-1.3-1.7-2.1-3.1-2.2s-2.6.8-3.2,2-.3,2.7.6,3.7c.9,1.8,3,2.5,4.8,1.6.1.1.1.1.2.2v0Zm13.2,12.9L675,750.3l-.8-1.4l12.2-7.4-1.9-3.2l1.2-.7l2.7,4.6Zm-3.8,21.2l-1.2.8-5.7-9.4l1-.6l8.8,2.3c1.4.6,3,.5,4.4-.2c1.5-.9,1.9-2.6.6-4.6-.8-1.5-2.2-2.5-3.8-2.8l.2-1.5c2.1.4,3.8,1.7,4.8,3.6c1.6,2.7,1.3,5.3-.9,6.6-1.7.9-3.7,1-5.5.3l-7.2-1.9l4.5,7.4Zm9.9,10.4c-2.2,1.4-4.9.8-6.9-2.5-1.1-1.7-1.6-3.8-1.2-5.8h1.5c-.4,1.8,0,3.6,1,5.1c1.3,2.2,3.1,2.8,4.8,1.9s1.9-2.7.5-5.2l-.6-1l1-.6l6.9.9-4.1-6.8l1.2-.7l5.2,8.6-1,.6-7.1-.9c1.6,2.8.9,5.1-1.2,6.4v0Zm-76.8-90.1l5.8-3.5L688.7,788l-5.8,3.5-65.2-107.8ZM632.6,742l5.8-3.5l33.2,55-5.8,3.5-33.2-55Z" fill="#fff"/></g><path d="M624.7,534.7l22.1,36.5c1.4,2.3.7,5.4-1.7,6.8L620,593.2c-2.3,1.4-5.4.7-6.8-1.7L591,555c-1.4-2.3-.7-5.4,1.7-6.8L617.8,533c2.4-1.4,5.4-.6,6.9,1.7Z" fill="#e0e0e0"/><path d="M597.8,545.1l2.2-1.3L614,567c1.6,2.7,5.1,3.5,7.8,1.9s3.5-5.1,1.9-7.8l-14-23.2l2.2-1.3l14,23.2c1.5,2.5,1.6,5.6.2,8.2s-4.1,4.2-7,4.2-5.7-1.4-7.2-3.9l-14.1-23.2Zm28.3,25.3l2.2-1.3l9.7,16-2.2,1.3-9.7-16Z" fill="#ebebeb"/><path d="M653,519.1l69.9,115.7-9.9,6-69.9-115.7l9.9-6Z" fill="#fff"/></g></g><g id="eofqnzk3HBj33_to" transform="translate(422.499954,464.249947)"><g transform="translate(-422.499954,-464.249947)"><path d="M539.7,814.1L302.3,813c-28.5-.1-51.6-23.4-51.5-51.9l2.5-595.2c.1-28.6,23.4-51.6,52-51.5l237.4,1.1c28.5.1,51.6,23.4,51.5,51.9l-2.5,595.2c-.1,28.5-23.4,51.6-52,51.5v0v0Z" fill="#263238"/><path d="M540.4,132.2l-46-.2c-6.3.1-11.3,5.3-11.2,11.6v8.3c.1,3-1.1,6-3.2,8.1s-5,3.4-8,3.5l-89.7-.4c-6.3-.2-11.3-5.4-11.1-11.7v-8.4c.2-6.3-4.8-11.6-11.1-11.7h-16.2l-40.3-.2c-9.6,0-18.8,3.7-25.7,10.5s-10.7,16-10.7,25.6l-2.5,580.9c0,9.6,3.8,18.8,10.6,25.6s16,10.6,25.6,10.7l236.9,1.1c9.6,0,18.8-3.7,25.7-10.5s10.7-16,10.7-25.6l2.4-580.9c.1-9.6-3.7-18.9-10.5-25.7s-16.1-10.6-25.7-10.6v0Z" opacity="0.309" fill="#e5e5e5"/><g id="eofqnzk3HBj37_ts" transform="translate(423.649491,718) scale(1,1)"><g id="eofqnzk3HBj37" transform="translate(-423.64949,-718)"><path d="M311.4,684.9h224.5c8.9,0,16.1,7.2,16.1,16.1v34c0,8.9-7.2,16.1-16.1,16.1h-224.5c-8.9,0-16.1-7.2-16.1-16.1v-34c-.1-8.9,7.2-16.1,16.1-16.1Z" fill="#ef724b"/><path d="M393.1,710.3h6c4-.2,7.5,2.9,7.7,6.9s-2.9,7.5-6.9,7.7c-.3,0-.5,0-.8,0h-6v-14.6v0Zm5.9,13.4c3.3.2,6.1-2.3,6.3-5.6s-2.3-6.1-5.6-6.3c-.2,0-.5,0-.7,0h-4.3v12h4.3v-.1v0Zm10-6c-.1-4.3,3.2-7.8,7.4-7.9c4.3-.1,7.8,3.2,7.9,7.4.1,4.3-3.2,7.8-7.4,7.9-.1,0-.2,0-.2,0-4.1.2-7.5-2.9-7.7-7c0-.1,0-.3,0-.4v0Zm13.9,0c.1-3.4-2.7-6.2-6.1-6.3s-6.2,2.7-6.3,6.1s2.7,6.2,6.1,6.3h.1c1.6.1,3.2-.6,4.4-1.7s1.8-2.8,1.8-4.4v0Zm17.2-7.4v14.7h-1.3l-9.4-11.9v11.9h-1.6v-14.7h1.3l9.4,11.9v-11.9h1.6Zm15.2,13.4v1.3h-10.4v-14.7h10v1.3h-8.5v5.2h7.5v1.3h-7.5v5.5l8.9.1Z" fill="#fafafa"/></g></g><g id="eofqnzk3HBj40_ts" transform="translate(424.650009,487.240402) scale(0.700046,0.700046)"><g id="eofqnzk3HBj40" transform="translate(-424.650009,-487.240402)" opacity="0" filter="url(#eofqnzk3HBj40-filter)"><path d="M326.1,485.6c0,2.7-1.9,4.3-5.1,4.3h-3.4v4h-1.3v-12.5h4.7c3.1-.1,5.1,1.5,5.1,4.2Zm-1.4,0c0-2-1.3-3.2-3.8-3.2h-3.3v6.3h3.3c2.5,0,3.8-1.2,3.8-3.1v0Z" fill="#263238"/><g><path d="M337.4,484.4v9.4h-1.2v-1.7c-.7,1.2-2,1.9-3.4,1.9-2,.2-3.8-1.3-4-3.3c0-.3,0-.5,0-.8v-5.5h1.3v5.3c0,2,1,3,2.8,3c.9,0,1.8-.3,2.4-1s.9-1.6.8-2.5v-4.9l1.3.1Z" fill="#263238"/></g><path d="M345.7,484.3v1.3h-.3c-.9,0-1.8.3-2.4,1s-.9,1.6-.8,2.5v4.8h-1.3v-9.4h1.2v1.9c.7-1.4,2.1-2.2,3.6-2.1v0Zm1.2,4.8c-.1-2.6,1.9-4.7,4.5-4.8.1,0,.2,0,.3,0c1.5-.1,3,.6,3.8,1.9l-1,.6c-.6-.9-1.6-1.4-2.7-1.4-1.7.4-2.9,1.9-2.9,3.7s1.2,3.3,2.9,3.7c1.1,0,2.1-.5,2.7-1.4l1,.6c-.8,1.3-2.3,2-3.8,1.9-2.6.1-4.8-1.9-4.9-4.5.1,0,.1-.2.1-.3v0Zm19.6-.7v5.5h-1.3v-5.3c.2-1.4-.8-2.8-2.2-3-.2,0-.4,0-.6,0-.9-.1-1.8.3-2.4.9s-.9,1.6-.9,2.5v4.9h-1.3v-13.3h1.3v5.5c.8-1.2,2.1-1.8,3.5-1.7c2-.2,3.7,1.3,3.9,3.3.1.2.1.4,0,.7v0Zm10.6-.4v5.8h-1.2v-1.5c-.7,1.1-2,1.7-3.2,1.6-2.1,0-3.5-1.1-3.5-2.8s.9-2.7,3.6-2.7h3v-.6c0-1.6-.9-2.5-2.7-2.5-1.1,0-2.3.4-3.1,1.1l-.6-.9c1.1-.9,2.4-1.3,3.8-1.3c1.8-.3,3.6.9,3.9,2.8c0,.4,0,.7,0,1v0Zm-1.3,3v-1.6h-3c-1.9,0-2.4.7-2.4,1.7s.9,1.8,2.4,1.8c1.3,0,2.5-.7,3-1.9v0Zm3.5,1.8l.6-1c1,.7,2.2,1.1,3.4,1.1c1.8,0,2.5-.6,2.5-1.5c0-2.5-6.1-.5-6.1-4.2c0-1.5,1.3-2.7,3.8-2.7c1.2,0,2.3.3,3.3.9l-.5,1c-.8-.6-1.8-.8-2.8-.8-1.7,0-2.5.7-2.5,1.6c0,2.5,6.1.6,6.1,4.2c0,1.6-1.4,2.7-3.9,2.7-1.5-.1-2.8-.5-3.9-1.3v0Zm18.2-3.3h-7.9c.1,1.9,1.8,3.4,3.7,3.3c0,0,0,0,.1,0c1.1,0,2.2-.4,2.9-1.2l.7.8c-1.9,2-5,2.1-7,.2-.9-.9-1.5-2.1-1.5-3.4-.1-1.3.4-2.5,1.3-3.4s2.1-1.4,3.3-1.4c2.5,0,4.5,1.9,4.6,4.4c0,.1,0,.3,0,.4-.1,0-.2.2-.2.3v0Zm-7.8-.9h6.7c-.1-1.9-1.8-3.2-3.6-3.1-1.7.1-3,1.4-3.1,3.1Zm29-4.2l-3.6,9.4h-1.1l-3-7.7-3,7.7h-1.2l-3.5-9.4h1.3l2.9,8l3-8h1.1l3,8l3-8h1.1Zm8.8,3.6v5.8h-1.2v-1.5c-.7,1.1-2,1.7-3.2,1.6-2.1,0-3.5-1.1-3.5-2.8s.9-2.7,3.6-2.7h3v-.6c0-1.6-.9-2.5-2.7-2.5-1.1,0-2.3.4-3.1,1.1l-.6-.9c1.1-.9,2.4-1.3,3.8-1.3c1.8-.3,3.6,1,3.8,2.8.1.4.1.7.1,1v0Zm-1.3,3v-1.6h-3c-1.9,0-2.4.7-2.4,1.7s.9,1.8,2.4,1.8c1.3,0,2.5-.7,3-1.9v0Zm3.4,1.8l.6-1c1,.7,2.2,1.1,3.4,1.1c1.8,0,2.5-.6,2.5-1.5c0-2.5-6.1-.5-6.1-4.2c0-1.5,1.3-2.7,3.8-2.7c1.2,0,2.3.3,3.3.9l-.5,1c-.8-.6-1.8-.8-2.8-.8-1.7,0-2.5.7-2.5,1.6c0,2.5,6.1.6,6.1,4.2c0,1.6-1.4,2.7-3.9,2.7-1.4-.1-2.7-.5-3.9-1.3v0Zm13.5,0l.6-1c1,.7,2.2,1.1,3.4,1.1c1.9,0,2.5-.6,2.5-1.5c0-2.5-6.1-.5-6.1-4.2c0-1.5,1.3-2.7,3.8-2.7c1.2,0,2.3.3,3.3.9l-.5,1c-.8-.6-1.8-.8-2.8-.8-1.7,0-2.5.7-2.5,1.6c0,2.5,6.1.6,6.1,4.2c0,1.6-1.5,2.7-3.9,2.7-1.4-.1-2.8-.5-3.9-1.3v0Z" fill="#263238"/><g><path d="M461.7,484.4v9.4h-1.2v-1.7c-.7,1.2-2,1.9-3.4,1.9-2,.2-3.8-1.3-4-3.3c0-.3,0-.5,0-.8v-5.5h1.3v5.3c0,2,1,3,2.8,3c.9,0,1.8-.3,2.4-1s.9-1.6.8-2.5v-4.9l1.3.1Z" fill="#263238"/></g><path d="M464.3,489.1c-.1-2.6,1.9-4.7,4.5-4.8.1,0,.2,0,.4,0c1.5-.1,3,.6,3.8,1.9l-.9.6c-.6-.9-1.7-1.4-2.8-1.4-1.7.4-2.9,1.9-2.9,3.7s1.2,3.3,2.9,3.7c1.1,0,2.1-.5,2.8-1.4l.9.6c-.8,1.3-2.3,2-3.8,1.9-2.6.1-4.7-1.9-4.8-4.5-.1,0-.1-.2-.1-.3v0Zm10,0c-.1-2.6,1.9-4.7,4.5-4.8.1,0,.2,0,.3,0c1.5-.1,3,.6,3.8,1.9l-1,.6c-.6-.9-1.6-1.4-2.7-1.4-1.7.4-2.9,1.9-2.9,3.7s1.2,3.3,2.9,3.7c1.1,0,2.1-.5,2.7-1.4l1,.6c-.8,1.3-2.3,2-3.8,1.9-2.6.1-4.8-1.9-4.9-4.5.1,0,.1-.2.1-.3v0Zm19,.4h-7.9c.1,1.9,1.8,3.4,3.7,3.3h.1c1.1,0,2.2-.4,2.9-1.2l.7.8c-1.9,2-5.1,2.1-7.1.1-.9-.9-1.5-2.1-1.5-3.4-.1-2.5,1.8-4.7,4.4-4.8s4.7,1.8,4.8,4.4c0,.2,0,.3,0,.5c0,0-.1.2-.1.3v0Zm-7.8-.9h6.7c0-1.8-1.5-3.3-3.3-3.3-1.9-.1-3.4,1.4-3.4,3.3v0Zm9.1,4.2l.6-1c1,.7,2.2,1.1,3.4,1.1c1.8,0,2.5-.6,2.5-1.5c0-2.5-6.1-.5-6.1-4.2c0-1.5,1.3-2.7,3.8-2.7c1.2,0,2.3.3,3.3.9l-.5,1c-.8-.6-1.8-.8-2.8-.8-1.7,0-2.5.7-2.5,1.6c0,2.5,6.1.6,6.1,4.2c0,1.6-1.4,2.7-3.9,2.7-1.4-.1-2.7-.5-3.9-1.3v0Zm8.8,0l.6-1c1,.7,2.2,1.1,3.4,1.1c1.8,0,2.5-.6,2.5-1.5c0-2.5-6.1-.5-6.1-4.2c0-1.5,1.3-2.7,3.8-2.7c1.2,0,2.3.3,3.3.9l-.5,1c-.8-.6-1.8-.8-2.8-.8-1.7,0-2.5.7-2.5,1.6c0,2.5,6.1.6,6.1,4.2c0,1.6-1.4,2.7-3.9,2.7-1.4-.1-2.7-.5-3.9-1.3v0Zm11.6-9.5v1.1h2.9v1.1h-2.9v8.4h-1.3v-8.4h-1.7v-1.1h1.7v-1.2c-.1-.8.2-1.5.8-2.1.6-.5,1.3-.8,2.1-.7.7,0,1.3.2,1.9.6l-.4,1c-.4-.3-.9-.5-1.4-.5-1.2,0-1.7.6-1.7,1.8v0Z" fill="#263238"/><g><path d="M528.1,484.4v9.4h-1.2v-1.7c-.7,1.2-2,1.9-3.4,1.9-2,.2-3.8-1.3-4-3.3c0-.3,0-.5,0-.8v-5.5h1.3v5.3c0,2,1,3,2.8,3c.9,0,1.8-.3,2.4-1s.9-1.6.8-2.5v-4.9l1.3.1Z" fill="#263238"/></g><path d="M531.7,480.5h1.3v13.3h-1.3v-13.3Z" fill="#263238"/></g></g><g id="eofqnzk3HBj51_ts" transform="translate(421.800018,445.199997) scale(0.380208,0.380208)"><path id="eofqnzk3HBj51" d="M333.8,434.3h-8v-3.8h20.4v3.8h-8v20.3h-4.5l.1-20.3Zm33.4,9.8v10.5h-4.3v-10c0-3.3-1.6-4.8-4.4-4.8-3.1,0-5.1,1.9-5.1,5.5v9.3h-4.3v-25.5h4.3v9.3c1.6-1.6,3.8-2.4,6.1-2.3c4.4-.1,7.7,2.4,7.7,8v0Zm20.8-.3v10.8h-4v-2.2c-1.4,1.8-3.6,2.7-5.8,2.5-4.2,0-6.8-2.3-6.8-5.5s2.1-5.5,7.6-5.5h4.8v-.3c0-2.5-1.5-4-4.6-4-2,0-4,.6-5.7,1.9l-1.7-3.1c2.3-1.6,5-2.4,7.8-2.3c5.3-.1,8.4,2.4,8.4,7.7Zm-4.2,5v-2.1h-4.4c-2.9,0-3.8,1.1-3.8,2.4s1.3,2.5,3.5,2.5c2,.3,3.9-.9,4.7-2.8v0Zm27.8-4.7v10.5h-4.3v-10c0-3.3-1.6-4.8-4.4-4.8-3.1,0-5.1,1.9-5.1,5.5v9.3h-4.3v-18.4h4.1v2.4c1.6-1.8,3.9-2.7,6.3-2.6c4.4,0,7.7,2.5,7.7,8.1v0Zm12.9,2.6l-3.2,3v4.8h-4.3v-25.5h4.3v15.4l8.9-8.2h5.2l-7.7,7.7l8.4,10.7h-5.1l-6.5-7.9Zm41-10.5L456.9,456c-1.7,4.2-4,5.4-7.1,5.4-1.8,0-3.5-.6-4.9-1.7l1.7-3.2c.9.8,2,1.3,3.2,1.3c1.5,0,2.4-.7,3.2-2.5l.3-.7-8-18.4h4.5l5.8,13.6l5.8-13.6h4.1Zm.6,9.2c-.1-4,2.2-7.6,5.8-9.3c3.6-1.6,7.9-.9,10.8,1.9s3.8,7,2.3,10.7-5.1,6.1-9.1,6.1c-5.1.3-9.5-3.6-9.7-8.7-.1-.2-.1-.5-.1-.7v0Zm15.3,0c-.1-3-2.6-5.3-5.6-5.2s-5.4,2.5-5.3,5.5s2.4,5.4,5.4,5.4c3,.1,5.4-2.3,5.5-5.2c0-.2,0-.4,0-.5v0Zm26.2-9.2v18.4h-4.1v-2.3c-1.5,1.7-3.7,2.6-5.9,2.6-4.7,0-7.9-2.6-7.9-8.1v-10.5h4.3v9.9c0,3.3,1.6,4.9,4.3,4.9s5-1.9,5-5.5v-9.3h4.3v-.1v0Zm4.8,15.9c0-1.5,1.2-2.7,2.7-2.7s2.7,1.2,2.7,2.7-1.2,2.7-2.7,2.7c-.7,0-1.4-.3-1.9-.8-.5-.4-.8-1.1-.8-1.9Zm.2-21.6h5.1l-.8,16.1h-3.4l-.9-16.1Z" transform="translate(-421.800018,-445.199997)" opacity="0" fill="#ef724b"/></g><g><g id="eofqnzk3HBj53_to" transform="translate(435.032913,261.061676)"><g id="eofqnzk3HBj53" transform="translate(-435.032913,-261.061676)"><path d="M495.5,325.2c-1.5-5.2-8.2-4.7-8.2-4.7l.2,3.6c3.9-.7,6.3,3.9,6.3,3.9l1.7-2.8Z" fill="#ef724b"/><path d="M352.4,336.1c-1.5-5.2-8.2-4.7-8.2-4.7l.2,3.6c3.9-.7,6.3,3.9,6.3,3.9l1.7-2.8Zm78.8-71.7c7.8,2.4,12.7-6.6,12.7-6.6l-4.8-2.7c-2.3,5.5-10.1,4.9-10.1,4.9l2.2,4.4Z" fill="#e0e0e0"/><path d="M387.8,274.1c-3.6.4-4.1,5-4.1,5l2.4.3c0-2.7,3.3-3.8,3.3-3.8l-1.6-1.5Z" fill="#ef724b"/><path d="M537.9,307.5c.5-3.6-3.8-5.2-3.8-5.2l-.9,2.3c2.6.7,2.8,4.2,2.8,4.2l1.9-1.3Z" fill="#e0e0e0"/><path d="M409,226.4c.5-3.6-3.8-5.2-3.8-5.2l-.9,2.3c2.6.7,2.8,4.2,2.8,4.2l1.9-1.3Zm-89.9,58.4c-.6,5.7,6.9,7.1,6.9,7.1l1.4-3.8c-4.5-.4-5.2-5.7-5.2-5.7l-3.1,2.4Zm167.4-20.6c3.7.2,4.8-4.2,4.8-4.2l-2.4-.7c-.4,2.6-3.9,3.2-3.9,3.2l1.5,1.7Z" fill="#ef724b"/><path d="M506.5,279.2c-1,.3-2,.4-3,.3-1,.1-2,0-3-.3c2-.4,4-.4,6,0v0Zm3.2-8.3c.4,2,.4,4.1,0,6.1-.4-2-.4-4,0-6.1Zm3.4,8c1-.3,2-.4,3-.3c1-.1,2,0,3,.3-1.9.4-4,.4-6,0v0Zm-3.2,8.3c-.4-2-.4-4.1,0-6.1.4,2,.4,4,0,6.1Zm4.9-3.5c-.1.1-.7-.4-1.3-1.1s-1-1.4-.8-1.5.7.4,1.3,1.1.9,1.3.8,1.5Zm-.3-9.4c.1.1-.3.7-.9,1.3s-1.2,1-1.3.9.3-.7.9-1.3c.4-.4.8-.7,1.3-.9Zm-6.9,2.4c-.1.1-.7-.2-1.3-.7s-1-1-.9-1.1.7.2,1.2.6s1.1,1.1,1,1.2v0Zm-.3,4.1c.1.1-.2.7-.8,1.3s-1.1,1-1.2.9.2-.7.8-1.3s1.1-1,1.2-.9Z" fill="#e0e0e0"/><path d="M342.1,262.3c-2,.4-4,.4-6,0c1-.3,2-.4,3-.3c1,0,2.1,0,3,.3v0Zm3.3-8.2c.4,2,.4,4.1,0,6.1-.4-2-.4-4.1,0-6.1Zm3.4,8c2-.4,4-.4,6,0-2,.4-4,.4-6,0Zm-3.2,8.2c-.4-2-.4-4.1,0-6.1.4,2,.4,4.1,0,6.1Zm4.9-3.5c-.1.1-.7-.4-1.3-1.1s-1-1.4-.8-1.5.7.4,1.3,1.1.9,1.5.8,1.5Zm-.3-9.3c.1.1-.3.7-.9,1.3s-1.2,1-1.3.9.3-.7.9-1.3s1.2-1.1,1.3-.9Zm-7,2.4c-.1.1-.7-.2-1.2-.7s-1-1-.9-1.1.7.2,1.2.7s1.1,1,.9,1.1ZM343,264c.1.1-.2.7-.8,1.3s-1.1,1-1.2.9.2-.7.8-1.3s1-1,1.2-.9v0Z" fill="#ef724b"/><path d="M551,183.8c-4.4.5-8.9.6-13.3.5-4.4.2-8.9,0-13.3-.5c4.4-.5,8.9-.7,13.3-.5c4.4-.1,8.8,0,13.3.5Zm0,5.6c-4.4.5-8.9.7-13.3.5-4.4.2-8.9,0-13.3-.5c4.4-.5,8.9-.6,13.3-.5c4.4-.1,8.8,0,13.3.5Zm0,5.5c-4.4.5-8.9.7-13.3.5-4.4.2-8.9,0-13.3-.5c4.4-.5,8.9-.6,13.3-.5c4.4-.1,8.8,0,13.3.5v0Z" fill="#263238"/></g></g><path d="M441.7,598.4c4.6-1,8.2-4.1,9.2-8.2c2.1-6.8-4-14-12.7-16-.6-.2-.2,0-.8-.2l3.1-10-7.2-1.6-3,10-5.6-1.3l2.9-10-7.1-1.6-3.1,10-14.6-3.5-2.3,7.7l6.6,1.6c1.4.3,2.3,1.6,2.1,3c0,.1,0,.2-.1.3l-8.5,27.7c-.5,1.5-2.1,2.4-3.7,2l-5-1.2-4,7.1l14.5,3.4-3.1,10l7.4,1.7l3.1-10l5.6,1.3-3.1,10l7.2,1.6l3.1-10c10.6,2.5,23.2,1.2,26.6-9.9c1.8-5.7-1.4-11.6-7.5-13.9v0Zm-19.4-19.7c.1,0,.8.2,8.1,1.9c2.3.2,4.3,1.7,5.1,3.8.7,2.1,0,4.4-1.8,5.6-1.9,1.4-4.4,1.8-6.6,1l-8.1-1.9l3.3-10.4Zm-.5,35.3l-9.7-2.3l4.3-14.3l9.8,2.3c2.3.2,4.5,1.4,5.9,3.2c1.3,1.7,1.8,3.9,1.1,6-.7,2.2-2.3,4-4.4,4.8-2.1,1-4.6,1.1-7,.3v0Z" opacity="0.388" fill="#9d9d9d"/></g><g id="eofqnzk3HBj63_ts" transform="translate(422.300003,333.200027) scale(0.376518,0.376516)"><g id="eofqnzk3HBj63" transform="translate(-425.300003,-345.200027)" opacity="0"><circle r="49.4" transform="translate(425.3 345.2)" fill="#ef724b"/><path d="M449.6,324.3c.6.5-8.6,12.9-20.6,27.7l-7.3,8.8-1,1.2-1.1-1.1c-9.4-9.7-15.8-16.8-15.3-17.3s7.6,5.9,17.3,15.3l-2,.2l7.1-8.9c12-14.8,22.3-26.4,22.9-25.9Z" fill="#fff"/></g></g></g></g><g id="eofqnzk3HBj66_tr" transform="translate(261.3,678.75474) rotate(0)"><g transform="translate(-261.3,-678.75474)"><path d="M262.8,552.1c5.7,2.7,10.1,7.7,12.1,13.7s2.5,12.4,1.6,18.6c-1.4,12.1-8.2,24.3-15.6,34-10.2-8.9-12.5-24.4-13.2-32.3-1.1-12.5,4.5-35.8,15.1-34m9.9,86.2c-1.4-7,1.1-14.3,6.5-19c5.4-4.6,12.5-6.8,19.5-6.1c3.2.2,6.7,1.2,8.6,3.8c1.6,2.6,1.7,6,.1,8.7-1.5,2.6-3.7,4.8-6.4,6.3-8.8,5.5-18.3,9.2-28.3,6.3" fill="#ef724b"/><g><path d="M259.7,675.3c0-.8.2-1.7.4-2.5l1.2-6.7c1.1-7.5,3.5-14.7,6.9-21.4c3.6-6.7,8.9-12.4,15.4-16.3c2-1.2,4.1-2.1,6.3-2.8.6-.2,1.2-.4,1.9-.5.5-.1.6-.1.6,0-10.2,3.3-18.6,10.5-23.3,20.1-3.4,6.7-5.8,13.8-7.1,21.1l-1.5,6.6c-.2.9-.5,1.7-.8,2.4v0Z" fill="#263238"/><path d="M260,570.3c.1.4.1.7.1,1.1c0,.8.1,1.9.2,3.1l.5,11.5c.3,9.7.5,23.1.5,37.7s-.4,28.1-.8,37.8L260,673l-.2,3.1v0c.1-1.1-.2.7-.2,0v-3.1c0-2.8.2-6.7.3-11.5l.6-37.7-.2-37.7c0-4.8-.1-8.7-.2-11.5v-3.1c-.2-.5-.1-.9-.1-1.2v0Z" fill="#263238"/></g><path d="M255.1,645.7c-2.5-14.8-12-27.6-25.5-34.2-3.4-1.6-7.8-2.7-10.6-.2s-2.2,7.1-.8,10.6c6.1,14.9,20.6,24.7,36.7,24.8" fill="#ef724b"/><path d="M231.3,622.9c.8.2,1.5.6,2.2.9.8.4,1.7.8,2.4,1.3c1.1.6,2.1,1.2,3.1,1.9c1.2.8,2.4,1.7,3.6,2.7c1.3,1.1,2.6,2.2,3.8,3.4c2.7,2.8,5.1,5.9,7.2,9.2c2,3.4,3.6,7,4.7,10.7.5,1.6.9,3.3,1.2,5c.3,1.5.5,2.9.6,4.4.2,1.4.1,2.6.2,3.7.1.9.1,1.8,0,2.8c0,.8-.1,1.6-.3,2.3-.2,0,.1-3.4-.5-8.7-.2-1.5-.4-2.9-.7-4.3-.3-1.5-.8-3.2-1.3-4.9-1.2-3.7-2.8-7.2-4.7-10.5-2-3.3-4.3-6.3-7-9.1-1.2-1.2-2.4-2.4-3.7-3.5-1.2-1.1-2.4-1.9-3.5-2.7-4.4-3-7.4-4.4-7.3-4.6v0Z" fill="#263238"/></g></g><g id="eofqnzk3HBj73_ts" transform="translate(421.800011,322.956193) scale(1,1)"><g id="eofqnzk3HBj73" transform="translate(-425.300003,-332.707474)"><ellipse rx="59.946631" ry="59.946631" transform="translate(425.3 332.707459)" fill="#ef724b" stroke-width="0"/><path d="M441.7,598.4c4.6-1,8.2-4.1,9.2-8.2c2.1-6.8-4-14-12.7-16-.6-.2-.2,0-.8-.2l3.1-10-7.2-1.6-3,10-5.6-1.3l2.9-10-7.1-1.6-3.1,10-14.6-3.5-2.3,7.7l6.6,1.6c1.4.3,2.3,1.6,2.1,3c0,.1,0,.2-.1.3l-8.5,27.7c-.5,1.5-2.1,2.4-3.7,2l-5-1.2-4,7.1l14.5,3.4-3.1,10l7.4,1.7l3.1-10l5.6,1.3-3.1,10l7.2,1.6l3.1-10c10.6,2.5,23.2,1.2,26.6-9.9c1.8-5.7-1.4-11.6-7.5-13.9v0Zm-19.4-19.7c.1,0,.8.2,8.1,1.9c2.3.2,4.3,1.7,5.1,3.8.7,2.1,0,4.4-1.8,5.6-1.9,1.4-4.4,1.8-6.6,1l-8.1-1.9l3.3-10.4Zm-.5,35.3l-9.7-2.3l4.3-14.3l9.8,2.3c2.3.2,4.5,1.4,5.9,3.2c1.3,1.7,1.8,3.9,1.1,6-.7,2.2-2.3,4-4.4,4.8-2.1,1-4.6,1.1-7,.3v0Z" transform="matrix(.956477-.291809 0.291809 0.956477-151.567864-115.304769)" fill="#fff"/></g></g><g id="eofqnzk3HBj76_tr" transform="translate(141.374999,805.400024) rotate(0)"><g transform="translate(-141.374994,-805.400024)"><g><path d="M201.7,171.5l.2,7.5l2.9,67.3c-.2,8.8-29.5,59-29.5,59l18,29.4l43-77.4-10.6-85.1" fill="#ffbe9d"/><path d="M223.5,162.5l-5.8-21.3-22.6,13.1c0,1.9,6.8,17.2,6.8,17.2l3.9,4.1l20.1-2.3c.4-.2-2.4-10.8-2.4-10.8v0Z" fill="#ffbe9d"/><path d="M218.4,142.7c.1.1.2.3.2.5.9,2.3,3.4,12.7,2.2,13.5s-5,1-5.7-.3-2.8-13.2-2.8-13.2-.2-1.9,2.8-3.2c2-.8,3.3,2.7,3.3,2.7Zm-7.1-2.1c.1.1.2.3.2.4.9,2.3,3.4,12.7,2.2,13.5s-5,1-5.7-.3-2.8-13.2-2.8-13.2-.2-1.9,2.8-3.1c1.9-.8,3.3,2.7,3.3,2.7Z" fill="#ffbe9d"/><path d="M204.7,140.4c.1.1.2.3.2.5.9,2.3,3.4,12.7,2.2,13.5s-5,1-5.7-.3-2.8-13.2-2.8-13.2-.2-1.9,2.8-3.1c2-1,3.3,2.6,3.3,2.6Z" fill="#ffbe9d"/><path d="M198.2,140.1c.1.1.2.3.2.5.9,2.3,3.4,12.7,2.2,13.5s-5,1-5.7-.3-2.8-13.2-2.8-13.2-.2-1.9,2.8-3.1c2-.9,3.3,2.6,3.3,2.6Z" fill="#ffbe9d"/></g><g><path d="M214.4,153.3c0-1.8-.3-3.5-.8-5.2-.3-1.7-.7-3.4-1.4-4.9c0,1.8.3,3.5.8,5.2.3,1.6.8,3.3,1.4,4.9Zm-6.1,1.6c-.2-2.5-.6-4.9-1.3-7.3-.4-2.4-1-4.8-1.9-7.2.2,2.5.6,4.9,1.3,7.3.4,2.4,1.1,4.8,1.9,7.2Z" fill="#eb996e"/><path d="M202,156c-.2-2.5-.6-4.9-1.3-7.3-.4-2.4-1.1-4.8-1.9-7.2.2,2.5.6,4.9,1.3,7.3.4,2.4,1.1,4.8,1.9,7.2Z" opacity="0.78" fill="#eb996e"/></g><path d="M206.9,169.4l-6.9-5.5c-3-2.4-5-5.9-5.5-9.8l-.4-2.9L215,147c0,0,0,7.7-5.8,7.8l7.3,3.8-9.6,10.8Z" fill="#ffbe9d"/><g><path d="M215.4,160.1c-.6-.7-1.2-1.4-1.8-2-1.7-1.6-4-2.5-6.3-2.5h-2.2l2.1-.8L212,153v0c2-1,3.1-3.1,3-5.4c0-.2,0-.3-.1-.5l.6.3c-5.8,1.4-11,2.6-14.9,3.3-1.5.3-3,.5-4.6.7-.6.1-1.1.1-1.7,0c2-.6,4-1.1,6.1-1.4c3.8-.8,9-2.1,14.8-3.6l.5-.1.1.4c.1.2.1.4.2.7.1,1.3-.2,2.7-.9,3.8-.7,1-1.6,1.8-2.6,2.5v0l-4.8,1.7-.1-.8c2.5.1,4.9,1.2,6.6,3c.6.7,1.1,1.6,1.2,2.5v0Z" fill="#eb996e"/><path d="M214.2,150.5c.2,0,.5.9,1.6,1.9.5.5,1.4.7,2.1.3.7-.6,1.1-1.6.9-2.6l-.6-6c-.2-.8-.3-1.7-.3-2.5.2-.1.6.8,1,2.4.4,2,.7,4.1.9,6.1.2,1.3-.3,2.6-1.4,3.4-1,.5-2.2.3-3-.5-.4-.5-.8-1.1-1-1.7-.2-.5-.3-.8-.2-.8v0Z" fill="#eb996e"/></g><path d="M143.7,218.9c5-.3,9.7,2.8,13.2,6.4s6.1,8,9.7,11.5c2.7,2.6,5.9,4.9,7.5,8.3c2.6,5.4.4,12.4,3.8,17.4c1.9,2.8,5.1,4.5,7,7.2c2.4,3.5,2.2,8.1,1.7,12.2-.1,2.9-1.2,5.8-3,8.1-1.7,1.6-3.7,2.7-5.9,3.3-16.5,5.6-34.2,6-50.9,1.1" fill="#263238"/><path d="M109.1,252.6c-1.8-14.2,8.3-27.2,22.5-29c.3,0,.5-.1.8-.1c13.9-1.1,26.2,8.8,28.2,22.6c1.6,9.5,2.7,19,3.3,28.6-.2,13.3-8,18.5-11.1,20.1-1.1.4-2.3.7-3.5.9v0v.1l3,15.3c1.3,10-4.2,18.9-14.2,20.4s-17.9-6.2-19.4-16.2l-9.6-62.7Z" fill="#ffbe9d"/><path d="M158.3,254c-.2.3-1.9-.6-4.2-.3s-3.8,1.7-4,1.5s0-.6.7-1.3c.9-.8,2-1.3,3.2-1.5s2.4,0,3.4.6c.7.4,1,.9.9,1Zm-20.1,4.4c-.2.3-1.9-.6-4.2-.3s-3.8,1.7-4,1.5s0-.6.7-1.3c.9-.8,2-1.4,3.2-1.5c1.2-.2,2.4,0,3.4.6.7.4,1,.8.9,1ZM146,269c1.1-.5,2.3-.9,3.6-1.2.6-.2,1.1-.3,1.1-.7c0-.6-.3-1.2-.6-1.7l-2.3-4.1c-2.1-3.5-3.9-7.1-5.5-10.9c2.4,3.3,4.5,6.8,6.4,10.4L151,265c.5.6.7,1.4.6,2.2-.1.4-.4.8-.8,1-.3.1-.6.2-.9.3-1.3.3-2.6.5-3.9.5v0Z" fill="#263238"/><path d="M149.2,295.8c0,0-8.6,2-20.4-3c0,0,5.1,11,21.2,7.1l-.8-4.1Zm-3.4-21.2c-1-.9-2.4-1.3-3.8-1-1,.2-1.8.9-2.4,1.7-.5.9-.4,1.9.2,2.7.9.7,2.1.8,3.1.3s1.9-1.3,2.6-2.2c.2-.2.4-.5.5-.8s.1-.6-.1-.8" fill="#eb996e"/><g><path d="M139.6,271.5c.4,0,.7,2.4,3.1,3.8s4.9.8,5,1.1-.5.6-1.6.8c-1.4.2-2.9-.1-4.1-.8s-2.1-1.9-2.4-3.2c-.3-1-.2-1.6,0-1.7v0Zm-3-20.5c-.1.7-2.4.7-5,1.4s-4.6,1.7-5.1,1.2c-.2-.2,0-.9.9-1.6c2.1-1.8,4.9-2.5,7.7-2c1.1.3,1.6.7,1.5,1v0Zm19.4-3.9c-.3.6-1.9.3-3.8.5s-3.4.8-3.8.4s0-.8.6-1.4c.8-.7,1.9-1.2,3-1.3s2.2.1,3.2.6c.6.4.9.9.8,1.2v0Zm7.2-3.8c-2.8,4.2-11.5,1.6-16.8-1.3-5.7,3.7-13.3,2.1-17.1-3.5-3,3.8-9.2,2.6-11.3-1.8s-1-10.3,2.1-14.1c3.1-3.5,7.3-5.9,12-6.5c10.9-2.1,22,2.5,28.3,11.6c2.8,4.4,4.6,10.3,2.8,15.6" fill="#263238"/><path d="M120.7,222.3c-9.9-1.9-19.5,8-20.5,15.1-1.7,12.3,0,13.8-2.3,19.7-1.5,3.8-6.5,7.7-8.5,11.7-2.2,4.2-2.1,11.3-.6,15.9c1.2,3.8,6.4,14.4,6.4,14.4s14.7-.5,22.2-2.4c1.9-.4,3.8-1.3,5.3-2.5c1.4-1.3-1.5-5.8-1.2-7.7.8-5.4,4.8-8.6,3.8-13.9-1.5-7.1-7.2-7.5-7-14.8c0-3.8,5.8-9.4,6.4-13.2s2.8-17.2-3.8-22.1" fill="#263238"/></g><g><path d="M104,299.4l-1.9-2.3c-1.7-2.1-3.2-4.5-4.4-7-1.7-3.7-2.5-7.8-2.2-11.8.4-5,2.7-9.6,6.5-12.8c2-1.6,4.4-2.9,6.3-4.5c2-1.6,3.4-3.7,4.1-6.2.6-2.1,1-4.3,1.2-6.5.2-1.9.6-3.7,1.1-5.6.7-2.6,2.5-4.8,5-6.1.9-.4,1.9-.6,2.9-.6-.3-.1-.5-.1-.8-.1-.8,0-1.5.1-2.3.4-2.6,1.1-4.6,3.4-5.5,6.2-.6,1.8-1,3.7-1.3,5.7-.2,2.2-.7,4.3-1.3,6.4-.7,2.2-2.1,4.2-3.9,5.7-1.9,1.6-4.2,2.8-6.4,4.5-4,3.4-6.4,8.2-6.8,13.4-.3,4.2.5,8.4,2.4,12.1c1.2,2.5,2.8,4.8,4.7,6.9.7.7,1.2,1.3,1.6,1.6.5.2.8.4,1,.6v0Zm72-6.4c.1-.2.3-.3.4-.5.3-.5.6-1.1.8-1.7.9-2.1,1.3-4.4,1.3-6.7c0-3.4-.9-6.8-2.8-9.7-1.1-1.6-2.4-3.2-3.8-4.7s-2.4-3.3-2.9-5.3c-.9-4.1.5-8.3.2-12.1-.1-3.4-1-6.8-2.7-9.7-1.2-2-2.7-3.7-4.6-5-.5-.4-1-.7-1.6-1l-.6-.3c.6.5,1.2,1,1.9,1.5c1.7,1.4,3.2,3.1,4.3,5.1c1.6,2.9,2.4,6.1,2.4,9.4c0,2-.1,3.9-.4,5.8-.3,2.1-.3,4.3.1,6.5.6,2.1,1.6,4.1,3.1,5.7c1.4,1.4,2.6,3,3.8,4.5c1.8,2.8,2.8,6,2.8,9.3.1,2.2-.3,4.5-1,6.6-.4,1.5-.8,2.2-.7,2.3v0Z" fill="#455a64"/><path d="M134.1,217.5c2.1,0,4.3.1,6.4.4c5.1.9,9.7,3.4,13.2,7.1c3.3,3.9,5.5,8.7,6.4,13.8.3,2.1.4,4.3.3,6.4.2-.6.3-1.1.4-1.7.2-1.6.2-3.2,0-4.8-.7-5.3-2.9-10.2-6.3-14.3-3.6-3.9-8.5-6.4-13.8-7.1-1.6-.2-3.2-.2-4.8,0-.7,0-1.2.1-1.8.2v0Zm14.2,19.6c.1-.5.2-1,.2-1.5c0-1.4-.1-2.8-.4-4.1-2.1-9.1-11.2-14.8-20.4-12.7-.3.1-.6.1-.9.2-1.3.4-2.6.9-3.8,1.6-.8.5-1.2.9-1.2.9c1.7-.8,3.4-1.4,5.2-1.9c9-2.3,18.1,3.1,20.5,12.1.4,1.8.7,3.6.8,5.4v0Z" fill="#455a64"/></g><path d="M105.6,386.1c0,0,6.5,14.9,6.2,21.9s-7.1,29.9-7.1,29.9l79.8,7.5.4-18.5-2.4-75.9L227,283.3l-33.7-19.5-32.7,44.4-8.3-3.2-35.8,4.5v6.2l-1,.1c-7.9,1.7-15.4,4.6-22.3,8.7-12.8,8-19.6,22.9-17.1,37.9c1.5,9.1,4.3,20.1,9.7,26.4c10.3,12.3,19.8-2.7,19.8-2.7v0Z" fill="#ef724b"/><path d="M94.3,350.7c0,0-4.1-23.2-2.9-24.8c1.4-2,18.2-9.2,18.4-8.5l3.7,25.5-19.2,7.8Zm68,1.3l-1.9,44.4h16.8v-44.4h-14.9Zm-27.8,22.2c.3,0,.6,0,.9,0h2.9l11-.2h.3v.3l.2,44.4v.5h-17.8v-.5l1.6-32.1.5-9.2c0-.8.1-1.6.2-2.4c0-.3,0-.5,0-.8c0,.3,0,.6,0,.9v2.5l-.3,9.3-1.1,31.7-.5-.5h16.8l-.5.5.2-44.4.3.3-10.8-.3h-3-.9Zm64.7-49.7l-17.7-11.2L197,290.6l18.1,10.5-15.9,23.4Z" fill="#fafafa"/><path d="M129.6,325.8h51.9v16.8h-51.9v-16.8Z" opacity="0.4" fill="#fff"/><path d="M180.8,371.7c-.1-.5-.1-1,0-1.5l.5-4.2c.4-4.6.4-9.2,0-13.8s-1.3-9.2-2.5-13.6c-.9-3.4-1.7-5.5-1.6-5.5s.3.5.7,1.4c.6,1.3,1.1,2.6,1.5,4c1.4,4.5,2.4,9.1,2.8,13.7.4,4.7.3,9.4-.3,14-.2,1.4-.4,2.8-.8,4.2c0,.3-.1.8-.3,1.3v0Z" fill="#263238"/><path d="M205.9,271.2c-.9,1.4-1.9,2.7-3,3.9-1.9,2.3-4.7,5.5-7.8,9l-3.3,3.7-.3.3-.3-.2c-2.8-1.9-5.3-3.6-7-4.9-1-.6-1.8-1.3-2.6-2.1c1,.4,2,1,2.9,1.6c1.8,1.1,4.3,2.7,7.2,4.6h-.7l3.3-3.8l8.1-8.8c1.1-1.2,2.3-2.3,3.5-3.3v0Z" fill="#fafafa"/><path d="M224.3,287.3c-1.8-.6-3.6-1.5-5.2-2.4-3.2-1.6-7.5-3.9-12.3-6.5l-12.2-6.7c-1.7-.9-3.4-1.9-4.9-3c1.8.6,3.6,1.5,5.2,2.4l12.3,6.5l12.2,6.7c1.7.8,3.3,1.8,4.9,3v0Z" fill="#263238"/><path d="M44.8,750l-8.5,38.6-15.6,28.6c-.5,1-.7,2.2-.3,3.2s1.2,2,2.2,2.4v0c1.2.6,2.6.5,3.8-.2c7.2-4.2,33.8-19.7,34.3-22.6.5-3.3,11.7-40.2,11.7-40.2L44.8,750Z" fill="#ef724b"/><path d="M22.6,822.9l38.6-25.4-.4,1.6c-.3,1.4-1.2,2.6-2.3,3.4-3.2,2.3-12,8.4-32.1,20.1-1.2.7-2.6.8-3.8.3v0Zm33.8-39.7c-1.2.5-1.8,1.8-1.4,3s1.7,1.8,2.9,1.4c1.2-.5,1.9-1.9,1.5-3.1-.6-1.2-2-1.7-3.2-1.2" opacity="0.6" fill="#fff"/><path d="M35.5,808.2c-.6-1.4-1.5-2.7-2.6-3.8-1.3-.9-2.7-1.5-4.2-1.9c0-.1.5-.3,1.5-.2c1.2.2,2.4.7,3.3,1.5c1,.8,1.7,1.8,2,3c.2.8.1,1.4,0,1.4Zm-4,4.5c-.2.1-1.2-1.4-3-2.5-1.2-.5-2.4-1-3.6-1.4c1.4-.5,2.9-.2,4.1.6c2,1.3,2.7,3.2,2.5,3.3Zm10.8-9.8c-1.4-1.5-2.8-2.9-4.4-4.2-1.7-1-3.5-2-5.4-2.7c4.3.2,8.1,2.9,9.8,6.9v0Zm3.5-11.6c-.2.2-2.1-1.2-4.8-2s-5.1-.7-5.1-.9c1.7-.6,3.6-.6,5.4,0c1.7.4,3.3,1.5,4.5,2.9Zm2.8-11.2c-1.5-1-3.2-1.7-5-2.2-1.8-.2-3.6-.2-5.4,0c0-.1.5-.5,1.5-.8c1.3-.4,2.7-.4,4.1-.1s2.7.9,3.8,1.7c.7.7,1.1,1.2,1,1.4v0Zm-4.4-4.4c0-.5.1-1,.3-1.5.5-1.3,1.2-2.5,2.1-3.5.6-.8,1.5-1.4,2.5-1.7.7-.1,1.4.2,1.7.8s.3,1.3.2,1.9c-.8,2.6-3.4,4.3-6.1,4-2.7-.4-4.9-2.3-5.5-4.9-.2-.7,0-1.3.4-1.9.5-.6,1.2-.7,1.9-.4.9.4,1.6,1.1,2.2,1.9.8,1.1,1.5,2.3,1.9,3.6.2.5.3,1,.3,1.5-.6-1.7-1.5-3.3-2.6-4.7-.5-.7-1.1-1.3-1.9-1.6-.3-.2-.8-.1-1,.2-.2.4-.3.8-.2,1.2.6,2.2,2.5,3.9,4.8,4.2s4.5-1.1,5.3-3.3c.2-.4.2-.9,0-1.3-.2-.3-.6-.5-.9-.5-.8.2-1.6.7-2.1,1.4-1.6,1.4-2.6,2.9-3.3,4.6v0Z" fill="#263238"/><path d="M43.8,754.2l-1.2,5.5l27.3,8l2.3-7.7-27.5-10-.9,4.2Z" opacity="0.3"/><path d="M169.9,764.3l-2.3,30.9c0,0,30.6,12.7,30.8,18.5l-60.1-2.3l1.6-48.3l30,1.2Z" fill="#ef724b"/><path d="M149.1,791.8c-1.2.3-2,1.5-1.8,2.7s1.4,2.1,2.7,1.9c1.3-.3,2.1-1.6,1.9-2.9-.4-1.2-1.8-1.9-3-1.6m-10.6,19.4l.4-4.9l57.4,4.1c0,0,2.6,1.3,2.2,3.1l-60-2.3Z" opacity="0.6" fill="#fff"/><path d="M168.6,794.9c0,.3-1.5.4-3,1.2s-2.3,2.1-2.6,2s.2-1.9,2.1-2.8s3.6-.7,3.5-.4Zm6.2,2.8c0,.3-1.2.7-2.3,1.9s-1.4,2.5-1.7,2.5-.4-1.7.9-3.2s3.1-1.4,3.1-1.2v0Zm3.3,7.7c-.3,0-.6-1.4.2-3s2.2-2.2,2.3-1.9-.8,1.1-1.4,2.4-.8,2.5-1.1,2.5Zm-9.8-17.6c-.1.3-1.5-.2-3.1-.2s-3,.5-3.1.3s1.1-1.3,3.1-1.3s3.3,1,3.1,1.2v0Z" fill="#263238"/><path d="M169.4,770.4l-.4,5.5-29.5-1.4.2-6.4l29.7,2.3Z" opacity="0.3"/><g><path d="M168.7,781.6c-1,.2-2,.2-3-.1-1.1-.2-2.1-.6-3.1-1.1-.6-.3-1.1-.6-1.7-1-.3-.2-.6-.4-.9-.7-.4-.5-.4-1.1,0-1.6.3-.4.8-.6,1.3-.6.4,0,.8.1,1.1.2.7.2,1.3.4,1.9.7c1,.5,1.9,1.1,2.7,1.9c1.3,1.4,1.8,2.5,1.7,2.5s-.8-.9-2.2-2c-.8-.6-1.7-1.2-2.6-1.6-.6-.2-1.1-.4-1.7-.6s-1.2-.2-1.3,0s0,.2,0,.3c.2.2.4.4.6.5.5.4,1,.7,1.5,1c.9.5,1.9.9,2.9,1.2s1.9.6,2.8,1v0Z" fill="#263238"/><path d="M168.3,782c-.5-.9-.8-1.9-.7-2.9c0-1.1.2-2.2.5-3.3.2-.6.5-1.2.8-1.8.3-.8,1.1-1.3,1.9-1.5.5,0,1,.4,1.2.9.1.4.2.7.3,1.1.1.7.1,1.4,0,2-.2,1.1-.7,2.2-1.4,3.1-1.2,1.5-2.5,1.9-2.5,1.7.7-.7,1.3-1.4,1.9-2.2.5-.8.9-1.8,1.1-2.8.1-.6.1-1.2,0-1.7c0-.6-.3-1.2-.5-1.1-.5.2-.8.5-1.1.9-.3.5-.6,1-.8,1.6-.4,1-.6,2-.7,3-.1,1.8.1,2.9,0,3Z" fill="#263238"/></g><path d="M93.8,368.6l15.5.9c1.1,4.4,2.6,8.6,4.4,12.7c12.5-21.7,22.2-50.8,24.6-62.5-.4-1.2-.8-2.5-1.3-3.9-.4-2.2-.3-4.4.2-6.6l1.4-7.7c.7-4.9,1.5-5.7,3.2-5.2c2.3.8-1,13.9.9,14.1c1,.2,2.3-4.3,2.7-8s2-15.1,3.3-15.8c1.9-1.1,3.3.6,2.9,4.3s-1,14.8.9,14.9s3.5-18.7,3.5-18.7-.3-4.1,1.9-4c4.1.2.9,20,.5,21.9-.2,1.3,1.9,1.5,2.1.1s1.2-18.9,5.3-18.7c3.2.1-2.5,16.3-.7,20.1s3-12.8,6.1-12.5c1.1,0,1.9.3-.1,9.7-2,7.4-4.4,14.8-7.3,21.9-4.8,25.9-25.9,108.9-59,93.7C86.3,411.1,77.7,369,77.7,369l16.1-.4Z" fill="#ffbe9d"/><path d="M163.9,325.8c0-.2.1-.4.2-.6l.5-1.6l2.2-6.3c.9-2.7,2.1-6.1,3.2-10c.6-2.1,1.1-4.2,1.5-6.4.2-1.1.4-2.3.6-3.5c0-.6,0-1.2,0-1.8s-.1-1.1-.6-1.1-.8.3-1.2.8c-.3.6-.6,1.1-.8,1.8-.4,1.2-.8,2.6-1.1,3.9s-.7,2.8-1.1,4.2c-.2.8-.5,1.5-.9,2.2-.3.3-.7.4-1,.1-.2-.2-.3-.4-.4-.6-.2-.4-.3-.8-.3-1.2-.1-3.2.3-6.3.9-9.4.3-1.6.6-3.2.8-4.8.1-.8.2-1.6.2-2.5c0-.7,0-1.8-.4-1.9s-1.1.3-1.5,1-.8,1.5-1,2.2c-.5,1.7-.9,3.3-1.2,5.1s-.5,3.5-.7,5.3c0,.9-.1,1.8-.3,2.7l-.1,1.4c0,.6-.2,1.2-.6,1.6-.6.4-1.3.4-1.9,0-.3-.2-.5-.5-.6-.9c0-.2,0-.3,0-.5v-.3l.4-2.8c.3-1.9.5-3.8.7-5.7s.3-3.8.3-5.7c.1-1.9-.1-3.8-.6-5.7-.1-.5-.4-.9-.8-1.2-.4-.1-.8,0-1.1.3-.5.9-.7,2-.6,3.1v0c-.3,3.8-.8,7.4-1.3,11-.2,1.8-.6,3.6-1,5.3-.1.4-.3.9-.4,1.3-.1.5-.5,1-.9,1.4-.4.2-.9.1-1.2-.2-.2-.2-.3-.5-.4-.7-.2-.4-.3-.9-.4-1.4-.4-3.4-.4-6.9-.1-10.4.2-1.6.3-3.2.2-4.8c0-.7-.4-1.3-.9-1.8-.2-.2-.5-.2-.8-.1-.2,0-.3.1-.5.2-.1.1-.2.2-.2.3-.6,1.4-1,2.9-1.2,4.4-.3,1.5-.6,3-.8,4.5s-.5,2.9-.6,4.4-.3,2.9-.6,4.3c-.2,1.4-.6,2.8-1.1,4.1-.1.3-.3.7-.5,1s-.3.7-.9.9c-.3.1-.6-.1-.8-.3-.1-.2-.2-.4-.2-.6-.1-.3-.1-.7-.1-1.1c0-2.7.4-5.2.5-7.5.1-1.1.1-2.3,0-3.4.1-.6-.3-1.3-.9-1.4-.3-.1-.6,0-.9.2-.7.7-1.1,1.6-1.2,2.6-.2,1-.3,1.9-.5,2.9-.7,3.8-1.4,7-1.7,9.6-.2,1.2-.2,2.3,0,3.5.2.9.5,1.8.7,2.5l.5,1.5c.1.2.1.3.1.5-.1-.2-.2-.3-.2-.5l-.5-1.5c-.2-.7-.5-1.5-.8-2.5-.2-1.2-.2-2.4,0-3.6.3-2.7.9-5.9,1.5-9.6.2-.9.3-1.9.5-2.9.1-.5.2-1,.4-1.5.2-.6.5-1.1,1-1.5.6-.3,1.3-.3,1.9,0c.8.4.8,1.2.9,1.7.1,1.2.1,2.4,0,3.6-.1,2.4-.5,4.9-.4,7.5c0,.3.1.6.1.9s.2.4.2.4.3-.3.4-.5c.2-.3.3-.6.4-.9.5-1.3.8-2.6,1-4c.3-1.4.3-2.8.5-4.2l.6-4.4.8-4.5c.3-1.6.7-3.2,1.3-4.7.1-.2.3-.5.5-.6s.4-.2.7-.3c.5-.1,1.1,0,1.5.2.7.6,1.2,1.5,1.3,2.4s.1,1.7,0,2.6c0,.8-.2,1.6-.2,2.5-.3,3.4-.3,6.8,0,10.1.1.4.2.8.3,1.2.1.1.1.3.2.4v0v0c.2-.3.3-.6.5-.9.1-.4.3-.8.4-1.2.4-1.7.7-3.5,1-5.2.5-3.6.9-7.2,1.3-10.9v0c-.1-1.3.1-2.6.8-3.8.5-.7,1.4-1,2.2-.6.7.4,1.2,1,1.4,1.7.5,1.9.7,4,.6,6c0,1.9-.2,3.9-.4,5.8s-.4,3.8-.7,5.7l-.4,2.8c-.1.3-.1.5,0,.8.2.1.5.1.7,0s.2-.4.3-.9l.1-1.4c0-.9.2-1.9.3-2.7.2-1.8.4-3.6.8-5.4.3-1.8.7-3.5,1.3-5.2.3-.9.7-1.7,1.2-2.5.3-.4.6-.8,1-1.1.6-.6,1.6-.5,2.1.1.3.3.4.7.4,1c.1.4.1.9.1,1.3c0,.9-.1,1.7-.2,2.5-.2,1.7-.5,3.3-.8,4.8-.7,3-1,6.1-1,9.2c0,.3.1.7.3,1c0,.1.1.2.2.3v0-.1c.4-.6.6-1.2.8-1.9.4-1.4.7-2.8,1.1-4.1s.7-2.7,1.2-4c.2-.7.5-1.3.9-1.9.2-.3.4-.6.7-.8.2-.1.4-.2.6-.3.2,0,.4,0,.6,0c.4,0,.8.3,1,.7.1.3.2.7.2,1c0,.6,0,1.3-.1,1.9-.1,1.2-.4,2.4-.6,3.6-.4,2.2-.9,4.3-1.6,6.4-1.2,3.9-2.4,7.2-3.3,9.9l-2.3,6.2-.6,1.6c-.6.4-.6.7-.6.9v0Z" fill="#eb996e"/><path d="M77.6,370.5c3,10.6,8.9,27,15.1,44.3.6,1.6,2.3,2.4,3.8,1.8.7-.3,1.3-.8,1.7-1.5l15.5-32.7-3.4-25.9c.4.9-31.9,3.5-31.9,3.5l-.8,10.5Z" fill="#ef724b"/><g><path d="M119.4,373c-.4-.2-.8-.4-1.2-.5-1.1-.3-2.2,0-3,.8l-.4.5-.2-.6-2.9-7.9c-1.7-4.1-3-8.4-4.1-12.7c2,4,3.6,8.2,5,12.4c1.1,3,2,5.8,2.7,7.9l-.6-.1c.5-.6,1.3-.9,2.1-1c.6-.1,1.1,0,1.7.3.7.3.9.9.9.9Z" fill="#263238"/><path d="M97.5,404.2c.6-1.6,1.3-3.2,2.2-4.6c1.5-2.8,3.6-6.6,6-10.8L112,378c.8-1.5,1.8-3,2.8-4.3-.6,1.6-1.4,3.2-2.2,4.6-1.5,2.8-3.6,6.6-6,10.9l-6.3,10.7c-.8,1.5-1.8,2.9-2.8,4.3v0Z" fill="#263238"/></g><path d="M87.2,399.2c.8-.7,1.7-1.3,2.7-1.9l7.4-4.6-.2.5-5.9-13.8-6.8-16.6.5.2-5.8,3.1c-.7.4-1.4.8-2.2,1c.6-.5,1.3-1,2-1.4c1.9-1.1,3.8-2.3,5.7-3.4l.3-.2.2.4L92.2,379l5.7,13.8.1.3-.3.2-7.5,4.3c-1.1.7-2,1.2-3,1.6v0Z" fill="#fafafa"/><path d="M171.1,772.1c5.7-.2,10.4-4.7,10.7-10.4l14.8-297.2c-3.3-8.4-11.9-37.5-11.9-37.5l-77-3.6c0,0-19.2,30.2-21.9,41.8-2.5,10.4-72.3,230.3-81,277-.9,4.8,2,9.5,6.7,10.9l159.6,19Z" fill="#263238"/><path d="M123,425c0,0-.1.3-.3.8l-1.1,2.4-4.3,9.1-2.8,6.7-3.2,8-3.4,9.3c-1.2,3.3-2.2,6.9-3.4,10.6l-3.4,11.8-3.3,12.9c-1.2,4.5-2.1,9.1-3.2,13.9s-2.1,9.7-3.1,14.8L85.1,557c-2.2,11.1-4.5,22.5-7.2,34.1-1.3,5.8-2.8,11.5-4.2,17.1s-3,11.1-4.7,16.5c-3.3,10.8-6.8,21-10.5,30.7-7.4,19.3-15.1,36.3-21.7,50.5s-12.4,25.4-16.4,33.2l-4.6,9-1.2,2.3c-.1.3-.3.5-.4.8.1-.3.2-.5.4-.8l1.1-2.4l4.5-9l16.1-33.3c6.6-14.2,14.2-31.2,21.5-50.5c3.6-9.7,7.2-19.9,10.5-30.7c1.6-5.4,3.1-10.9,4.7-16.5s2.9-11.3,4.2-17.2c2.7-11.6,5-23,7.2-34.1l6.3-31.8l3.2-14.8c1-4.8,2.2-9.4,3.2-13.9s2.3-8.8,3.4-12.9s2.4-8,3.5-11.8l3.5-10.7c1.2-3.3,2.4-6.4,3.5-9.3s2.2-5.7,3.3-8s2-4.7,2.9-6.7l4.5-9l1.2-2.3.1-.5ZM54.9,757.8c0-.3.1-.6.2-.8.2-.6.4-1.5.7-2.5l2.7-9.6l9.8-35.4l14.1-52.6l8-31.1l8.4-33.5l8.1-33.6l7.3-31.3L126,474.2l7.7-35.8l2.1-9.8.6-2.5c.1-.3.1-.6.2-.9c0,.3-.1.6-.1.9l-.5,2.5-1.9,9.8-3.1,15.4-4.3,20.5-11.6,53.2-7.2,31.3-8.1,33.6-8.4,33.5L83.3,657L69,709.6l-5.7,20.1-4.4,15.1-2.8,9.6-.8,2.5c-.1.3-.2.6-.4.9v0Zm91.8-332.6c0,.3.1.6.1.9l.3,2.6.5,4.2c.2,1.6.2,3.6.4,5.8c0,1.1.1,2.2.2,3.5v3.8v4.2l-.2,4.5-.2,4.8-.5,5.1c-.2,3.5-.8,7.2-1.3,11.1-1.2,7.7-2.7,16.1-4.7,25.1l-6.7,28.5c-2.4,10-4.9,20.5-7,31.5s-3.8,22.5-5.3,34.3-2.7,23.3-4,34.4l-3.8,32.1-2,14.9-2.3,14c-.8,4.6-1.6,8.9-2.5,13L105,715.4c-.9,3.8-1.9,7.4-2.8,10.8s-2,6.5-2.9,9.4c-.5,1.5-.9,2.9-1.4,4.3l-1.4,3.9-2.5,6.8c-1.7,4-3.1,7.1-4,9.2l-1.1,2.4c-.2.5-.4.8-.4.8c0-.3.1-.6.3-.8.3-.5.6-1.4,1-2.4.9-2.1,2.2-5.2,3.8-9.2l2.4-6.8l1.4-3.9c.5-1.4.9-2.8,1.3-4.3l2.8-9.4l2.8-10.8l2.6-11.9c.8-4.2,1.6-8.5,2.4-13s1.5-9.2,2.2-14s1.3-9.8,2-14.9l3.8-32.1l4-34.5c1.5-11.9,3.3-23.3,5.4-34.3s4.6-21.6,7.1-31.6l6.8-28.5c2-8.9,3.6-17.3,4.8-25c.5-3.8,1.1-7.5,1.4-11l.5-5.1c.2-1.6.2-3.2.3-4.8s.2-3,.2-4.5v-4.1-3.8c0-1.2-.1-2.3-.2-3.4-.1-2.2-.1-4.1-.3-5.8l-.4-4.2-.2-2.6c0-.5,0-.8,0-1.1v0Zm-8.4,344.6c-.1-.3-.2-.6-.2-.9l-.5-2.6-.8-4.2-.9-5.7-.8-7.2c-.3-2.6-.4-5.5-.6-8.6c0-1.5-.2-3.2-.2-4.8v-5.2-5.4l.2-5.7.2-6l.5-6.3c.3-4.3.8-8.7,1.4-13.2s1.3-9.3,1.9-14.1s1.6-9.8,2.6-14.9c3.8-20.4,8.9-42.5,13.6-65.8c4.4-22,7.7-44.1,9.9-66.4c2-20.6,2.8-39.1,3.1-54.7v-21.1c0-6.2-.3-11.5-.5-15.9l-.5-10.1v-2.6c0,.6.1,1.5.2,2.6l.6,10l.6,15.9c.2,6.2.2,13.2.2,21.1-.2,15.6-.9,34.3-2.9,54.8-2.1,22.3-5.4,44.5-9.8,66.5l-13.6,66c-1,5.1-1.8,10-2.6,14.8s-1.5,9.5-2,14.1-1.1,8.9-1.4,13.2l-.5,6.2c-.2,2-.2,4-.3,6l-.2,5.7v10.5c0,1.6.2,3.2.2,4.8.2,3.1.2,6,.5,8.6s.5,5.1.8,7.2.5,4.1.8,5.7l.7,4.2.4,2.6c0,.8-.1.9-.1.9v0Zm42.3-343.1l.3.8.7,2.5l1.2,4.1c.5,1.9,1,3.8,1.3,5.7l1.4,7.1l1.2,8.5c.4,3.1.5,6.4.8,9.9s.3,7.2.2,11.1c-.1,8.5-.6,17-1.6,25.4-1,9.1-2.6,18.8-4.4,28.9l-5.9,31.7c-2.1,11-3.9,22.4-5.5,34.2s-3,23.2-4.1,34.4-1.9,21.9-2.5,32.2-1,20-1.2,29.2l-.3,25.4.3,21l.6,15.8.5,10c0,.9,0,1.7.1,2.6v.9c0-.3,0-.6-.1-.9l-.2-2.6-.7-10-.8-15.8-.5-21c-.1-7.8,0-16.3.2-25.5s.6-18.9,1.1-29.2s1.4-21.1,2.5-32.2s2.4-22.6,4.1-34.4s3.5-23.2,5.5-34.2l6-31.7c1.8-9.6,3.3-19.2,4.5-28.8c1-8.4,1.6-16.9,1.8-25.3l-.1-11.1c0-3.5-.5-6.8-.7-9.8s-.8-5.9-1.1-8.5-.9-5-1.3-7.1c-.3-1.9-.7-3.8-1.2-5.7-.5-1.6-.8-3-1.1-4.1l-.6-2.5c-.3-.4-.4-.7-.4-1v0Z" fill="#455a64"/></g></g></svg>