<svg id="euSXxhyGM2V1" xmlns="http://www.w3.org/2000/svg" xmlns:xlink="http://www.w3.org/1999/xlink" viewBox="0 0 922.7 575.9" shape-rendering="geometricPrecision" text-rendering="geometricPrecision"><style><![CDATA[#euSXxhyGM2V10_to {animation: euSXxhyGM2V10_to__to 5000ms linear infinite normal forwards}@keyframes euSXxhyGM2V10_to__to { 0% {transform: translate(521.198975px,365.537842px)} 28% {transform: translate(521.198975px,345.537842px)} 56% {transform: translate(521.198975px,365.537842px)} 78% {transform: translate(521.198975px,345.537842px)} 100% {transform: translate(521.198975px,365.537842px)}} #euSXxhyGM2V28_ts {animation: euSXxhyGM2V28_ts__ts 5000ms linear infinite normal forwards}@keyframes euSXxhyGM2V28_ts__ts { 0% {transform: translate(500.4px,243.1px) scale(1,1)} 26% {transform: translate(500.4px,243.1px) scale(1.083111,0.946515)} 52% {transform: translate(500.4px,243.1px) scale(1,1)} 76% {transform: translate(500.4px,243.1px) scale(1.083111,0.946515)} 100% {transform: translate(500.4px,243.1px) scale(1,1)}} #euSXxhyGM2V43_tr {animation: euSXxhyGM2V43_tr__tr 5000ms linear infinite normal forwards}@keyframes euSXxhyGM2V43_tr__tr { 0% {transform: translate(240.699997px,496.549988px) rotate(0deg)} 32% {transform: translate(240.699997px,496.549988px) rotate(18000deg)} 58% {transform: translate(240.699997px,496.549988px) rotate(18000deg)} 100% {transform: translate(240.699997px,496.549988px) rotate(0deg)}} #euSXxhyGM2V43_ts {animation: euSXxhyGM2V43_ts__ts 5000ms linear infinite normal forwards}@keyframes euSXxhyGM2V43_ts__ts { 0% {transform: scale(0.1,0.1)} 32% {transform: scale(1,1)} 58% {transform: scale(1,1)} 100% {transform: scale(0.1,0.1)}} #euSXxhyGM2V43 {animation: euSXxhyGM2V43_c_o 5000ms linear infinite normal forwards}@keyframes euSXxhyGM2V43_c_o { 0% {opacity: 0} 32% {opacity: 1} 58% {opacity: 1} 100% {opacity: 0}} #euSXxhyGM2V53_tr {animation: euSXxhyGM2V53_tr__tr 5000ms linear infinite normal forwards}@keyframes euSXxhyGM2V53_tr__tr { 0% {transform: translate(866.377258px,289.932968px) rotate(0deg)} 36% {transform: translate(866.377258px,289.932968px) rotate(18000deg)} 66% {transform: translate(866.377258px,289.932968px) rotate(18000deg)} 100% {transform: translate(866.377258px,289.932968px) rotate(0deg)}} #euSXxhyGM2V53_ts {animation: euSXxhyGM2V53_ts__ts 5000ms linear infinite normal forwards}@keyframes euSXxhyGM2V53_ts__ts { 0% {transform: scale(0.1,0.1)} 36% {transform: scale(1,1)} 66% {transform: scale(1,1)} 100% {transform: scale(0.1,0.1)}} #euSXxhyGM2V53 {animation: euSXxhyGM2V53_c_o 5000ms linear infinite normal forwards}@keyframes euSXxhyGM2V53_c_o { 0% {opacity: 0} 36% {opacity: 1} 66% {opacity: 1} 100% {opacity: 0}} #euSXxhyGM2V57_tr {animation: euSXxhyGM2V57_tr__tr 5000ms linear infinite normal forwards}@keyframes euSXxhyGM2V57_tr__tr { 0% {transform: translate(740.549988px,180.75px) rotate(0deg)} 6% {transform: translate(740.549988px,180.75px) rotate(0deg)} 34% {transform: translate(740.549988px,180.75px) rotate(18000deg)} 56% {transform: translate(740.549988px,180.75px) rotate(18000deg)} 84% {transform: translate(740.549988px,180.75px) rotate(0deg)} 100% {transform: translate(740.549988px,180.75px) rotate(0deg)}} #euSXxhyGM2V57_ts {animation: euSXxhyGM2V57_ts__ts 5000ms linear infinite normal forwards}@keyframes euSXxhyGM2V57_ts__ts { 0% {transform: scale(0.1,0.1)} 6% {transform: scale(0.1,0.1)} 34% {transform: scale(1,1)} 56% {transform: scale(1,1)} 84% {transform: scale(0.1,0.1)} 100% {transform: scale(0.1,0.1)}} #euSXxhyGM2V57 {animation: euSXxhyGM2V57_c_o 5000ms linear infinite normal forwards}@keyframes euSXxhyGM2V57_c_o { 0% {opacity: 0} 6% {opacity: 0} 34% {opacity: 1} 56% {opacity: 1} 86% {opacity: 0} 100% {opacity: 0}} #euSXxhyGM2V61_tr {animation: euSXxhyGM2V61_tr__tr 5000ms linear infinite normal forwards}@keyframes euSXxhyGM2V61_tr__tr { 0% {transform: translate(367.75px,129.350006px) rotate(0deg)} 32% {transform: translate(367.75px,129.350006px) rotate(18000deg)} 56% {transform: translate(367.75px,129.350006px) rotate(18000deg)} 90% {transform: translate(367.75px,129.350006px) rotate(0deg)} 100% {transform: translate(367.75px,129.350006px) rotate(0deg)}} #euSXxhyGM2V61_ts {animation: euSXxhyGM2V61_ts__ts 5000ms linear infinite normal forwards}@keyframes euSXxhyGM2V61_ts__ts { 0% {transform: scale(0.1,0.1)} 32% {transform: scale(1,1)} 56% {transform: scale(1,1)} 90% {transform: scale(0.1,0.1)} 100% {transform: scale(0.1,0.1)}} #euSXxhyGM2V61 {animation: euSXxhyGM2V61_c_o 5000ms linear infinite normal forwards}@keyframes euSXxhyGM2V61_c_o { 0% {opacity: 0} 32% {opacity: 1} 56% {opacity: 1} 92% {opacity: 0} 100% {opacity: 0}} #euSXxhyGM2V65_tr {animation: euSXxhyGM2V65_tr__tr 5000ms linear infinite normal forwards}@keyframes euSXxhyGM2V65_tr__tr { 0% {transform: translate(72.449999px,273.850006px) rotate(0deg)} 2% {transform: translate(72.449999px,273.850006px) rotate(0deg)} 28% {transform: translate(72.449999px,273.850006px) rotate(18000deg)} 56% {transform: translate(72.449999px,273.850006px) rotate(18000deg)} 82% {transform: translate(72.449999px,273.850006px) rotate(0deg)} 100% {transform: translate(72.449999px,273.850006px) rotate(0deg)}} #euSXxhyGM2V65_ts {animation: euSXxhyGM2V65_ts__ts 5000ms linear infinite normal forwards}@keyframes euSXxhyGM2V65_ts__ts { 0% {transform: scale(0.1,0.1)} 2% {transform: scale(0.1,0.1)} 28% {transform: scale(1,1)} 56% {transform: scale(1,1)} 82% {transform: scale(0.1,0.1)} 100% {transform: scale(0.1,0.1)}} #euSXxhyGM2V65 {animation: euSXxhyGM2V65_c_o 5000ms linear infinite normal forwards}@keyframes euSXxhyGM2V65_c_o { 0% {opacity: 0} 2% {opacity: 0} 28% {opacity: 1} 56% {opacity: 1} 84% {opacity: 0} 100% {opacity: 0}} #euSXxhyGM2V69_to {animation: euSXxhyGM2V69_to__to 5000ms linear infinite normal forwards}@keyframes euSXxhyGM2V69_to__to { 0% {transform: translate(977.951005px,441.750031px)} 100% {transform: translate(-54.75666px,441.750031px)}} #euSXxhyGM2V75_to {animation: euSXxhyGM2V75_to__to 5000ms linear infinite normal forwards}@keyframes euSXxhyGM2V75_to__to { 0% {transform: translate(174.099998px,106.849754px)} 24% {transform: translate(174.099998px,86.849754px)} 50% {transform: translate(174.099998px,106.849754px)} 72% {transform: translate(174.099998px,86.849754px)} 100% {transform: translate(174.099998px,106.849754px)}} #euSXxhyGM2V81_to {animation: euSXxhyGM2V81_to__to 5000ms linear infinite normal forwards}@keyframes euSXxhyGM2V81_to__to { 0% {transform: translate(888.150024px,125.649998px)} 20% {transform: translate(888.150024px,105.649998px)} 42% {transform: translate(888.150024px,125.649998px)} 64% {transform: translate(888.150024px,105.649998px)} 100% {transform: translate(888.150024px,125.649998px)}} #euSXxhyGM2V90_to {animation: euSXxhyGM2V90_to__to 5000ms linear infinite normal forwards}@keyframes euSXxhyGM2V90_to__to { 0% {transform: translate(512.549988px,34.5px)} 26% {transform: translate(512.549988px,54.5px)} 56% {transform: translate(512.549988px,34.5px)} 78% {transform: translate(512.549988px,54.5px)} 100% {transform: translate(512.549988px,34.5px)}}]]></style><defs><rect id="euSXxhyGM2V2" width="25.6" height="78" rx="0" ry="0"/><rect id="euSXxhyGM2V3" width="206" height="73.9" rx="0" ry="0"/><rect id="euSXxhyGM2V4" width="201.5" height="44.6" rx="0" ry="0"/><rect id="euSXxhyGM2V5" width="21.3" height="26.6" rx="0" ry="0"/><rect id="euSXxhyGM2V6" width="21.3" height="26.6" rx="0" ry="0"/></defs><g id="euSXxhyGM2V10_to" transform="translate(521.198975,365.537842)"><g transform="translate(-521.198975,-365.537842)"><g><path d="M593.5,159.4c-3.8.7-7.1,2.8-9.3,5.9l-.1.2-54.4,77.6l90.5-15.9-9.8-56c-1.4-7.9-9-13.2-16.9-11.8" fill="#141e23"/></g><g><path d="M579.1,172.5l-49.5,70.6l90.5-15.9-1.8-10c-10.5-1.6-21.1-2.2-31.7-1.5l-7.5-43.2Z" fill="#f2f2f2"/><rect width="90.5" height="70.6" rx="0" ry="0" transform="translate(529.7 172.5)" fill="none"/><path d="M742.3,300.4L721,304.1L734.5,381l21.3-3.7c5.2-.9,8.6-5.8,7.7-11v0l-10.3-58.2c-.8-5.1-5.7-8.6-10.9-7.7v0" fill="#141e23"/><g><g><g clip-path="url(#euSXxhyGM2V21)"><path d="M744.4,350l-.7-3.5c-3.1-15.2-8.5-29.9-16.1-43.5l-6.5,1.1L734.6,381l12-2.1c.2-9.7-.6-19.4-2.2-28.9" fill="#f2f2f2"/><clipPath id="euSXxhyGM2V21"><use width="25.6" height="78" xlink:href="#euSXxhyGM2V2" transform="translate(721 303)"/></clipPath></g></g></g><path d="M737.6,337.3C723,264.8,657.2,214.1,583.4,218.5l-9-51.3c-1.4-7.9-9-13.2-16.9-11.8-3.7.7-7.1,2.8-9.3,5.9l-.1.2-49.8,71-69.6,12.3c-39.4,7.7-74,31.2-95.8,64.9-3.2-5.4-7.7-9.9-13.1-13.1l-1-.6c-.4-5-2-9.9-4.6-14.2-6.1-9.7-17.1-14.3-31-13-1.9.2-3.4,1.9-3.2,3.8s1.9,3.4,3.8,3.2c11.3-1.1,19.7,2.3,24.4,9.7c1.4,2.2,2.4,4.7,3,7.3-7.8-2.3-16.1-2.1-22.8.8-7.4,3.3-11.6,11.5-10.1,20.1c1.2,8.2,8,14.5,16.3,15c7.8.6,14.9-3.4,19.5-11c2.5-4.2,4-8.8,4.6-13.6c4.4,3.2,7.8,7.5,9.9,12.5-16.6,29-22.9,62.8-17.9,95.9l.6,3.5c14,79.5,89,133.2,168.8,120.9l137.7-24.3c80.6-14.2,134.4-91,120.3-171.6-.1-1.4-.3-2.6-.5-3.7M308.1,314.1c-1.9,3.1-6,8.2-13,7.6-7.9-.6-9.6-7.2-9.9-9.2-.8-4.4.8-10.3,6-12.5c1.6-.7,3.2-1.2,4.9-1.5c5.4-.8,10.9-.2,15.9,1.9-.1,4.8-1.5,9.6-3.9,13.7" fill="#3d4448"/><path d="M738.2,340.8l-.7-3.5c9.5,64.2-46.2,127-125.8,141L474,502.5c-78.4,12.5-150.4-27.2-163.3-89.9l.6,3.4c.4,2.4.9,4.7,1.4,7.1.2.7.3,1.4.5,2l1.3,4.9c.2.8.5,1.6.7,2.4l1.4,4.4.8,2.4l1.5,4.2c.3.8.6,1.6.9,2.4.6,1.4,1.1,2.8,1.8,4.2l1,2.2c.7,1.4,1.3,2.8,2,4.2l1,2c.8,1.5,1.6,3,2.4,4.4l.9,1.6c1,1.8,2.1,3.5,3.2,5.2.1.2.2.4.4.6c2.5,3.9,5.2,7.7,8.1,11.4.2.2.3.4.5.6c1.3,1.6,2.5,3.1,3.9,4.7l1,1.1c1.2,1.3,2.3,2.6,3.6,3.9l1.2,1.3c.8.9,1.7,1.7,2.5,2.5l-16.7,23.9l54.9,38.5l19.1-27.2l3.8,1.2l1.7.5c1.7.5,3.4,1,5.1,1.4l1.5.4c1.9.5,3.8.9,5.7,1.3l1,.2c7,1.3,14,2.2,21.1,2.5h1c9.6.4,19.2-.2,28.7-1.6l137.7-24.3c7.4-1.3,14.7-3.2,21.8-5.5l1-.4c1.9-.7,3.8-1.4,5.7-2.1l1.6-.6c1.7-.7,3.3-1.4,5-2.1l1.8-.8c1.5-.7,3.1-1.5,4.6-2.2l1.9-1c1.5-.8,3-1.6,4.4-2.4l1.8-1c1.5-.8,2.9-1.7,4.3-2.6l1.7-1.1c1.5-1,2.9-2,4.4-3l1.4-1c1.1-.8,2.2-1.7,3.3-2.5l25.9,18.1L747,447.4l-21.6-15.2c.7-1.5,1.4-3,2.1-4.5l.6-1.2c.9-2.1,1.8-4.1,2.6-6.3v-.1c1.7-4.4,3.2-8.9,4.5-13.4.1-.3.2-.6.3-1c.5-1.9,1-3.8,1.5-5.7l.4-1.8l1-5l.4-2.2.7-4.7.3-2.4c.2-1.5.3-3,.5-4.6.1-.9.1-1.7.2-2.6l.2-4.5.1-2.6v-4.6-2.6c0-1.6-.1-3.1-.2-4.7l-.2-2.5c-.1-1.7-.3-3.4-.5-5.1l-.2-2.1c-.3-2.4-.7-4.9-1.1-7.3" fill="#141e23"/><path d="M336.5,519.7l-12.4,17.7L357,549l22.1,26.9l12.4-17.7-55-38.5Zm371.7-17.3l17.7,12.4L737.5,482l26.9-22.1-17.7-12.4-38.5,54.9Z" fill="#3d4448"/><path d="M484.4,301.1c10.8-.3,19.3-9.4,18.9-20.2c0-1.4-.2-2.8-.6-4.2l-11.1-43.1-62.8,11.1c-39.4,7.7-74,31.2-95.8,64.9-3.2-5.4-7.7-9.9-13.1-13.1l-1-.6c-.4-5-2-9.9-4.6-14.2-6-9.6-16.9-14.2-30.6-13l-2.4.9c-1.4,1.3-1.6,3.5-.3,4.9.7.8,1.8,1.3,3,1.2c11.3-1.1,19.7,2.3,24.4,9.7c1.4,2.2,2.4,4.7,3,7.3-7.8-2.3-16.1-2.1-22.8.8-7.4,3.3-11.6,11.5-10.1,20.1c1.2,8.2,8,14.5,16.3,15.1c7.8.6,14.9-3.4,19.5-11c2.5-4.2,4-8.8,4.6-13.6c4.4,3.2,7.8,7.5,9.9,12.5-15.1,26.4-21.7,56.7-18.9,87c49.1-44.1,96.8-99.8,174.5-102.5m-176.3,13c-1.9,3.1-6,8.2-13,7.6-7.9-.6-9.6-7.2-9.9-9.2-.8-4.4.8-10.3,6-12.5c1.6-.7,3.2-1.2,4.9-1.5c5.4-.8,10.9-.2,15.9,2-.1,4.7-1.5,9.5-3.9,13.6" fill="#1c252a"/><path d="M637.3,299.8c-3.2.5-6.2-1.7-6.6-4.9-1.3-9.6-10.1-16.4-19.7-15.1s-16.4,10.1-15.1,19.7c0,.2,0,.3.1.5.6,3.2-1.5,6.2-4.7,6.8s-6.2-1.5-6.8-4.7c0-.1,0-.3-.1-.4-2.3-16,8.7-30.8,24.7-33.2c16-2.3,30.8,8.7,33.2,24.7.4,3.1-1.8,6.1-5,6.6" fill="#fff"/></g><g id="euSXxhyGM2V28_ts" transform="translate(500.4,243.1) scale(1,1)"><g transform="translate(-500.4,-243.099997)"><g><path d="M484,299.9C335.1,289.1,275.4,484.3,130.4,407c0,0,37.1-11.5,39.1-62.8c1.8-44.2-37.5-70.8-3.2-134.3c118,117.8,194.8-63,331.9,22.5l6.6,45.2c1.6,10.7-5.8,20.6-16.5,22.2-1.4.2-2.9.2-4.3.1" fill="#ef6d42"/><g><g><g clip-path="url(#euSXxhyGM2V35)"><path d="M297.6,337.7l7.2-6.4c2.4-2,5.2-4.4,8.6-6.9c3.4-2.6,7.2-5.5,11.6-8.6s9-6.3,14.1-9.5s10.6-6.5,16.3-9.7c5.7-3.3,11.8-6.4,18.1-9.3s12.8-5.7,19.3-8.4c3.3-1.3,6.6-2.5,9.9-3.7l10-3.2c6.5-2,13.2-3.6,19.9-4.9c3.3-.6,6.5-1.2,9.6-1.6l4.7-.7c1.6-.2,3.1-.3,4.6-.4c3-.3,6-.5,8.8-.5c2.9,0,5.6-.2,8.3-.1l7.6.3l6.8.7c4.3.5,8,1.3,11,1.8c3,.7,5.3,1.3,6.9,1.8l2.4.6-9.6-1-5-.3c-1.8-.1-3.8-.3-5.9-.3h-6.7c-2.4,0-4.9.2-7.4.3-2.6.1-5.3.4-8.1.7-2.8.2-5.6.6-8.6,1-2.9.4-5.9.9-9,1.5s-6.2,1.2-9.3,1.9c-6.3,1.4-12.8,3.1-19.3,5.1-3.3,1-6.5,2.1-9.8,3.2l-9.7,3.5c-6.5,2.5-12.9,5.1-19.1,7.9s-12.3,5.7-18.1,8.6c-11.6,5.9-22.2,11.9-31.1,17.3-17.6,11.1-28.9,19.3-29,19.3" fill="#f2f2f2"/><clipPath id="euSXxhyGM2V35"><use width="206" height="73.900002" xlink:href="#euSXxhyGM2V3" transform="translate(297.6 263.8)"/></clipPath></g></g></g><g><g><g clip-path="url(#euSXxhyGM2V41)"><path d="M298.9,276.8l7.7-4.8c2.5-1.5,5.5-3.3,9.1-5.1c3.5-1.9,7.6-4,12-6.2s9.3-4.4,14.6-6.6s10.8-4.4,16.7-6.6c2.9-1,5.9-2,9-3.1l9.3-2.9c3.2-.9,6.3-1.8,9.6-2.5c3.2-.7,6.5-1.5,9.7-2.2c3.3-.7,6.5-1.3,9.8-1.9s6.6-.9,9.8-1.4l9.7-.9c3.2-.2,6.4-.4,9.5-.4c6-.1,12.1.1,18.1.7c5.4.5,10.7,1.4,16,2.5l7,1.7c2.2.7,4.2,1.4,6.2,2c3.9,1.2,7.1,2.8,9.7,3.9c2.6,1.3,4.6,2.4,6,3.1l2.1,1.1-8.6-2.9-4.6-1.3c-1.8-.6-3.6-1-5.4-1.4l-6.2-1.3-6.9-1.1c-4.9-.6-10.1-1.2-15.7-1.4s-11.4-.2-17.5.1c-3,.1-6.1.5-9.2.6l-9.5,1c-6.3.9-12.8,1.9-19.1,3.2-6.4,1.3-12.7,2.8-18.9,4.4-3.1.8-6.2,1.7-9.2,2.5l-8.9,2.7c-5.9,1.8-11.5,3.7-16.8,5.6s-10.3,3.8-14.9,5.6c-18.3,7.5-30.2,13.3-30.2,13.3" fill="#f2f2f2"/><clipPath id="euSXxhyGM2V41"><use width="201.5" height="44.599998" xlink:href="#euSXxhyGM2V4" transform="translate(298.9 232.2)"/></clipPath></g></g></g></g></g></g></g></g><g id="euSXxhyGM2V43_tr" transform="translate(240.699997,496.549988) rotate(0)"><g id="euSXxhyGM2V43_ts" transform="scale(0.1,0.1)"><g id="euSXxhyGM2V43" transform="translate(-240.699997,-496.549988)" opacity="0"><g><path d="M240.7,516.3c-1.7,0-3-1.3-3-3s1.3-3,3-3s3,1.3,3,3c0,1.6-1.4,3-3,3" fill="#fff"/><path d="M228.8,511.4c-.6,0-1.2-.2-1.7-.5l-.2-.1-.2-.2c-1.1-1.2-1.1-3.1.1-4.2.5-.5,1.2-.8,2-.8s1.5.3,2.1.9c1.1,1.2,1.1,3.1-.1,4.2-.5.4-1.2.7-2,.7" fill="#fff"/><path d="M252.6,511.4c-.8,0-1.5-.3-2.1-.9-1.2-1.1-1.2-3-.1-4.2s3-1.2,4.2-.1c.6.6.9,1.4.9,2.2s-.3,1.6-.9,2.1c-.5.6-1.3.9-2,.9" fill="#fff"/><path d="M223.9,499.5c-1.7,0-3-1.3-3-3s1.3-3,3-3s3,1.3,3,3-1.3,3-3,3" fill="#fff"/><path d="M257.5,499.5c-1.7,0-3-1.3-3-3s1.3-3,3-3s3,1.3,3,3c0,.8-.3,1.5-.9,2.1s-1.3.9-2.1.9" fill="#fff"/><path d="M228.8,487.7c-1.7-.1-2.9-1.5-2.9-3.1c0-.7.3-1.3.8-1.9s1.3-.9,2.1-.9s1.5.3,2.1.9c.6.5.9,1.3.9,2.1c0,1.6-1.4,3-3,2.9" fill="#fff"/><path d="M252.5,487.7c-1.6,0-2.9-1.3-2.9-3c0-1.6,1.3-2.9,3-2.9c1.6,0,2.9,1.3,2.9,3c0,.8-.3,1.5-.8,2-.7.6-1.4.9-2.2.9" fill="#fff"/><path d="M240.6,482.8c-1.7,0-3-1.3-3-3s1.3-3,3-3s3,1.3,3,3-1.3,3-3,3" fill="#fff"/></g></g></g></g><g id="euSXxhyGM2V53_tr" transform="translate(866.377258,289.932968) rotate(0)"><g id="euSXxhyGM2V53_ts" transform="scale(0.1,0.1)"><g id="euSXxhyGM2V53" transform="translate(-866.377258,-289.932968)" opacity="0"><g><path d="M867.5,278.1c-1.1,0-2-.9-2-2v-11.1c.2-1.1,1.2-1.8,2.3-1.6.8.1,1.5.8,1.6,1.6v11.2c0,1.1-.9,2-1.9,1.9" fill="#fff"/><path d="M857.6,281.5c-.5,0-1-.2-1.4-.6l-7.9-7.9c-.9-.6-1.1-1.9-.5-2.8s1.9-1.1,2.8-.5c.2.1.3.3.5.5l7.9,7.9c.8.8.7,2.1-.1,2.8-.3.4-.8.6-1.3.6m-15.8,9.4c-1.1.2-2.1-.6-2.3-1.7s.6-2.1,1.7-2.3c.2,0,.4,0,.6,0h11.2c1.1.2,1.8,1.2,1.6,2.3-.1.8-.8,1.5-1.6,1.6l-11.2.1Zm6.6,17.7c-1.1,0-2-.9-2-2c0-.5.2-1,.6-1.4l7.9-7.9c.4-.4.9-.6,1.4-.6c1.1,0,2,1,1.9,2.1c0,.5-.2,1-.5,1.3l-7.9,7.9c-.4.4-.9.6-1.4.6m17.3,7.9c-1.1,0-2-.9-2-2v-11.2c0-.7.4-1.4,1-1.7.6-.4,1.4-.4,2,0s1,1,1,1.7v11.2c0,1.1-.9,2-2,2m17.8-6.6c-.5,0-1-.2-1.4-.6l-7.9-7.9c-.9-.6-1.1-1.9-.5-2.8s1.9-1.1,2.8-.5c.2.1.3.3.5.5l7.9,7.9c.8.8.7,2.1-.1,2.8-.4.4-.8.6-1.3.6m-3.4-17.3c-.7,0-1.4-.4-1.7-1-.4-.6-.4-1.4,0-2s1-1,1.7-1h11.2c.7,0,1.4.4,1.7,1c.6,1,.2,2.2-.7,2.7-.3.2-.7.3-1,.3h-11.2Zm-3.3-9.8c-1.1,0-2-.9-2-2c0-.5.2-1,.6-1.4l7.9-7.9c.9-.6,2.1-.4,2.8.5.5.7.5,1.6,0,2.3l-7.9,7.9c-.4.3-.9.5-1.4.6" fill="#fff"/></g></g></g></g><g id="euSXxhyGM2V57_tr" transform="translate(740.549988,180.75) rotate(0)"><g id="euSXxhyGM2V57_ts" transform="scale(0.1,0.1)"><g id="euSXxhyGM2V57" transform="translate(-740.549988,-180.75)" opacity="0"><g><path d="M740.5,197.5c-1.1,0-2.1-.9-2.1-2v-29.4c0-1.1.9-2.1,2-2.1s2.1.9,2.1,2v0v29.4c0,1.1-.9,2-2,2.1" fill="#fff"/><path d="M725.8,182.8c-1.1,0-2-.9-2-2s.9-2.1,2-2.1h29.4c1.1,0,2.1.9,2.1,2.1c0,1.1-.9,2-2.1,2h-29.4Z" fill="#fff"/></g></g></g></g><g id="euSXxhyGM2V61_tr" transform="translate(367.75,129.350006) rotate(0)"><g id="euSXxhyGM2V61_ts" transform="scale(0.1,0.1)"><g id="euSXxhyGM2V61" transform="translate(-367.75,-129.350006)" opacity="0"><g><path d="M367.7,146.1c-1.1,0-2-.9-2.1-2v-29.4c0-1.1.9-2.1,2.1-2.1c1.1,0,2,.9,2,2.1v29.4c.1,1.1-.9,2-2,2" fill="#fff"/><path d="M353.1,131.4c-1.1,0-2-.9-2.1-2c0-1.1.9-2,2.1-2h29.4c1.1,0,2,.9,2,2s-.9,2.1-2,2.1l-29.4-.1Z" fill="#fff"/></g></g></g></g><g id="euSXxhyGM2V65_tr" transform="translate(72.449999,273.850006) rotate(0)"><g id="euSXxhyGM2V65_ts" transform="scale(0.1,0.1)"><g id="euSXxhyGM2V65" transform="translate(-72.449999,-273.850006)" opacity="0"><g><path d="M57.7,275.9c-1.1,0-2-.9-2-2s.9-2,2-2h29.4c1.1,0,2.1.9,2.1,2s-.9,2-2.1,2h-29.4Z" fill="#fff"/><path d="M72.4,290.6c-1.1,0-2-.9-2-2v-29.4c0-1.1.9-2.1,2-2.1s2.1.9,2.1,2.1v29.4c0,1-.9,1.9-2.1,2" fill="#fff"/></g></g></g></g><g id="euSXxhyGM2V69_to" transform="translate(977.951005,441.750031)"><g transform="translate(-49.766808,-441.750031)"><g><path d="M82.4,440.2c-.9,0-1.8.1-2.7.2.2-1.1.3-2.3.3-3.4c0-15.3-12.4-27.7-27.7-27.7-14.5,0-26.5,11.2-27.6,25.6-10.7-2.6-21.5,3.9-24.1,14.6s4,21.5,14.7,24.1c1.5.4,3.1.6,4.7.6h62.5c9.4,0,17-7.6,17-17s-7.6-17-17.1-17" fill="#fff"/></g></g></g><g><g><path d="M640.3,72.6c-5.1,0-9.2-4.1-9.2-9.2s4.1-9.2,9.2-9.2s9.2,4.1,9.2,9.2v0c0,5-4.1,9.2-9.2,9.2m0-15c-3.2,0-5.7,2.6-5.7,5.7c0,3.2,2.6,5.7,5.7,5.7c3.2,0,5.7-2.6,5.7-5.7v0c.1-3.1-2.5-5.7-5.7-5.7" fill="#ef6d42"/></g></g><g id="euSXxhyGM2V75_to" transform="translate(174.099998,106.849754)"><g transform="translate(-174.099998,-106.849754)"><g><path d="M208.7,106.8c0,19.1-15.5,34.6-34.6,34.6s-34.6-15.5-34.6-34.6s15.5-34.5,34.6-34.5v0c19.1-.1,34.6,15.4,34.6,34.5v0Z" fill="#ef6d42"/><path d="M174.1,136.7c-16.6,0-30-13.4-30-30s13.4-30,30-30s30,13.4,30,30-13.4,30-30,30m0-56.2c-14.5,0-26.3,11.8-26.3,26.3s11.8,26.3,26.3,26.3s26.3-11.8,26.3-26.3-11.8-26.3-26.3-26.3" fill="#f4b3a2"/><path d="M170.9,97c-.4,0-.4-.1-.2-.1.5,0,1.1,0,1.6.1c1.4.4,2.6,1.2,3.5,2.3l.3.4.4-.1c1.8-.3,3.7-.1,5.4.7.4.2.8.4,1.2.7.1.1.1.3.1.5.1.6.1,1.3-.2,1.8-.1.2-.1.4,0,.5.1.2.3.3.4.3.4,0,.8-.6,1-1.5l.1-.3.2.2c.8.9,1.4,2,1.6,3.2v.3l-.2-.2c-.2-.3-.5-.6-.8-.9-.9-.5-1.8-.7-2.8-.6-1,0-2.1-.2-3.1-.5-1.4-.5-2.1-1-3.7-3.2-.5-.7-1-1.3-1.6-1.9-.8-.9-1.9-1.5-3.2-1.7v0Zm12.6,2.1c0-.5.1-1,.3-1.5c0-.1.1-.2.2-.3c0,.1,0,.2-.1.3-.1.5-.2,1-.1,1.5.1.8.2.9,1,1.7l1,1.1.3.4-.3-.3c-.4-.4-.9-.8-1.4-1.1-.1-.1-.1-.1-.2,0s-.1.2-.1.6c0,.6-.1,1.2-.4,1.7-.1.3-.2.2,0-.1.1-.3.1-.7.1-1c0-1.5-.2-1.8-1.2-2.4-.3-.2-.7-.4-1-.5-.2-.1-.3-.1-.4-.2.5.1,1,.2,1.4.4.6.2.7.3.8.2s.1,0,.1-.5v0Zm-11.9,2.6c-.7-1.1-1.1-2.3-1.1-3.6v-.4h.2c.4.1.7.2,1.1.4.7.4,1,1,1.3,2.4l.3,1c.2.4.4.8.7,1.2.2.3.1.4-.4.4-.9-.3-1.6-.8-2.1-1.4v0Zm11,7.3c-3.3-1.4-4.5-2.5-4.5-4.5v-.5c.1.1.2.1.3.2c1.1.7,2.3,1.1,3.5,1.1.9.1,1.7.3,2.6.5c1.9.5,3.3,2,3.6,3.9.1.7,0,1.4-.1,2.1-.1.4-.3.8-.5,1.2c0,0-.1-.1-.1-.2-.1-.7-.4-1.4-1-1.9-1.1-.8-2.4-1.5-3.8-1.9v0Zm-2.3.6c0-.2-.1-.5-.2-.7l-.1-.3.2.2c.2.3.4.6.5,1c.1.3.2.6.1.9c0,.3,0,.6-.1.9-.1.4-.4.8-.7,1.1-.7.7-1.5,1.1-2.5,1.2l-1.3.1c-1,0-1.9.2-2.9.5-.1,0-.2.1-.2,0c.3-.2.6-.4.9-.6.8-.4,1.7-.6,2.5-.7.5-.1,1-.2,1.5-.3c1.6-.2,2.6-1.7,2.3-3.3v0Zm1.5,2.7c-.4-.8-.5-1.8-.3-2.7c0-.1.1-.2.1-.2.1,0,.2.1.2.1.2.1.6.4,1.7,1c1,.5,1.9,1.2,2.7,2c.5.6.8,1.3.9,2s.1,1.3-.1,2c-.3,1.4-1.2,2.6-2.5,3.2-.1.1-.2.1-.4.2c0-.1.1-.3.2-.4.4-.8.5-1.8.1-2.6-.3-.9-.8-1.7-1.4-2.4-.3-.7-.8-1.4-1.2-2.2v0Zm-12.6,5.2c1.2-1,2.7-1.7,4.2-2c.7-.1,1.5-.1,2.2.1.8.2,1.6.7,2.1,1.4.4.7.7,1.5.8,2.3l.2,1c.1.5.3,1,.7,1.3.7.4,1.6.4,2.3.1.1,0,.2-.1.3-.1-.2.2-.5.4-.7.5-.4.2-.8.3-1.2.3-.9,0-1.6-.5-2.1-1.3-.2-.4-.4-.7-.6-1.1-.3-.9-.8-1.7-1.6-2.2-.6-.4-1.3-.5-2-.2-.6.3-.9,1.1-.6,1.7.1.1.1.2.2.3.3.3.6.4,1,.5.5.1,1.1-.3,1.2-.8c0,0,0,0,0-.1s0-.1,0-.2c0-.4-.2-.7-.6-.8-.5-.2-1.1,0-1.1.5c0,.2.1.4.3.5.1.1.1.1,0,0-.3-.1-.5-.4-.4-.8c0-.1.1-.2.2-.3.5-.4,1.3-.3,1.7.2c0,.1.1.1.1.2.1.4.1.8,0,1.1-.3.8-1.1,1.1-1.9.9-.6-.2-1.1-.5-1.5-1-.8-1-2-1.7-3.3-1.7h-.3l.4-.3Z" fill="#f4b3a2"/><path d="M160.4,90.3L170.7,103c.3.3.1.6-.3.9-.3.2-.7.2-1,.3-.3,0-.6-.1-.8-.4-.1-.1-.8-1.1-2.3-3.4l-2.1-3.3c.6,1.3,1.2,2.5,2,3.6.6,1,1.2,2.1,1.7,3.2c0,.2-.1.3-.3.6-.5.6-.8,1.5-.8,2.3-.2,1.5-.9,2.8-1.9,3.9-.4.5-.8,1-1.1,1.5-.2.4-.3.9-.3,1.4c0,.6,0,1.1.2,1.6.2.6.5,1.1.8,1.6.3.4.5.8.6,1.2c0,.1,0,.1.6,0c1.2-.2,2.4-.8,3.3-1.6.4-.3.5-.8.5-1.3c0-.2,0-.5-.1-.7-.3-.5-.7-.9-1.2-1.1-.7-.4-1.2-1-1.4-1.8-.1-.7.1-1.4.5-2c.4-.8.7-1.7.7-2.7.1-.7.1-1,.3-1.2.2-.3.6-.4.9-.4.7-.1,1.3-.3,1.8-.8.4-.3.6-.8.6-1.2v-.4l-.2-.2c-.8-.9-11.8-13-11.8-13s.4.4.8.7v0Zm5.1,24c.2-.3.1-.7-.2-.9s-.7-.1-.7.1c0,.1.1.1.1.2.1.1.2.2.1.4s-.1.4,0,.5c.2.1.5,0,.7-.3c0,.1,0,.1,0,0v0Zm6.9-8.9c-.4.2-.8.5-.9,1-.1.3,0,.6.1.9.2.2.4.3.8.3.9,0,1.7-.4,1.8-.9c0-.5-.3-1-.8-1.2-.3-.1-.6-.1-1-.1v0Zm1.1.9c.1-.2.1-.4-.1-.5h-.1c-.5-.3-1.2,0-1.2.4c0,.2.4.5.7.5.3-.1.5-.2.7-.4v0Z" fill="#f4b3a2"/></g></g></g><g id="euSXxhyGM2V81_to" transform="translate(888.150024,125.649998)"><g transform="translate(-888.150024,-125.649998)"><g><path d="M922.7,125.6c0,19.1-15.5,34.6-34.5,34.6-19.1,0-34.5-15.5-34.6-34.5c0-19.1,15.5-34.5,34.5-34.6c9.2,0,18,3.6,24.4,10.1c6.5,6.4,10.2,15.2,10.2,24.4" fill="#ef6d42"/><path d="M888.1,155.6c-16.6,0-30-13.4-30-30s13.4-30,30-30s30,13.4,30,30-13.4,30-30,30m0-56.3c-14.5,0-26.3,11.8-26.3,26.3s11.8,26.3,26.3,26.3s26.3-11.8,26.3-26.3-11.8-26.3-26.3-26.3" fill="#f4b3a2"/><polygon points="889.6,117.9 878.9,124.4 889.6,130.9" fill="#f4b3a2"/><polygon points="889.6,117.9 900.4,124.4 889.6,130.9" fill="#f4b3a2"/><polygon points="889.6,117.9 900.4,124.4 889.6,106.4" fill="#f4b3a2"/><path d="M889.6,117.9l-10.8,6.5l10.8-18v11.5Zm0,15.1v9.1l-10.8-15.5l10.8,6.4Z" fill="#f4b3a2"/><polygon points="889.6,133 900.4,126.6 889.6,142.1" fill="#f4b3a2"/></g></g></g><g id="euSXxhyGM2V90_to" transform="translate(512.549988,34.5)"><g transform="translate(-512.549988,-34.5)"><path d="M547.1,34.5c0,19.1-15.5,34.5-34.6,34.5s-34.5-15.5-34.5-34.6C478,15.5,493.5,0,512.6,0c9.2,0,18,3.6,24.4,10.1c6.5,6.5,10.1,15.3,10.1,24.4" fill="#ef6d42"/><g><g clip-path="url(#euSXxhyGM2V101)"><g><g opacity="0.98"><g><g clip-path="url(#euSXxhyGM2V99)"><path d="M520.6,34.2v0c1.8-.6,3.3-1.9,3.3-5-.1-2.9-2.4-5.2-5.3-5.2-.1,0-.1,0-.2,0v-2.8h-4.8v2.8h-2v-2.8h-4.8v2.8h-3.8v4.8h2.1v11.3h-2.1v4.9h3.8v2.8h4.8v-2.8h2v2.8h4.8v-2.8h.1c3,.2,5.6-2.2,5.8-5.2v0-.4c0-3.3-1.7-4.7-3.7-5.2m-4.7-5.5c.8,0,1.5.8,1.5,1.6v.3c0,.4-.1.8-.4,1.1s-.7.5-1.1.5h-4.4v-3.6l4.4.1Zm-4.4,11.4v-3.6h4.9c.4,0,.8.2,1.1.5s.4.7.4,1.1v.3c.1.8-.5,1.6-1.4,1.6v0l-5,.1v0Z" fill="#f4b3a2"/><clipPath id="euSXxhyGM2V99"><use width="21.299999" height="26.6" xlink:href="#euSXxhyGM2V6" transform="translate(503 21.2)"/></clipPath></g></g></g></g><clipPath id="euSXxhyGM2V101"><use width="21.299999" height="26.6" xlink:href="#euSXxhyGM2V5" transform="translate(503 21.2)"/></clipPath></g></g><path d="M512.6,64.5c-16.6,0-30-13.4-30-30s13.4-30,30-30s30,13.4,30,30-13.5,30-30,30m0-56.2c-14.5,0-26.3,11.8-26.3,26.3s11.8,26.3,26.3,26.3s26.3-11.8,26.3-26.3-11.8-26.3-26.3-26.3" fill="#f4b3a2"/></g></g></svg>