<svg id="eNqEZfGlXnj1" xmlns="http://www.w3.org/2000/svg" xmlns:xlink="http://www.w3.org/1999/xlink" viewBox="0 0 1334.8 857.2" shape-rendering="geometricPrecision" text-rendering="geometricPrecision"><style><![CDATA[#eNqEZfGlXnj28_tr {animation: eNqEZfGlXnj28_tr__tr 6000ms linear infinite normal forwards}@keyframes eNqEZfGlXnj28_tr__tr { 0% {transform: translate(89.7px,778.1px) rotate(0deg)} 15% {transform: translate(89.7px,778.1px) rotate(-3.718947deg)} 40% {transform: translate(89.7px,778.1px) rotate(0deg)} 75% {transform: translate(89.7px,778.1px) rotate(-3.718947deg)} 100% {transform: translate(89.7px,778.1px) rotate(0deg)}} #eNqEZfGlXnj50 {animation: eNqEZfGlXnj50__m 6000ms linear infinite normal forwards}@keyframes eNqEZfGlXnj50__m { 0% {d: path('M1102.8,14.5L1139.3,14.5L1139.3,160.3L1102.8,160.3L1102.8,14.5ZM1156.5,46.3L1193,46.3L1193,160.3L1156.5,160.3L1156.5,46.3ZM1211,72.4L1247.5,72.4L1247.5,160.3L1211,160.3L1211,72.4ZM1261.4,108.1L1297.9,108.1L1297.9,160.3L1261.4,160.3L1261.4,108.1Z')} 50% {d: path('M1102.8,152.944754L1139.3,152.944754L1139.3,160.3L1102.8,160.3L1102.8,152.944754ZM1156.5,6.3L1193,6.3L1193,160.3L1156.5,160.3L1156.5,6.3ZM1211,142.4L1247.5,142.4L1247.5,160.3L1211,160.3L1211,142.4ZM1261.4,8.1L1297.9,8.1L1297.9,160.3L1261.4,160.3L1261.4,8.1Z')} 100% {d: path('M1102.8,14.5L1139.3,14.5L1139.3,160.3L1102.8,160.3L1102.8,14.5ZM1156.5,46.3L1193,46.3L1193,160.3L1156.5,160.3L1156.5,46.3ZM1211,72.4L1247.5,72.4L1247.5,160.3L1211,160.3L1211,72.4ZM1261.4,108.1L1297.9,108.1L1297.9,160.3L1261.4,160.3L1261.4,108.1Z')}} #eNqEZfGlXnj51_to {animation: eNqEZfGlXnj51_to__to 6000ms linear infinite normal forwards}@keyframes eNqEZfGlXnj51_to__to { 0% {transform: translate(262.799988px,123.699997px)} 45% {transform: translate(262.799988px,143.699997px)} 98.333333% {transform: translate(262.799988px,123.699997px)} 100% {transform: translate(262.799988px,123.699997px)}} #eNqEZfGlXnj59 {animation: eNqEZfGlXnj59__m 6000ms linear infinite normal forwards}@keyframes eNqEZfGlXnj59__m { 0% {d: path('M352.8,171.8C328.7,162.7,300.9,188,277.3,177.6C263.5,171.6,257.3,156,250.5,142.6C243.7,129.2,232.199996,114.99993,217.2,116.6C202.200004,118.20007,190,135.6,175.4,131.4C166.2,128.8,161.6,118.6,159.3,109.3C157,100,155.4,89.8,148.4,83.3C141.4,76.8,126.8,78.5,125.7,88L125.7,202.2L397.8,202.2C397.9,202.2,361.2,174.9,352.8,171.8')} 50% {d: path('M352.8,91.909524C328.7,82.809524,296.005385,185.787854,277.3,177.6C258.594615,169.412146,257.3,156,250.5,142.6C243.7,129.2,232.199996,40.099037,217.2,41.699107C202.200004,43.299177,190,190.623064,175.4,186.423064C166.2,183.823064,161.6,173.623064,159.3,164.323064C157,155.023064,155.4,144.823064,148.4,138.323064C141.4,131.823064,126.8,133.523064,125.7,143.023064L125.7,202.2L397.8,202.2C397.9,202.2,397.8,91.909524,352.8,91.909524')} 100% {d: path('M352.8,171.8C328.7,162.7,300.9,188,277.3,177.6C263.5,171.6,257.3,156,250.5,142.6C243.7,129.2,232.199996,114.99993,217.2,116.6C202.200004,118.20007,190,135.6,175.4,131.4C166.2,128.8,161.6,118.6,159.3,109.3C157,100,155.4,89.8,148.4,83.3C141.4,76.8,126.8,78.5,125.7,88L125.7,202.2L397.8,202.2C397.9,202.2,361.2,174.9,352.8,171.8')}} #eNqEZfGlXnj72_to {animation: eNqEZfGlXnj72_to__to 6000ms linear infinite normal forwards}@keyframes eNqEZfGlXnj72_to__to { 0% {transform: translate(702.147308px,657.096207px)} 11.666667% {transform: translate(702.147308px,657.096207px);animation-timing-function: cubic-bezier(0.42,0,1,1)} 33.333333% {transform: translate(702.147308px,434.096207px)} 100% {transform: translate(702.147308px,434.096207px)}} #eNqEZfGlXnj74_to {animation: eNqEZfGlXnj74_to__to 6000ms linear infinite normal forwards}@keyframes eNqEZfGlXnj74_to__to { 0% {transform: translate(1017.5px,534.200012px)} 18.333333% {transform: translate(1017.5px,518.200012px)} 43.333333% {transform: translate(1017.5px,534.200012px)} 70% {transform: translate(1017.5px,518.200012px)} 100% {transform: translate(1017.5px,534.200012px)}} #eNqEZfGlXnj77_to {animation: eNqEZfGlXnj77_to__to 6000ms linear infinite normal forwards}@keyframes eNqEZfGlXnj77_to__to { 0% {transform: translate(965.5px,508.200012px)} 25% {transform: translate(965.5px,518.200012px)} 53.333333% {transform: translate(965.5px,508.200012px)} 78.333333% {transform: translate(965.5px,518.200012px)} 100% {transform: translate(965.5px,508.200012px)}} #eNqEZfGlXnj81_to {animation: eNqEZfGlXnj81_to__to 6000ms linear infinite normal forwards}@keyframes eNqEZfGlXnj81_to__to { 0% {transform: translate(908.949982px,499.700012px)} 100% {transform: translate(908.949982px,499.700012px)}} #eNqEZfGlXnj84_to {animation: eNqEZfGlXnj84_to__to 6000ms linear infinite normal forwards}@keyframes eNqEZfGlXnj84_to__to { 0% {transform: translate(542.550018px,517.849976px)} 26.666667% {transform: translate(542.550018px,517.849976px)} 61.666667% {transform: translate(542.550018px,547.849976px)} 100% {transform: translate(542.550018px,517.849976px)}} #eNqEZfGlXnj87_to {animation: eNqEZfGlXnj87_to__to 6000ms linear infinite normal forwards}@keyframes eNqEZfGlXnj87_to__to { 0% {transform: translate(853.75px,465.25px)} 43.333333% {transform: translate(853.75px,532.583333px)} 100% {transform: translate(853.75px,465.25px)}} #eNqEZfGlXnj92_to {animation: eNqEZfGlXnj92_to__to 6000ms linear infinite normal forwards}@keyframes eNqEZfGlXnj92_to__to { 0% {transform: translate(440.550018px,520.550018px)} 28.333333% {transform: translate(440.550018px,520.550018px)} 50% {transform: translate(440.550018px,537.550018px)} 68.333333% {transform: translate(440.550018px,520.550018px)} 100% {transform: translate(440.550018px,537.550018px)}} #eNqEZfGlXnj95_to {animation: eNqEZfGlXnj95_to__to 6000ms linear infinite normal forwards}@keyframes eNqEZfGlXnj95_to__to { 0% {transform: translate(490.450012px,523.5px)} 26.666667% {transform: translate(490.450012px,503.5px)} 58.333333% {transform: translate(490.450012px,523.5px)} 100% {transform: translate(490.450012px,503.5px)}} #eNqEZfGlXnj99_to {animation: eNqEZfGlXnj99_to__to 6000ms linear infinite normal forwards}@keyframes eNqEZfGlXnj99_to__to { 0% {transform: translate(386.950012px,510.950012px);animation-timing-function: cubic-bezier(0.42,0,0.58,1)} 26.666667% {transform: translate(386.950012px,510.950012px);animation-timing-function: cubic-bezier(0.42,0,0.58,1)} 58.333333% {transform: translate(386.950012px,533.950012px);animation-timing-function: cubic-bezier(0.42,0,0.58,1)} 100% {transform: translate(386.950012px,510.950012px)}} #eNqEZfGlXnj103_to {animation: eNqEZfGlXnj103_to__to 6000ms linear infinite normal forwards}@keyframes eNqEZfGlXnj103_to__to { 0% {transform: translate(697.649994px,433.600006px);animation-timing-function: cubic-bezier(0.42,0,0.58,1)} 26.666667% {transform: translate(697.649994px,513.600006px);animation-timing-function: cubic-bezier(0.42,0,0.58,1)} 46.666667% {transform: translate(697.649994px,433.600006px);animation-timing-function: cubic-bezier(0.42,0,0.58,1)} 73.333333% {transform: translate(697.649994px,513.600006px);animation-timing-function: cubic-bezier(0.42,0,0.58,1)} 99.833333% {transform: translate(697.649994px,433.600006px)} 100% {transform: translate(697.649994px,433.600006px)}} #eNqEZfGlXnj114_to {animation: eNqEZfGlXnj114_to__to 6000ms linear infinite normal forwards}@keyframes eNqEZfGlXnj114_to__to { 0% {transform: translate(644.649994px,463px);animation-timing-function: cubic-bezier(0.42,0,0.58,1)} 15% {transform: translate(644.649994px,553px);animation-timing-function: cubic-bezier(0.42,0,0.58,1)} 45% {transform: translate(644.649994px,501.571429px);animation-timing-function: cubic-bezier(0.42,0,0.58,1)} 76.666667% {transform: translate(644.649994px,553px);animation-timing-function: cubic-bezier(0.42,0,0.58,1)} 100% {transform: translate(644.649994px,463px)}} #eNqEZfGlXnj119_to {animation: eNqEZfGlXnj119_to__to 6000ms linear infinite normal forwards}@keyframes eNqEZfGlXnj119_to__to { 0% {transform: translate(750.350006px,474.950012px)} 25% {transform: translate(750.350006px,474.950012px)} 48.333333% {transform: translate(750.350006px,574.950012px)} 71.666667% {transform: translate(750.350006px,474.950012px)} 100% {transform: translate(750.350006px,574.950012px)}} #eNqEZfGlXnj124_to {animation: eNqEZfGlXnj124_to__to 6000ms linear infinite normal forwards}@keyframes eNqEZfGlXnj124_to__to { 0% {transform: translate(802.649994px,444.699997px)} 16.666667% {transform: translate(802.649994px,484.699997px)} 53.333333% {transform: translate(802.649994px,444.699997px)} 76.666667% {transform: translate(802.649994px,484.699997px)} 100% {transform: translate(802.649994px,444.699997px)}} #eNqEZfGlXnj128_to {animation: eNqEZfGlXnj128_to__to 6000ms linear infinite normal forwards}@keyframes eNqEZfGlXnj128_to__to { 0% {transform: translate(593.850006px,503.050018px)} 26.666667% {transform: translate(593.850006px,503.050018px)} 60% {transform: translate(593.850006px,553.050018px)} 100% {transform: translate(593.850006px,503.050018px)}} #eNqEZfGlXnj134_to {animation: eNqEZfGlXnj134_to__to 6000ms linear infinite normal forwards}@keyframes eNqEZfGlXnj134_to__to { 0% {transform: translate(630.049988px,327.099991px)} 23.5% {transform: translate(630.049988px,327.099991px)} 30% {transform: translate(690.049988px,327.099991px)} 100% {transform: translate(690.049988px,327.099991px)}} #eNqEZfGlXnj134 {animation: eNqEZfGlXnj134_c_o 6000ms linear infinite normal forwards}@keyframes eNqEZfGlXnj134_c_o { 0% {opacity: 0} 23.5% {opacity: 0} 30% {opacity: 1} 100% {opacity: 1}} #eNqEZfGlXnj143_to {animation: eNqEZfGlXnj143_to__to 6000ms linear infinite normal forwards}@keyframes eNqEZfGlXnj143_to__to { 0% {transform: translate(693.099976px,602.5px)} 20% {transform: translate(693.099976px,602.5px)} 26.5% {transform: translate(693.099976px,572.5px)} 100% {transform: translate(693.099976px,572.5px)}} #eNqEZfGlXnj143 {animation: eNqEZfGlXnj143_c_o 6000ms linear infinite normal forwards}@keyframes eNqEZfGlXnj143_c_o { 0% {opacity: 0} 20% {opacity: 0} 26.5% {opacity: 1} 100% {opacity: 1}} #eNqEZfGlXnj159_tr {animation: eNqEZfGlXnj159_tr__tr 6000ms linear infinite normal forwards}@keyframes eNqEZfGlXnj159_tr__tr { 0% {transform: translate(1171.6px,537.276795px) rotate(0deg);animation-timing-function: cubic-bezier(0.42,0,0.58,1)} 51.666667% {transform: translate(1171.6px,537.276795px) rotate(11.248535deg);animation-timing-function: cubic-bezier(0.42,0,0.58,1)} 100% {transform: translate(1171.6px,537.276795px) rotate(0deg)}} #eNqEZfGlXnj169_tr {animation: eNqEZfGlXnj169_tr__tr 6000ms linear infinite normal forwards}@keyframes eNqEZfGlXnj169_tr__tr { 0% {transform: translate(1200px,556.183418px) rotate(0deg);animation-timing-function: cubic-bezier(0.42,0,0.58,1)} 30% {transform: translate(1200px,556.183418px) rotate(6.99042deg);animation-timing-function: cubic-bezier(0.42,0,0.58,1)} 90.166667% {transform: translate(1200px,556.183418px) rotate(0deg)} 100% {transform: translate(1200px,556.183418px) rotate(0deg)}} #eNqEZfGlXnj173_tr {animation: eNqEZfGlXnj173_tr__tr 6000ms linear infinite normal forwards}@keyframes eNqEZfGlXnj173_tr__tr { 0% {transform: translate(1223.211548px,728.560865px) rotate(0deg)} 46.666667% {transform: translate(1223.211548px,728.560865px) rotate(2.863991deg)} 100% {transform: translate(1223.211548px,728.560865px) rotate(0deg)}} #eNqEZfGlXnj186_ts {animation: eNqEZfGlXnj186_ts__ts 6000ms linear infinite normal forwards}@keyframes eNqEZfGlXnj186_ts__ts { 0% {transform: translate(915.449982px,241.400002px) scale(0.5,0.5)} 18.333333% {transform: translate(915.449982px,241.400002px) scale(0.5,0.5)} 30% {transform: translate(915.449982px,241.400002px) scale(1,1)} 100% {transform: translate(915.449982px,241.400002px) scale(1,1)}} #eNqEZfGlXnj186 {animation: eNqEZfGlXnj186_c_o 6000ms linear infinite normal forwards}@keyframes eNqEZfGlXnj186_c_o { 0% {opacity: 0} 18.333333% {opacity: 0} 30% {opacity: 1} 100% {opacity: 1}} #eNqEZfGlXnj200_ts {animation: eNqEZfGlXnj200_ts__ts 6000ms linear infinite normal forwards}@keyframes eNqEZfGlXnj200_ts__ts { 0% {transform: translate(706.799988px,241.349998px) scale(0.5,0.5)} 15% {transform: translate(706.799988px,241.349998px) scale(0.5,0.5)} 26.666667% {transform: translate(706.799988px,241.349998px) scale(1,1)} 100% {transform: translate(706.799988px,241.349998px) scale(1,1)}} #eNqEZfGlXnj200 {animation: eNqEZfGlXnj200_c_o 6000ms linear infinite normal forwards}@keyframes eNqEZfGlXnj200_c_o { 0% {opacity: 0} 15% {opacity: 0} 26.666667% {opacity: 1} 100% {opacity: 1}} #eNqEZfGlXnj206_ts {animation: eNqEZfGlXnj206_ts__ts 6000ms linear infinite normal forwards}@keyframes eNqEZfGlXnj206_ts__ts { 0% {transform: translate(498.249969px,241.400002px) scale(0.5,0.5)} 11.666667% {transform: translate(498.249969px,241.400002px) scale(0.5,0.5)} 23.333333% {transform: translate(498.249969px,241.400002px) scale(1,1)} 100% {transform: translate(498.249969px,241.400002px) scale(1,1)}} #eNqEZfGlXnj206 {animation: eNqEZfGlXnj206_c_o 6000ms linear infinite normal forwards}@keyframes eNqEZfGlXnj206_c_o { 0% {opacity: 0} 11.666667% {opacity: 0} 23.333333% {opacity: 1} 100% {opacity: 1}} #eNqEZfGlXnj221_to {animation: eNqEZfGlXnj221_to__to 6000ms linear infinite normal forwards}@keyframes eNqEZfGlXnj221_to__to { 0% {transform: translate(1131.5px,343.200012px)} 51.666667% {transform: translate(1131.5px,363.200012px)} 98.333333% {transform: translate(1131.5px,343.200012px)} 100% {transform: translate(1131.5px,343.200012px)}} #eNqEZfGlXnj276_tr {animation: eNqEZfGlXnj276_tr__tr 6000ms linear infinite normal forwards}@keyframes eNqEZfGlXnj276_tr__tr { 0% {transform: translate(188.6px,262.2px) rotate(0deg)} 20% {transform: translate(188.6px,262.2px) rotate(0deg)} 26.666667% {transform: translate(188.6px,262.2px) rotate(-9.275704deg)} 63.333333% {transform: translate(188.6px,262.2px) rotate(-9.275704deg)} 78.333333% {transform: translate(188.6px,262.2px) rotate(8.970836deg)} 100% {transform: translate(188.6px,262.2px) rotate(0deg)}} #eNqEZfGlXnj288_to {animation: eNqEZfGlXnj288_to__to 6000ms linear infinite normal forwards}@keyframes eNqEZfGlXnj288_to__to { 0% {transform: translate(214.400002px,201.399994px)} 23.333333% {transform: translate(214.400002px,201.399994px)} 26.666667% {transform: translate(212.902333px,201.79999px)} 30% {transform: translate(212.902333px,201.79999px)} 31.666667% {transform: translate(214.400002px,201.399994px)} 63.333333% {transform: translate(214.400002px,201.399994px)} 66.666667% {transform: translate(212.902333px,201.79999px)} 70% {transform: translate(212.902333px,201.79999px)} 71.666667% {transform: translate(214.400002px,201.399994px)} 100% {transform: translate(214.400002px,201.399994px)}} #eNqEZfGlXnj288_ts {animation: eNqEZfGlXnj288_ts__ts 6000ms linear infinite normal forwards}@keyframes eNqEZfGlXnj288_ts__ts { 0% {transform: scale(1,1)} 23.333333% {transform: scale(1,1)} 26.666667% {transform: scale(1.375,-0.173918)} 30% {transform: scale(1.375,-0.173918)} 31.666667% {transform: scale(1,1)} 63.333333% {transform: scale(1,1)} 66.666667% {transform: scale(1.375,-0.173918)} 70% {transform: scale(1.375,-0.173918)} 71.666667% {transform: scale(1,1)} 100% {transform: scale(1,1)}} #eNqEZfGlXnj290_to {animation: eNqEZfGlXnj290_to__to 6000ms linear infinite normal forwards}@keyframes eNqEZfGlXnj290_to__to { 0% {transform: translate(189.599998px,201.399994px)} 23.333333% {transform: translate(189.599998px,201.399994px)} 26.666667% {transform: translate(189.599998px,201.399994px)} 30% {transform: translate(189.599998px,201.399994px)} 31.666667% {transform: translate(189.599998px,201.399994px)} 63.333333% {transform: translate(189.599998px,201.399994px)} 66.666667% {transform: translate(189.599998px,201.399994px)} 70% {transform: translate(189.599998px,201.399994px)} 71.666667% {transform: translate(189.599998px,201.399994px)} 100% {transform: translate(189.599998px,201.399994px)}} #eNqEZfGlXnj290_ts {animation: eNqEZfGlXnj290_ts__ts 6000ms linear infinite normal forwards}@keyframes eNqEZfGlXnj290_ts__ts { 0% {transform: scale(1,1)} 23.333333% {transform: scale(1,1)} 26.666667% {transform: scale(1.534794,-0.173917)} 30% {transform: scale(1.534794,-0.173917)} 31.666667% {transform: scale(1,1)} 63.333333% {transform: scale(1,1)} 66.666667% {transform: scale(1.534794,-0.173917)} 70% {transform: scale(1.534794,-0.173917)} 71.666667% {transform: scale(1,1)} 100% {transform: scale(1,1)}} #eNqEZfGlXnj292_to {animation: eNqEZfGlXnj292_to__to 6000ms linear infinite normal forwards}@keyframes eNqEZfGlXnj292_to__to { 0% {transform: translate(186.781219px,187.815239px)} 23.333333% {transform: translate(186.781219px,187.815239px)} 26.666667% {transform: translate(189.142303px,197.493791px)} 30% {transform: translate(189.142303px,197.493791px)} 31.666667% {transform: translate(186.781219px,187.815239px)} 63.333333% {transform: translate(186.781219px,187.815239px)} 66.666667% {transform: translate(189.142303px,197.493791px)} 70% {transform: translate(189.142303px,197.493791px)} 71.666667% {transform: translate(186.781219px,187.815239px)} 100% {transform: translate(186.781219px,187.815239px)}} #eNqEZfGlXnj292_tr {animation: eNqEZfGlXnj292_tr__tr 6000ms linear infinite normal forwards}@keyframes eNqEZfGlXnj292_tr__tr { 0% {transform: rotate(0deg)} 23.333333% {transform: rotate(0deg)} 26.666667% {transform: rotate(15.380635deg)} 30% {transform: rotate(15.380635deg)} 31.666667% {transform: rotate(0deg)} 63.333333% {transform: rotate(0deg)} 66.666667% {transform: rotate(15.380635deg)} 70% {transform: rotate(15.380635deg)} 71.666667% {transform: rotate(0deg)} 100% {transform: rotate(0deg)}} #eNqEZfGlXnj293_to {animation: eNqEZfGlXnj293_to__to 6000ms linear infinite normal forwards}@keyframes eNqEZfGlXnj293_to__to { 0% {transform: translate(211.727058px,188.957672px)} 23.333333% {transform: translate(211.727058px,188.957672px)} 26.666667% {transform: translate(212.439808px,196.120819px)} 30% {transform: translate(212.439808px,196.120819px)} 31.666667% {transform: translate(211.727058px,188.957672px)} 63.333333% {transform: translate(211.727058px,188.957672px)} 66.666667% {transform: translate(212.439808px,196.120819px)} 70% {transform: translate(212.439808px,196.120819px)} 71.666667% {transform: translate(211.727058px,188.957672px)} 100% {transform: translate(211.727058px,188.957672px)}} #eNqEZfGlXnj293_tr {animation: eNqEZfGlXnj293_tr__tr 6000ms linear infinite normal forwards}@keyframes eNqEZfGlXnj293_tr__tr { 0% {transform: rotate(0deg)} 23.333333% {transform: rotate(0deg)} 26.666667% {transform: rotate(-13.567124deg)} 30% {transform: rotate(-13.567124deg)} 31.666667% {transform: rotate(0deg)} 63.333333% {transform: rotate(0deg)} 66.666667% {transform: rotate(-13.567124deg)} 70% {transform: rotate(-13.567124deg)} 71.666667% {transform: rotate(0deg)} 100% {transform: rotate(0deg)}}]]></style><defs><rect id="eNqEZfGlXnj19" width="1" height="51.7" rx="0" ry="0"/><rect id="eNqEZfGlXnj20" width="1" height="51.7" rx="0" ry="0"/></defs><g transform="translate(0 0.000001)"><g><g><g id="eNqEZfGlXnj28_tr" transform="translate(89.7,778.1) rotate(0)"><g transform="translate(-89.7,-778.1)"><path d="M40.6,684c-6.9-4.3-14.7-7-22.8-7.8-3.7-.4-7.8-.3-10.8,2-.7.4-1.1,1.2-1.1,2c.2.6.5,1,1.1,1.3c9.2,7,23.3,7.9,33.6,2.5m-.6-.6c-5.2-4-10.3-8.1-14.7-12.9s-7.9-10.6-9.2-17.1c-.4-1.9-.5-4.2.7-5.7c11.7,9.1,20.9,21,23.2,35.7m.5.5c-.9-6.4-1.2-13,.3-19.3s4.9-12.3,10.3-15.9c2,4.7,1.2,10.2-.3,15.1-2.2,7.7-5.7,14.9-10.2,21.5M52,704.5c-7,.8-13.1,4.5-18.3,9.2-5.2,4.8-8.9,11-10.4,17.9c6.8-.4,12.6-5.2,16.9-10.7s7.1-11.3,11.8-16.4m2.4,3.3c-5.6-14.2-3.6-30.2,5.2-42.6c4,14.2,2.6,30.1-5.2,42.6m15.2,18.1c-13-.8-25.3,6.2-31.1,17.9-.4.8-.7,1.8-.2,2.4.5.5,1.3.8,2.1.6c6.1-.4,11.6-4.1,16.1-8.3s8.4-9.1,13.4-12.7" fill="#e0e0e0"/><path d="M69.2,724.9c-3.3-10.5-3.5-21.8-.6-32.4c1.1-4.2,3.1-8.6,6.9-10.5.3-.2.7-.3,1.1-.2.3.2.6.4.7.8c1.3,2.9,1.9,6.1,1.6,9.3-.2,3.2-.7,6.3-1.5,9.4-1.2,5.8-1.9,11.9-5,16.9-.7,1.2-1.4,2.4-2,3.7s-.6,1.7-1.1,2.7m40,6.3c-3-11.3.2-25.1,7.3-34.3.5-.7,1.2-1.4,2.1-1.3c1.3.1,1.7,1.9,1.6,3.2-.5,11.6-4.3,22.8-11,32.4m3.7,2.5c13.8,3.6,29.6.1,41-8.3-6.9-3.4-14.7-4.4-22.2-2.7-7.4,1.6-14.2,4.9-18.8,11m3-7.6c7.7-12.6,22.5-20.8,37.2-21.5-1.7,6-6.6,10.6-12.2,13.5s-11.8,4-17.9,5.2c-2.3.5-5.5,1-7.1,2.8" fill="#e0e0e0"/><path d="M110.1,689.2c2.1-7.2,4.2-14.4,4.8-21.8s-.5-15.2-4.3-21.6c-7.2,13.9-7.9,30.2-.6,44.1M134.4,677c8.4-15.3,25.6-27.5,43-29.2-6.8,16.6-25.1,29.5-43,29.2m-5.3,3c12.6,1.9,23.3,9.9,35,14.8c2.5,1.2,5.2,1.7,7.9,1.5c2.7-.4,5.4-2.2,6-4.8.4-2.3-.4-4.6-2.1-6.1s-3.6-2.7-5.7-3.5c-12.8-5.3-26.5-5.5-40-2.2m-8.4,9.1c2.8.8,3.8,2.3,6.1,4.2c7.7,6.5,16.8,11.2,26.5,13.6c1,.3,2.3.4,2.8-.6.4-.8-.1-1.8-.7-2.5-4.1-5.1-9.9-8.6-16-10.9s-11.4-5-18.7-4.4m-8.2-52.6c10.4,9.6,24.4,14.4,38.5,13.1.6,0,1.3-.2,1.8-.6c1-1.1-.2-2.7-1.3-3.6-11.4-8.8-25.1-12.5-39-8.9m9.7-3.6c13.8-10.2,31.7-13.1,48-7.9-6.1,6-14.4,9.2-22.9,10.1-8.4.7-16.9,0-25.1-2.2m-3.8-24.4c-1.1-11.3-.4-20.2-1.2-31.6-.1-.9-.3-2-1.1-2.3-1.2-.5-2.2,1-2.6,2.2-3.3,10.7-1.6,22.3,4.8,31.4" fill="#e0e0e0"/><path d="M118.6,608.8c7.7-4.7,13.4-10.9,18.7-18.2c3.7-5.1,6.8-11.1,6-17.3-5.2-.1-10.1,2.8-13.5,6.7s-5.4,8.9-6.9,13.8-2.5,10.2-4.3,15m18.4-5.1c16.8-6.2,32.4-15.4,46.1-27.2-5.5-2.2-11.8-.9-17.3,1.3-12.6,5.1-22.8,13.6-29,25.7" fill="#e0e0e0"/><path d="M123.8,615c8.5.9,17.1,1.5,25.6.1c8.3-1.4,16.1-4.7,23.9-7.9.7-.2,1.3-.6,1.6-1.2.3-.7,0-1.5-.6-2s-1.3-.8-2-1c-8.4-2.4-17.5-1.3-25.8,1.5-7.9,2.7-15.5,6.2-22.7,10.5M75.3,636c-5.8-11.7-5.4-25.4-.4-37.4c3.5,5.4,4,12.2,3.3,18.6s-2.6,13-2.7,19.4M52.1,624.3c-14.7-.2-28.8,5.8-38.8,16.5c7.2,1.1,14.7-.7,21.2-3.9s12.4-7.7,18.2-12.2m-16.2-5.6c-7.1-.6-13.9-1.5-20.7.6s-13,6.8-15.8,13.4c6.6.7,13.3-.9,19.4-3.7s11.6-6.5,17.1-10.3m23.1.2c-6.4-4.2-12.9-8.4-20.3-10.2s-16-.5-21.2,5.1c6,3.5,13.3,3.9,20.3,3.9s15.5-.1,22.1,2.2" fill="#e0e0e0"/><path d="M59.6,619.7C48.7,609,44.6,589.8,49,575.1c8.6,13.2,12.3,28.9,10.6,44.6m30-30.4c2.1-4.8,3.5-9.8,5.3-14.7s4.1-9.6,7.6-13.5s8.3-6.7,13.5-7c-3.4,14.9-12.9,27.7-26.2,35.2m-5.6,6.4c-3.4-4.7-7.3-11-11.9-14.5s-10.6-5.6-16.2-4.3c5.8,10.3,16.2,17.3,28.1,18.8m1-6c-2.2-5.7-4.5-11.4-5.4-17.4s-.4-12.5,2.7-17.7c6,11.3,7.9,23.4,3,35.2" fill="#e0e0e0"/><path d="M89.6,554.6c3.4-11.2,13.7-19.5,24.7-23.2c1.4-.6,2.9-.8,4.3-.7c1.5.2,2.8,1.2,3.2,2.7.4,1.9-1.2,3.6-2.7,4.9-8.5,7.4-18.6,12.9-29.5,16.3m.2-9.1c.4-7.2.9-14.6,3.2-21.4s6.9-13.3,13.5-16.3c1.1,7.3-2.1,14.6-6,20.8s-8.6,12.2-10.9,19.2m0,2.6c-2.8-8.2-3.1-18.5-8-25.7-3.4-5-8.9-8.4-11.8-13.6-2,4.9-1.4,10.6.7,15.5s5.4,9.1,9,13s6.7,6.7,10.1,10.8" fill="#e0e0e0"/><path d="M89.6,791c-.2,0-.4-54.5-.4-121.7l.4-121.7c.2,0,.4,54.5.4,121.7L89.6,791" fill="#e0e0e0"/><path d="M137.3,627.8c-.7.3-1.3.6-2,.8l-5.6,1.9c-4.8,1.6-11.3,4-18.4,6.9-7,3-13.6,5.5-17.4,8.7-1.5,1.3-2.7,2.8-3.5,4.6-.5,1.3-.6,2.1-.7,2c0-.2,0-.4,0-.6.1-.5.2-1.1.4-1.6.7-1.9,1.9-3.6,3.4-4.9c2.3-1.9,4.8-3.5,7.6-4.7c3.3-1.5,6.6-3,9.9-4.3c7.1-2.9,13.7-5.2,18.5-6.7c1.9-.6,3.8-1.1,5.7-1.7.6-.2,1.3-.3,2.1-.4" fill="#e0e0e0"/><path d="M152.9,589.4c-.2.2-.4.4-.6.6l-1.7,1.6-6.5,5.9L122.3,617c-8.5,7.5-15.8,14.8-20.9,20.2-2.5,2.7-4.5,5-5.9,6.5l-1.6,1.8c-.2.2-.4.4-.6.6.1-.3.3-.5.5-.7.3-.4.8-1.1,1.5-1.9c1.3-1.6,3.2-3.9,5.7-6.7c6.6-7.2,13.5-14,20.8-20.4l21.9-19.2l6.7-5.7l1.8-1.5c.2-.3.4-.4.7-.6" fill="#e0e0e0"/><path d="M113.1,624.6c-.2-.1,1.5-4.2,3.3-9.4l2.8-9.5c.2,0-.3,4.5-2.1,9.8-.8,2.2-1.6,4.4-2.6,6.5-.3,1-.8,1.9-1.4,2.6m-23.4,33c-.5-.5-.9-1-1.3-1.5l-3.3-4.3L74,637.7l-11.3-14-3.4-4.2c-.4-.5-.8-1-1.2-1.6.5.4,1,.9,1.4,1.4l3.6,4.1c3,3.5,7.1,8.4,11.5,13.9s8.2,10.6,10.9,14.3l3.2,4.4c.3.4.7,1,1,1.6" fill="#e0e0e0"/><path d="M79.2,644.2c-.1.1-2.9-3.2-4.4-8.2-.8-2.7-1.2-5.5-1-8.3h.4c-.2.6-.3,1-.3,1s-.1-.4,0-1h.4c.2,2.7.6,5.4,1.4,8c1.3,5,3.8,8.4,3.5,8.5M65.8,627.3c-.9-.7-2-1.3-3.1-1.8-2.7-.8-5.6-1-8.5-.7-2.9.2-5.7.7-8.5,1.4-1.2.4-2.3.6-3.5.8c1-.6,2.2-1.1,3.4-1.4c2.8-.9,5.7-1.4,8.6-1.6c3.4-.3,6.6,0,8.7.9c1.2.5,2.2,1.3,2.9,2.4m-3.2-4.2c-.1.1-1.8-.7-4.7-1.7-7.6-2.6-15.7-3.2-23.6-1.8l-4.9,1c.4-.2.8-.4,1.2-.5c1.2-.4,2.3-.7,3.5-1c8-1.7,16.3-1.1,23.9,1.8c1.1.4,2.3.9,3.3,1.5.5.2.9.5,1.3.7m27-17.3c-.2.1-1.7-5.3-3.4-11.9s-2.9-12-2.6-12s1.7,5.3,3.4,11.9s2.8,11.9,2.6,12" fill="#e0e0e0"/><path d="M89.8,605.8c-.2.1-1.2-3.5-3.8-7.1-2.5-3.7-5.7-5.6-5.6-5.7.8.2,1.5.6,2.1,1.1c1.6,1.2,3,2.6,4.1,4.2c2.7,3.7,3.4,7.5,3.2,7.5m-.2,156.1c-.1,0-.2-1.3-.9-3.6-.9-3.3-2.1-6.4-3.6-9.4-3.8-7.7-10.6-17.4-19.3-27.2-4.3-4.9-8.5-9.6-12.1-14-3.2-3.9-6.1-8.1-8.6-12.4-1.7-2.9-3.2-6-4.3-9.2-.4-1.1-.7-2-.9-2.6-.1-.3-.2-.6-.2-.9.1,0,.5,1.2,1.4,3.5c1.3,3.1,2.8,6.2,4.5,9.1c2.6,4.3,5.5,8.4,8.7,12.3c3.6,4.4,7.8,9,12.1,14c8.7,9.8,15.6,19.7,19.2,27.5c1.5,3.1,2.6,6.3,3.4,9.6.2.9.4,1.8.5,2.7.1,0,.1.3.1.6m43.1-48.6c-.7.5-1.5.9-2.3,1.3-2,1.1-4,2.4-5.9,3.9-2.7,2.1-5.3,4.5-7.7,7-2.7,2.8-5.5,6.2-8.3,9.7-5.7,7.1-11,13.4-14.1,18.4-1.6,2.5-2.8,4.6-3.6,6.1-.4.8-.8,1.5-1.2,2.3c0-.2.1-.4.2-.6.2-.4.4-1,.8-1.8c1-2.1,2.1-4.2,3.4-6.2c3.1-5.1,8.3-11.5,14-18.6c2.8-3.6,5.7-6.9,8.4-9.7c2.4-2.5,5.1-4.9,7.9-7c1.9-1.4,3.9-2.6,6-3.7.7-.4,1.4-.6,1.8-.8.1-.1.3-.2.6-.3" fill="#e0e0e0"/><path d="M133.5,729.1c-1.6.3-3.2.6-4.8.7-3.8.4-7.6,1.1-11.3,2.2-3.7,1.2-7.1,3-10.1,5.3-2.3,1.8-3.4,3.3-3.5,3.2.2-.4.4-.8.7-1.1.7-.9,1.6-1.8,2.5-2.5c3-2.5,6.5-4.4,10.2-5.6c3.7-1.1,7.6-1.8,11.5-2c1.6-.2,3.2-.3,4.8-.2" fill="#e0e0e0"/><path d="M105.2,738.8c-.2-.1,1.9-3.4,3.6-7.8c1.6-4.5,1.9-8.4,2.2-8.3.1.9.1,1.7-.1,2.6-.2,2.1-.7,4.1-1.4,6s-1.6,3.8-2.8,5.5c-.4.7-.9,1.4-1.5,2M146.6,671c-.2.2-.5.3-.8.4l-2.2,1-3.5,1.7-4.6,2.4-2.6,1.5-2.7,1.7c-1.9,1.2-3.8,2.6-5.9,4.1-8.8,6.5-16.4,14.5-22.7,23.5l-3.9,6-1.6,2.8-1.4,2.6c-.9,1.7-1.6,3.3-2.2,4.6L91,726.9l-.9,2.3c-.1.3-.2.5-.4.8c0-.3.1-.6.2-.8l.8-2.3l1.4-3.6l2.1-4.7c.4-.9.9-1.8,1.4-2.7l1.6-2.8c1.1-2,2.4-4,3.8-6.1c6.2-9.1,13.9-17.1,22.8-23.6c2.1-1.5,4-2.9,6-4c1-.6,1.9-1.2,2.8-1.7l2.6-1.4c1.7-1,3.3-1.6,4.6-2.3s2.6-1.2,3.6-1.5l2.3-.9c.3-.4.6-.5.9-.6" fill="#e0e0e0"/></g></g><g><path d="M52,769.8c1.2,20.8,7.4,42,17.1,63.4h42c9.2-21.2,15-42.3,16.1-63.4h-75.2Z" fill="#e0e0e0"/><path d="M120.4,803.5c0,.2-13.8.4-30.9.4s-30.9-.2-30.9-.4s13.8-.4,30.9-.4l30.9.4m-1,7.5c0,.2-13,.4-28.9.4s-28.9-.2-28.9-.4s13-.4,28.9-.4l28.9.4" fill="#fafafa"/><path d="M69.8,783.4c.2,0,.4,4.3.4,9.7l-.4,9.7c-.2,0-.4-4.3-.4-9.7l.4-9.7m22.5,0c.2,0,.4,4.5.4,10s-.2,10-.4,10-.4-4.5-.4-10s.1-10,.4-10m21.1-.1c.2,0,.4,4.6.4,10.2s-.2,10.2-.4,10.2-.4-4.6-.4-10.2.2-10.2.4-10.2" fill="#fafafa"/><path d="M125.8,783.4c0,.2-16.2.4-36.2.4s-36.2-.2-36.2-.4s16.2-.4,36.2-.4l36.2.4" fill="#fafafa"/></g></g></g></g><g><path id="eNqEZfGlXnj50" d="M1102.8,14.5h36.5v145.8h-36.5v-145.8Zm53.7,31.8h36.5v114h-36.5v-114ZM1211,72.4h36.5v87.9h-36.5v-87.9Zm50.4,35.7h36.5v52.2h-36.5v-52.2Z" fill="#e0e0e0"/></g><g id="eNqEZfGlXnj51_to" transform="translate(262.799988,123.699997)"><g transform="translate(-262.799988,-123.699997)"><g><g><path d="M88.8,16h348v215.4h-348v-215.4v0Z" fill="#6e6e6e"/><path d="M405.2,202.2c0,.2-66,.4-147.3.4-81.4,0-147.3-.2-147.3-.4s65.9-.4,147.3-.4l147.3.4" fill="#e0e0e0"/><g><path d="M405.2,152.3c0,.2-66,.4-147.3.4-81.4,0-147.3-.2-147.3-.4s65.9-.4,147.3-.4l147.3.4" fill="#e0e0e0"/></g><path d="M405.2,102.5c0,.2-66,.4-147.3.4-81.4,0-147.3-.2-147.3-.4s65.9-.4,147.3-.4l147.3.4m0-47.4c0,.2-66,.4-147.3.4-81.4,0-147.3-.2-147.3-.4s65.9-.4,147.3-.4l147.3.4" fill="#e0e0e0"/></g></g><path id="eNqEZfGlXnj59" d="M352.8,171.8c-24.1-9.1-51.9,16.2-75.5,5.8-13.8-6-20-21.6-26.8-35s-18.300004-27.60007-33.3-26-27.2,19-41.8,14.8c-9.2-2.6-13.8-12.8-16.1-22.1s-3.9-19.5-10.9-26-21.6-4.8-22.7,4.7v114.2h272.1c.1,0-36.6-27.3-45-30.4" fill="#575757"/></g></g><g><g><g><g><path d="M1321,833.2c0,.3-290.7.5-649.1.5-358.6,0-649.2-.2-649.2-.5s290.6-.5,649.2-.5l649.1.5" fill="#263238"/><path d="M1113.9,97.2h-815.7c-14.1,0-25.5,11.4-25.5,25.5v0v576.1c0,14.1,11.4,25.5,25.5,25.5v0h313c0,0,19.9,77-41.8,108.9h292.7c0,0-69.7-39.4-51.8-108.9h303.5c14.1,0,25.5-11.4,25.5-25.5v-576.1c0-14.1-11.4-25.5-25.4-25.5v0" fill="#263238"/></g><path d="M716.9,663.7c11.1,15.9-6.3,33.2-22.1,22.1-.5-.4-1-.8-1.4-1.4-11.1-15.9,6.3-33.2,22.1-22.1.6.4,1,.9,1.4,1.4" fill="#455a64"/><path d="M286.8,107.8h841.4v511.1h-841.4v-511.1Z" fill="#585858"/></g><path d="M1082.7,724.5c0,.3-167.6.5-374.3.5-206.8,0-374.3-.2-374.3-.5s167.5-.5,374.3-.5l374.3.5" fill="#455a64"/><path d="M1128.2,154.5c0,.3-188.4.5-420.7.5-232.4,0-420.7-.2-420.7-.5s188.3-.5,420.7-.5l420.7.5" fill="#263238"/><path d="M338.2,130.4c0,2.8-2.3,5.1-5.1,5.1s-5.1-2.3-5.1-5.1s2.3-5.1,5.1-5.1c1.3,0,2.6.5,3.6,1.5s1.5,2.3,1.5,3.6m17.7,0c0,2.1-1.2,3.9-3.1,4.7s-4.1.4-5.5-1.1-1.9-3.6-1.1-5.5s2.6-3.1,4.7-3.1c1.3,0,2.6.5,3.6,1.5.8.9,1.4,2.2,1.4,3.5m17.7,0c0,2.8-2.3,5.1-5.1,5.1s-5.1-2.3-5.1-5.1s2.3-5.1,5.1-5.1c1.3,0,2.6.5,3.6,1.5s1.5,2.3,1.5,3.6" fill="#263238"/></g></g><g mask="url(#eNqEZfGlXnj131)"><g id="eNqEZfGlXnj72_to" transform="translate(702.147308,657.096207)"><g transform="translate(-702.147308,-434.096207)"><g><g id="eNqEZfGlXnj74_to" transform="translate(1017.5,534.200012)"><g transform="translate(-1017.5,-518.200012)"><path d="M1005,501.2h25v34h-25v-34Z" fill="#fff"/><path d="M1029.7,510.8c.2.2-5.2,5.9-12,12.6s-12.5,12.1-12.7,12s5.2-5.9,12-12.7s12.5-12.1,12.7-11.9m-13.1-9.2c.2.2-2.3,3-5.6,6.3s-6.1,5.8-6.3,5.6s2.3-3,5.6-6.3s6.1-5.8,6.3-5.6" transform="translate(.3 0)" fill="#e8505b"/></g></g><g id="eNqEZfGlXnj77_to" transform="translate(965.5,508.200012)"><g transform="translate(-965.5,-508.200012)"><path d="M953,481.2h25v54h-25v-54Z" fill="#fff"/><path d="M977.6,510.8c.2.2-5.2,5.9-12,12.6s-12.5,12.1-12.7,12s5.2-5.9,12-12.7s12.5-12.1,12.7-11.9" fill="#e8505b"/><path d="M977.3,488.9c.2.2-5.2,5.9-12,12.6s-12.5,12.2-12.7,12s5.2-5.9,12-12.7s12.5-12.1,12.7-11.9m-16.8-7.5c.1.1-.3.6-.9,1.4l-1.2,1.3-.7.8-.4.4-.2.2-.1.1v.1v0v0v0v0c-.3-.3.7.7-.7-.7v0v0c-.2-.2,1.3,1.3.7.7v0v0v0v0l-.1.1-.1.1-.2.2-.4.4-.8.7-1.3,1.2c-.8.6-1.3,1-1.4.9s.3-.6.9-1.4l1.2-1.3.7-.8.4-.4.2-.2.1-.1.1-.1v0v0v0v0c-.6-.6.8.9.7.7v0v0l-.7-.7v0v0v0v0l.1-.1.1-.1.2-.2.4-.4.8-.7l1.3-1.2c.6-.7,1.2-1,1.3-.9" transform="translate(.3 0)" fill="#e8505b"/></g></g><g id="eNqEZfGlXnj81_to" transform="translate(908.949982,499.700012)"><g transform="translate(-908.949982,-499.700012)"><path d="M896.6,465h24.7v69.4h-24.7v-69.4Z" fill="#fff"/><path d="M921.4,510.8c.2.2-5.2,5.9-12,12.6s-12.5,12.1-12.7,12s5.2-5.9,12-12.7s12.5-12.1,12.7-11.9m-.4-21.9c.2.2-5.2,5.9-12,12.6s-12.5,12.2-12.6,12s5.2-5.9,12-12.7s12.5-12.1,12.6-11.9m-.1-24.2c.2.2-5.1,5.8-11.9,12.6s-12.4,12.1-12.6,11.9s5.1-5.8,11.9-12.6s12.4-12.1,12.6-11.9" fill="#e8505b"/></g></g><g id="eNqEZfGlXnj84_to" transform="translate(542.550018,517.849976)"><g transform="translate(-542.550018,-517.849976)"><path d="M530.2,501.3h24.7v33.1h-24.7v-33.1Z" fill="#fff"/><path d="M554.9,509.9c.2.2-5.2,5.9-12,12.6s-12.5,12.1-12.7,12s5.2-5.9,12-12.7s12.5-12.1,12.7-11.9" fill="#e8505b"/></g></g><g id="eNqEZfGlXnj87_to" transform="translate(853.75,465.25)"><g transform="translate(-853.75,-465.25)"><path d="M841.4,396h24.7v138.5h-24.7v-138.5Z" fill="#455a64"/><path d="M865.9,509.9c.2.2-5.2,5.9-12,12.6s-12.5,12.1-12.7,12s5.2-5.9,12-12.7s12.5-12.1,12.7-11.9m-.3-21.9c.2.2-5.2,5.9-12,12.6s-12.5,12.1-12.7,12s5.2-5.9,12-12.7s12.5-12.1,12.7-11.9m0-24.4c.2.2-5.2,5.9-12,12.6s-12.5,12.1-12.7,12s5.2-5.9,12-12.7s12.5-12,12.7-11.9" fill="#263238"/><path d="M865.9,440.1c.2.2-5.2,5.9-12,12.6s-12.5,12.1-12.7,12s5.2-5.9,12-12.7s12.5-12.1,12.7-11.9" fill="#263238"/><path d="M865.6,418.2c.2.2-5.2,5.9-12,12.6s-12.5,12.1-12.7,12s5.2-5.9,12-12.7s12.5-12.1,12.7-11.9m0-20.8c.2.2-5.2,5.9-12,12.6s-12.5,12.1-12.7,12s5.2-5.9,12-12.7s12.5-12.1,12.7-11.9" fill="#263238"/></g></g><g id="eNqEZfGlXnj92_to" transform="translate(440.550018,520.550018)"><g transform="translate(-440.550018,-520.550018)"><path d="M428.2,506.7h24.7v27.7h-24.7v-27.7Z" fill="#fff"/><path d="M452.8,510.3c.2.2-5.2,5.9-12,12.6s-12.5,12.1-12.7,12s5.2-5.9,12-12.7s12.5-12.1,12.7-11.9" fill="#e8505b"/></g></g><g id="eNqEZfGlXnj95_to" transform="translate(490.450012,523.5)"><g transform="translate(-490.450012,-503.5)"><path d="M478.1,471.7h24.7v63.6h-24.7v-63.6Z" fill="#fff"/><path d="M503.1,510.2c.2.2-5.2,5.9-12,12.6s-12.5,12.1-12.7,12s5.2-5.9,12-12.7s12.5-12.1,12.7-11.9" fill="#e8505b"/><path d="M502.8,488.4c.2.2-5.2,5.9-12,12.6s-12.5,12.1-12.7,12s5.2-5.9,12-12.7s12.5-12.1,12.7-11.9m-7.7-16.7c.2.2-3.4,4.1-8.1,8.8s-8.6,8.3-8.8,8.1s3.4-4.1,8.1-8.8s8.6-8.3,8.8-8.1" fill="#e8505b"/></g></g><g id="eNqEZfGlXnj99_to" transform="translate(386.950012,510.950012)"><g transform="translate(-386.950012,-510.950012)"><path d="M374.6,487.5h24.7v46.9h-24.7v-46.9Z" fill="#fff"/><path d="M399.3,509.9c.2.2-5.2,5.9-12,12.6s-12.5,12.1-12.7,12s5.2-5.9,12-12.7s12.5-12.1,12.7-11.9" fill="#e8505b"/><path d="M399,488c.2.2-5.2,5.9-12,12.6s-12.5,12.1-12.7,12s5.2-5.9,12-12.7s12.5-12.1,12.7-11.9" fill="#e8505b"/></g></g><g id="eNqEZfGlXnj103_to" transform="translate(697.649994,433.600006)"><g transform="translate(-697.649994,-433.600006)"><path d="M685.3,332.8h24.7v201.6h-24.7v-201.6Z" fill="#ef724b"/><path d="M709.8,488c.2.2-5.2,5.9-12,12.6-6.8,6.8-12.5,12.1-12.6,12-.2-.2,5.2-5.9,12-12.7c6.7-6.7,12.4-12.1,12.6-11.9" fill="#fff"/><path d="M710.1,509.9c.2.2-5.2,5.9-12,12.6-6.8,6.8-12.5,12.1-12.7,12-.2-.2,5.2-5.9,12-12.7c6.9-6.8,12.5-12.1,12.7-11.9" fill="#fff"/><path d="M709.8,463.6c.2.2-5.2,5.9-12,12.6-6.8,6.8-12.5,12.1-12.7,12s5.2-5.9,12-12.7c6.8-6.7,12.5-12,12.7-11.9" fill="#fff"/><path d="M710.1,440.1c.2.2-5.2,5.9-12,12.6-6.8,6.8-12.5,12.1-12.7,12s5.2-5.9,12-12.7c6.9-6.7,12.5-12.1,12.7-11.9" fill="#fff"/><path d="M709.8,418.2c.2.2-5.2,5.9-12,12.6-6.8,6.8-12.5,12.1-12.7,12s5.2-5.9,12-12.7c6.8-6.7,12.5-12.1,12.7-11.9" fill="#fff"/><path d="M709.8,393.9c.2.2-5.2,5.9-12,12.6-6.8,6.8-12.5,12.2-12.6,12-.2-.2,5.2-5.9,12-12.7c6.7-6.8,12.4-12.1,12.6-11.9" fill="#fff"/><path d="M699.9,332.8c.2.2-2.9,3.6-7,7.7s-7.5,7.2-7.7,7s2.9-3.6,7-7.7c4.1-4,7.5-7.2,7.7-7" fill="#fff"/><path d="M710.1,369.1c.2.2-5.2,5.9-12,12.6-6.8,6.8-12.5,12.1-12.7,12s5.2-5.9,12-12.7c6.9-6.7,12.5-12,12.7-11.9" fill="#fff"/><path d="M709.8,347.3c.2.2-5.2,5.9-12,12.6-6.8,6.8-12.5,12.1-12.7,12s5.2-5.9,12-12.7s12.5-12.1,12.7-11.9" fill="#fff"/></g></g><g id="eNqEZfGlXnj114_to" transform="translate(644.649994,463)"><g transform="translate(-644.649994,-463)"><path d="M632.3,391.5h24.7v143h-24.7v-143Z" fill="#fff"/><path d="M656.9,509.9c.2.2-5.2,5.9-12,12.6s-12.5,12.1-12.7,12s5.2-5.9,12-12.7s12.5-12.1,12.7-11.9" fill="#e8505b"/><path d="M656.6,488c.2.2-5.2,5.9-12,12.6s-12.5,12.1-12.7,12s5.2-5.9,12-12.7s12.5-12.1,12.7-11.9" fill="#e8505b"/><path d="M656.6,463.6c.2.2-5.2,5.9-12,12.6s-12.5,12.1-12.7,12s5.2-5.9,12-12.7s12.5-12,12.7-11.9m.3-23.5c.2.2-5.2,5.9-12,12.6s-12.5,12.1-12.7,12s5.2-5.9,12-12.7s12.5-12.1,12.7-11.9m0-43.8c.2.2-5.2,5.9-12,12.6s-12.5,12.1-12.7,12s5.2-5.9,12-12.7s12.5-12.1,12.7-11.9m-.3,21.9c.2.2-5.2,5.9-12,12.6s-12.5,12.1-12.7,12s5.2-5.9,12-12.7s12.5-12.1,12.7-11.9" fill="#e8505b"/></g></g><g id="eNqEZfGlXnj119_to" transform="translate(750.350006,474.950012)"><g transform="translate(-750.350006,-474.950012)"><path d="M738,415.5h24.7v118.9h-24.7v-118.9Z" fill="#fff"/><path d="M762.3,440.1c.2.2-5.2,5.9-12,12.6s-12.5,12.1-12.7,12s5.2-5.9,12-12.7s12.5-12.1,12.7-11.9" fill="#e8505b"/><path d="M762.3,509.9c.2.2-5.2,5.9-12,12.6s-12.5,12.1-12.7,12s5.2-5.9,12-12.7s12.5-12.1,12.7-11.9M762,488c.2.2-5.2,5.9-12,12.6s-12.5,12.1-12.7,12s5.2-5.9,12-12.7s12.5-12.1,12.7-11.9m0-24.4c.2.2-5.2,5.9-12,12.6s-12.5,12.1-12.7,12s5.2-5.9,12-12.7s12.5-12,12.7-11.9" fill="#e8505b"/><path d="M762,418.2c.2.2-5.2,5.9-12,12.6s-12.5,12.1-12.7,12s5.2-5.9,12-12.7s12.5-12.1,12.7-11.9" fill="#e8505b"/></g></g><g id="eNqEZfGlXnj124_to" transform="translate(802.649994,444.699997)"><g transform="translate(-802.649994,-444.699997)"><path d="M790.3,354.4h24.7v180.6h-24.7v-180.6Z" fill="#fff"/><path d="M815.7,509.9c.2.2-5.2,5.9-12,12.6s-12.5,12.1-12.7,12s5.2-5.9,12-12.7s12.5-12.1,12.7-11.9" fill="#e8505b"/><path d="M815.3,488c.2.2-5.2,5.9-12,12.6s-12.5,12.1-12.7,12s5.2-5.9,12-12.7s12.5-12.1,12.7-11.9m0-24.4c.2.2-5.2,5.9-12,12.6s-12.5,12.1-12.7,12s5.2-5.9,12-12.7s12.5-12,12.7-11.9m.4-23.5c.2.2-5.2,5.9-12,12.6s-12.5,12.1-12.7,12s5.2-5.9,12-12.7s12.5-12.1,12.7-11.9m-.4-21.9c.2.2-5.2,5.9-12,12.6s-12.5,12.1-12.7,12s5.2-5.9,12-12.7s12.5-12.1,12.7-11.9m0-24.3c.2.2-5.2,5.9-12,12.6s-12.5,12.2-12.7,12s5.2-5.9,12-12.7s12.5-12.1,12.7-11.9m0-22.1c.2.2-5.2,5.9-12,12.6s-12.5,12.1-12.7,12s5.2-5.9,12-12.7s12.5-12.1,12.7-11.9m-4.2-18c.2.2-4.2,4.9-9.8,10.5s-10.4,10-10.5,9.8s4.2-4.9,9.8-10.5s10.3-10,10.5-9.8" fill="#e8505b"/></g></g><g id="eNqEZfGlXnj128_to" transform="translate(593.850006,503.050018)"><g transform="translate(-593.850006,-503.050018)"><path d="M581.5,471.7h24.7v62.7h-24.7v-62.7Z" fill="#fff"/><path d="M606.8,509.9c.2.2-5.2,5.9-12,12.6s-12.5,12.1-12.7,12s5.2-5.9,12-12.7s12.5-12.1,12.7-11.9m-.3-21.9c.2.2-5.2,5.9-12,12.6s-12.5,12.1-12.7,12s5.2-5.9,12-12.7s12.5-12.1,12.7-11.9m-7.9-16.5c.2.2-3.4,4.1-8,8.7s-8.5,8.2-8.7,8s3.4-4.1,8-8.7s8.5-8.2,8.7-8" fill="#e8505b"/></g></g></g></g></g><mask id="eNqEZfGlXnj131" mask-type="luminance"><g transform="matrix(1 0 0 0.867295 0 65.895344)"><rect width="728.1" height="275.8" rx="0" ry="0" transform="translate(331.9 263.69883)" fill="#fff"/></g></mask></g><g id="eNqEZfGlXnj134_to" transform="translate(630.049988,327.099991)"><g id="eNqEZfGlXnj134" transform="translate(-690.049988,-327.099991)" opacity="0"><g><path d="M357.8,308.3h-3.8v-1.8h9.8v1.8h-3.8v9.8h-2.2v-9.8Zm5.8,5.4c-.1-2.6,1.9-4.8,4.5-4.9s4.8,1.9,4.9,4.5-1.9,4.8-4.5,4.9c-.1,0-.1,0-.2,0-1.2.1-2.5-.4-3.3-1.2s-1.4-2.1-1.4-3.3m7.4,0c-.1-1.4-1.3-2.5-2.7-2.5s-2.6,1.2-2.5,2.7s1.2,2.6,2.6,2.6s2.6-1.1,2.6-2.5c0-.1,0-.2,0-.3m12.7-7.9v12.3h-2v-1.1c-.7.8-1.8,1.3-2.9,1.3-2.5,0-4.5-2.1-4.5-4.5c0-2.5,2-4.5,4.5-4.5c1.1,0,2.1.4,2.9,1.2v-4.5l2-.2Zm-2,7.9c-.1-1.4-1.3-2.6-2.7-2.5-1.4,0-2.6,1.2-2.6,2.7c0,1.4,1.2,2.6,2.6,2.6s2.6-1.1,2.6-2.5c.1-.1.1-.2.1-.3m12.2-.8v5.2h-2v-1.1c-.7.9-1.7,1.3-2.8,1.2-2,0-3.3-1.1-3.3-2.7c0-1.5,1-2.6,3.7-2.6h2.3v-.1c0-1.2-.7-1.9-2.2-1.9-1,0-1.9.3-2.7.9l-.8-1.5c1.1-.8,2.4-1.1,3.7-1.1c2.6,0,4.1,1.2,4.1,3.7m-2.1,2.5v-1h-2.1c-1.4,0-1.8.5-1.8,1.2s.6,1.2,1.7,1.2c.9,0,1.8-.6,2.2-1.4m12.9-6.1l-4.1,9.6c-.8,2-1.9,2.6-3.4,2.6-.9,0-1.7-.3-2.4-.8l.8-1.5c.4.4,1,.6,1.5.6.7,0,1.2-.3,1.6-1.2l.1-.3-3.9-8.9h2.2l2.8,6.5l2.8-6.5l2-.1Z" fill="#263238"/><path d="M356,342.5v5.9h-.6v-5.4h-1.4v-.5h2Z" fill="#263238"/><path d="M357.4,345.4c0-1.9,1-3,2.4-3s2.4,1.1,2.4,3-1,3-2.4,3-2.4-1.1-2.4-3m4.1,0c0-1.6-.7-2.5-1.7-2.5s-1.7.9-1.7,2.5.7,2.5,1.7,2.5s1.7-.9,1.7-2.5" fill="#263238"/><path d="M362.9,348c0-.2.2-.5.4-.5v0c.1,0,.2,0,.3.1s.1.2.1.3c0,.3-.2.5-.5.5-.1,0-.2-.1-.3-.1s0-.2,0-.3m1.7-2.6c0-1.9,1-3,2.4-3s2.4,1.1,2.4,3-1,3-2.4,3-2.4-1.1-2.4-3m4.1,0c0-1.6-.7-2.5-1.7-2.5s-1.7.9-1.7,2.5.7,2.5,1.7,2.5s1.7-.9,1.7-2.5m1.5,0c0-1.9,1-3,2.4-3s2.4,1.1,2.4,3-1,3-2.4,3-2.4-1.1-2.4-3m4.1,0c0-1.6-.7-2.5-1.7-2.5s-1.7.9-1.7,2.5.7,2.5,1.7,2.5s1.7-.9,1.7-2.5m1.5,0c0-1.9,1-3,2.4-3s2.4,1.1,2.4,3-1,3-2.4,3-2.4-1.1-2.4-3m4.1,0c0-1.6-.7-2.5-1.7-2.5s-1.7.9-1.7,2.5.7,2.5,1.7,2.5s1.7-.9,1.7-2.5" fill="#263238"/><path d="M402.9,346.7c0,.3-2.5.5-5.7.5s-5.7-.2-5.7-.5s2.5-.5,5.7-.5s5.7.2,5.7.5m45.3,0c0,.3-5.1.5-11.3.5s-11.3-.2-11.3-.5s5.1-.5,11.3-.5s11.3.2,11.3.5m45.3,0c0,.3-5.1.5-11.3.5s-11.3-.2-11.3-.5s5.1-.5,11.3-.5s11.3.2,11.3.5" fill="#263238"/><path d="M538.9,346.7c0,.3-5.1.5-11.3.5s-11.3-.2-11.3-.5s5.1-.5,11.3-.5s11.3.2,11.3.5" fill="#263238"/><path d="M584.2,346.7c0,.3-5.1.5-11.3.5s-11.3-.2-11.3-.5s5.1-.5,11.3-.5s11.3.2,11.3.5m45.3,0c0,.3-5.1.5-11.3.5s-11.3-.2-11.3-.5s5.1-.5,11.3-.5s11.3.2,11.3.5m45.3,0c0,.3-5.1.5-11.3.5s-11.3-.2-11.3-.5s5.1-.5,11.3-.5s11.3.2,11.3.5m45.4,0c0,.3-5.1.5-11.3.5s-11.3-.2-11.3-.5s5.1-.5,11.3-.5s11.3.2,11.3.5m45.3,0c0,.3-5.1.5-11.3.5s-11.3-.2-11.3-.5s5.1-.5,11.3-.5s11.3.2,11.3.5m45.3,0c0,.3-5.1.5-11.3.5s-11.3-.2-11.3-.5s5.1-.5,11.3-.5s11.3.2,11.3.5m45.3,0c0,.3-5.1.5-11.3.5s-11.3-.2-11.3-.5s5.1-.5,11.3-.5s11.3.2,11.3.5m45.3,0c0,.3-5.1.5-11.3.5s-11.3-.2-11.3-.5s5.1-.5,11.3-.5s11.3.2,11.3.5m45.4,0c0,.3-5.1.5-11.3.5s-11.3-.2-11.3-.5s5.1-.5,11.3-.5s11.3.2,11.3.5m45.3,0c0,.3-5.1.5-11.3.5s-11.3-.2-11.3-.5s5.1-.5,11.3-.5s11.3.2,11.3.5m34,0c0,.3-2.5.5-5.7.5s-5.7-.2-5.7-.5s2.5-.5,5.7-.5s5.7.2,5.7.5" fill="#263238"/></g></g></g><g id="eNqEZfGlXnj143_to" transform="translate(693.099976,602.5)"><g id="eNqEZfGlXnj143" transform="translate(-693.099976,-572.5)" opacity="0"><g><path d="M356,574.4v5.9h-.6v-5.3h-1.4v-.5l2-.1v0Z" fill="#e0e0e0"/><path d="M388,579.8v.5h-4.1v-.4l2.5-2.4c.7-.7.8-1.1.8-1.5c0-.7-.5-1.1-1.4-1.1-.6,0-1.2.2-1.6.7l-.4-.4c.5-.6,1.3-.9,2.1-.8c1.2,0,2,.6,2,1.6c0,.7-.4,1.4-1,1.8l-2,2h3.1Zm30.3-1.1c0,1-.7,1.7-2.1,1.7-.8,0-1.5-.2-2.1-.8l.3-.5c.5.5,1.2.7,1.8.7c1,0,1.5-.5,1.5-1.2s-.5-1.2-1.6-1.2h-.4v-.4l1.6-2.1h-3v-.5h3.8v.4l-1.7,2.1c1.3.1,1.9.8,1.9,1.8m30.9.1h-1.1v1.6h-.6v-1.6h-3v-.4l2.9-3.9h.6l-2.8,3.8h2.3v-1.4h.5v1.4h1.1l.1.5Zm30.1-.2c0,1-.7,1.8-2.1,1.8-.8,0-1.5-.2-2.1-.8l.3-.5c.5.5,1.1.7,1.8.7c1,0,1.5-.5,1.5-1.2c0-.8-.5-1.2-2-1.2h-1.3l.3-3h3.2v.5h-2.7l-.2,1.9h.8c1.8.1,2.5.8,2.5,1.8m30.6,0c0,.5-.2,1-.6,1.4-.4.3-.9.5-1.4.5-1.6,0-2.4-1.1-2.4-3c0-2,1.1-3.1,2.7-3.1.5,0,1,.1,1.4.3l-.2.5c-.3-.2-.7-.3-1.1-.3-1.3,0-2.1.8-2.1,2.4c0,.1,0,.3,0,.5.4-.7,1.1-1.1,1.8-1c1-.1,1.9.6,2,1.6-.1.1-.1.1-.1.2m-.6,0c0-.8-.6-1.3-1.5-1.3-.8-.1-1.4.5-1.5,1.2v.1c0,.7.5,1.3,1.6,1.3.4,0,.7-.1,1-.3s.4-.6.4-1m30.9-4.2v.4l-2.5,5.5h-.7l2.4-5.4h-3v1.1h-.6v-1.6h4.4Z" fill="#e0e0e0"/><path d="M570.8,578.7c0,1-.9,1.7-2.3,1.7s-2.3-.6-2.3-1.7c0-.7.5-1.3,1.1-1.5-.6-.2-.9-.7-.9-1.3c0-1,.8-1.6,2.1-1.6s2.1.6,2.1,1.6c0,.6-.4,1.1-.9,1.3.6.2,1.1.8,1.1,1.5m-.6,0c0-.7-.6-1.2-1.7-1.2s-1.7.5-1.7,1.2.6,1.2,1.7,1.2s1.7-.5,1.7-1.2m-1.7-1.7c.9,0,1.5-.4,1.5-1.1s-.6-1.1-1.5-1.1-1.5.4-1.5,1.1.6,1.1,1.5,1.1m32.6.3c0,2-1.1,3.1-2.7,3.1-.5,0-1-.1-1.4-.3l.2-.5c.3.2.7.3,1.1.3c1.3,0,2.1-.8,2.1-2.4c0-.1,0-.3,0-.5-.3.7-1.1,1.1-1.8,1-1,.1-1.9-.6-2-1.6c0-.1,0-.1,0-.2c0-1,.8-1.8,1.9-1.8.1,0,.1,0,.2,0c1.5,0,2.4,1.1,2.4,2.9m-.9-1.1c0-.7-.5-1.3-1.6-1.3-.7-.1-1.4.4-1.4,1.1v.1c0,.8.6,1.3,1.5,1.3.8.2,1.4-.4,1.5-1.2v0m28.5-1.8v5.9h-.6v-5.3h-1.4v-.5l2-.1v0Zm1.4,3c0-1.9,1-3,2.4-3s2.4,1.1,2.4,3-1,3-2.4,3-2.4-1.1-2.4-3m4.1,0c0-1.6-.7-2.5-1.7-2.5s-1.7.9-1.7,2.5.7,2.5,1.7,2.5s1.7-.9,1.7-2.5m24-3v5.9h-.6v-5.3h-1.4v-.5l2-.1v0Zm3.1,0v5.9h-.6v-5.3h-1.4v-.5l2-.1v0Z" fill="#e0e0e0"/><path d="M688.7,574.4v5.9h-.6v-5.3h-1.4v-.5l2-.1v0Z" fill="#e0e0e0"/><path d="M694.1,579.8v.5h-4.1v-.4l2.5-2.4c.7-.7.8-1.1.8-1.5c0-.7-.5-1.1-1.4-1.1-.6,0-1.2.2-1.6.7l-.4-.4c.5-.6,1.3-.9,2.1-.8c1.2,0,2,.6,2,1.6c0,.7-.4,1.4-1,1.8l-2,2h3.1Zm24.7-5.4v5.9h-.6v-5.3h-1.2v-.5l1.8-.1v0Zm4.8,4.3c0,.5-.2,1-.6,1.3s-.9.5-1.4.4c-.7,0-1.4-.3-1.9-.8l.3-.5c.4.5,1,.7,1.7.7.9,0,1.4-.5,1.4-1.2s-.5-1.2-1.5-1.2h-.4v-.4l1.5-2.1h-2.7v-.5h3.5v.4l-1.5,2.1c.9-.1,1.7.6,1.7,1.5-.1.1-.1.2-.1.3m25.9-4.3v5.9h-.6v-5.3h-1.4v-.5l2-.1v0Zm6.5,4.4h-1.2v1.6h-.6v-1.6h-3.3v-.4l3.1-3.9h.7l-3,3.8h2.6v-1.4h.6v1.4h1.2l-.1.5Zm23.8-4.4v5.9h-.6v-5.3h-1.4v-.5l2-.1v0Zm5.4,4.2c0,1-.7,1.8-2.1,1.8-.8,0-1.5-.2-2.1-.8l.3-.5c.5.5,1.1.7,1.8.7c1,0,1.5-.5,1.5-1.2c0-.8-.5-1.2-2-1.2h-1.3l.3-3h3.2v.5h-2.7l-.2,1.9h.8c1.9.1,2.5.8,2.5,1.8m25.1-4.2v5.9h-.6v-5.3h-1.4v-.5l2-.1v0Zm5.9,4.2c0,1-.8,1.8-1.9,1.8-.1,0-.1,0-.2,0-1.6,0-2.4-1.1-2.4-3c0-2,1.1-3.1,2.7-3.1.5,0,1,.1,1.4.3l-.2.5c-.3-.2-.7-.3-1.1-.3-1.3,0-2.1.8-2.1,2.4c0,.1,0,.3,0,.5.3-.7,1.1-1.1,1.8-1c1-.1,1.9.6,2,1.6c0,.2,0,.2,0,.3m-.6,0c0-.8-.6-1.3-1.5-1.3-.8-.1-1.4.5-1.5,1.2v.1c0,.7.5,1.3,1.6,1.3.4,0,.7-.1,1-.3.2-.3.4-.6.4-1m24.9-4.2v5.9h-.6v-5.3h-1.4v-.5l2-.1v0Zm5.6,0v.4l-2.5,5.5h-.6l2.4-5.4h-3v1.1h-.6v-1.6h4.3Zm25,0v5.9h-.6v-5.3h-1.4v-.5l2-.1v0Zm6,4.3c0,1-.9,1.7-2.3,1.7s-2.3-.6-2.3-1.7c0-.7.5-1.3,1.1-1.5-.6-.2-.9-.7-.9-1.3c0-1,.8-1.6,2.1-1.6s2.1.6,2.1,1.6c0,.6-.4,1.1-.9,1.3.6.2,1.1.8,1.1,1.5m-.7,0c0-.7-.6-1.2-1.7-1.2s-1.7.5-1.7,1.2.6,1.2,1.7,1.2s1.7-.5,1.7-1.2m-1.6-1.7c.9,0,1.5-.4,1.5-1.1s-.6-1.1-1.5-1.1-1.5.4-1.5,1.1.5,1.1,1.5,1.1m24.8-2.6v5.9h-.6v-5.3h-1.4v-.5l2-.1v0Zm5.7,2.9c0,2-1.1,3.1-2.7,3.1-.5,0-1-.1-1.4-.3l.2-.5c.3.2.7.3,1.2.3c1.3,0,2.1-.8,2.1-2.4v-.5c-.3.7-1.1,1.1-1.8,1-1,.1-1.9-.6-2-1.6c0-.1,0-.1,0-.2c0-.5.2-1,.6-1.4.4-.3.9-.5,1.4-.5c1.6.1,2.4,1.2,2.4,3m-.8-1.1c0-.7-.5-1.3-1.6-1.3-.7-.1-1.4.4-1.4,1.1v.1c0,.8.6,1.3,1.5,1.3.7.2,1.4-.4,1.5-1.2v0m26,3.6v.5h-4.1v-.4l2.5-2.4c.7-.7.8-1.1.8-1.5c0-.7-.5-1.1-1.4-1.1-.6,0-1.2.2-1.6.7l-.4-.4c.5-.6,1.3-.9,2.1-.8c1.2,0,2,.6,2,1.6c0,.7-.4,1.4-1,1.8l-2,2h3.1Zm.8-2.4c0-1.9,1-3,2.4-3s2.4,1.1,2.4,3-1,3-2.4,3-2.4-1.1-2.4-3m4.1,0c0-1.6-.7-2.5-1.7-2.5s-1.7.9-1.7,2.5.7,2.5,1.7,2.5s1.7-.9,1.7-2.5m23.7,2.4v.5h-4.1v-.4l2.5-2.4c.7-.7.8-1.1.8-1.5c0-.7-.5-1.1-1.4-1.1-.6,0-1.2.2-1.6.7l-.4-.4c.5-.6,1.3-.9,2.1-.8c1.2,0,2,.6,2,1.6c0,.7-.4,1.4-1,1.8l-2,2h3.1Zm2.4-5.4v5.9h-.6v-5.3h-1.4v-.5l2-.1v0Zm26.1,5.4v.5h-4.1v-.4l2.5-2.4c.7-.7.8-1.1.8-1.5c0-.7-.5-1.1-1.4-1.1-.6,0-1.2.2-1.6.7l-.4-.4c.5-.6,1.3-.9,2.1-.8c1.2,0,2,.6,2,1.6c0,.7-.4,1.4-1,1.8l-2,2h3.1Zm4.8,0v.5h-4.1v-.4l2.5-2.4c.7-.7.8-1.1.8-1.5c0-.7-.5-1.1-1.4-1.1-.6,0-1.2.2-1.6.7l-.4-.4c.5-.6,1.3-.9,2.1-.8c1.2,0,2,.6,2,1.6c0,.7-.4,1.4-1,1.8l-2,2h3.1Zm23.7,0v.5h-4.2v-.4l2.5-2.4c.7-.7.8-1.1.8-1.5c0-.7-.5-1.1-1.4-1.1-.6,0-1.2.2-1.6.7l-.4-.4c.5-.6,1.3-.9,2.1-.8c1.2,0,2,.6,2,1.6c0,.7-.4,1.4-1,1.8l-2,2h3.2Zm4.7-1.1c0,1-.7,1.7-2.1,1.7-.8,0-1.5-.2-2.1-.8l.3-.5c.5.5,1.2.7,1.8.7c1,0,1.5-.5,1.5-1.2s-.5-1.2-1.6-1.2h-.4v-.4l1.6-2.1h-3v-.5h3.8v.4l-1.7,2.1c1.2.1,1.9.8,1.9,1.8m11.4-13.7c0,.3-151.8.5-339.1.5s-339.1-.2-339.1-.5s151.8-.5,339.1-.5l339.1.5" fill="#e0e0e0"/></g></g></g><g transform="translate(0 0.499988)"><g><g><path d="M1230.5,587.7c-.1.5-.2,1-.4,1.5-.3,1-.8,2.4-1.4,4.1-.3.9-.7,1.9-1,3s-.7,2.3-1.1,3.6l-2.5,8.8c-.4,1.6-.9,3.4-1.4,5.1-.4,1.8-.8,3.7-1.3,5.6-.9,3.9-1.6,8.1-2.5,12.5-1.6,9.6-2.8,19.2-3.7,28.9-.9,10.3-1.2,20.1-1.4,29.1c0,9,.1,17,.5,23.8.1,3.4.3,6.4.5,9.1s.3,5,.5,6.9c.1,1.8.2,3.3.3,4.4.1.5.1,1,.1,1.5-.1-.5-.2-1-.2-1.5-.1-1.1-.3-2.5-.5-4.3-.2-1.9-.5-4.2-.7-6.9l-.7-9.1c-.5-6.8-.6-14.9-.7-23.8.1-9,.4-18.8,1.3-29.2.9-9.7,2.1-19.4,3.8-29c.9-4.4,1.6-8.6,2.6-12.5.5-1.9.9-3.8,1.3-5.6l1.4-5.1c.9-3.3,1.8-6.2,2.7-8.8.4-1.3.8-2.5,1.2-3.6s.8-2.1,1.1-3c.7-1.7,1.2-3.1,1.6-4.1.2-.5.4-1,.6-1.4m-35.2,155c0-.2-.1-.3-.1-.5l-.1-1.5-.4-5.9-1.4-21.6c-1.2-18.3-2.9-43.5-5.9-71.3-1.6-13.9-3.4-27.1-5.3-39l-3-16.9c-.9-5.3-2-10.2-2.9-14.7s-1.9-8.5-2.7-12.1l-2.2-9.1-1.4-5.7-.3-1.5c0-.2-.1-.3-.1-.5.1.2.1.3.2.5l.4,1.5l1.6,5.7c.7,2.5,1.5,5.5,2.3,9l2.8,12l3,14.7c1.1,5.3,2,11,3.1,16.9c1.9,12,3.8,25.2,5.4,39.1c3.1,27.8,4.7,53.1,5.7,71.4l1,21.7.2,5.9v1.5c.2.1.2.2.1.4" fill="#263238"/><g><path d="M1155.6,507.3c-3,5.4-5.9,10.8-8.9,16.1-.2.4-.5.8-.9.8-.5,0-.8-.4-1.1-.8-7.8-12-15.7-24.1-23.5-36.1l5.4-3.1l29,23.1Z" fill="#772a15"/><path d="M1203.3,536.3c-26.8-15.8-53.5-31.6-80.3-47.4-.9-.4-1.6-1.1-2-2-.3-1.2.6-2.3,1.4-3.2c11-11.4,27.1-18,42.9-16.9s31.1,10.3,38.8,24.1s8.1,32.3-.8,45.4" fill="#ef724b"/><path d="M1134.6,473.8c.3-.1.7-.1,1.1-.1l3-.1c3.7-.1,7.5.2,11.1.9c25,4.2,45.3,22.6,52,47c1,3.6,1.7,7.3,2,11c.1.8.1,1.6.1,2.3-.1.6-.3,1.2-.6,1.8.2-1.3.3-2.7.1-4.1-.5-3.7-1.2-7.3-2.3-10.9-6.9-24.1-26.8-42.1-51.5-46.6-3.6-.7-7.3-1.1-11-1.2-2.6.1-4,.1-4,0m57.9,29.8c-1.3.8-2.6,1.4-4.1,1.8-2.6,1-6.1,2.3-10.1,3.6s-7.7,2.3-10.3,2.9c-1.4.4-2.9.7-4.4.8c1.3-.6,2.8-1.1,4.2-1.5L1178,508l10.2-3.3c1.4-.4,2.8-.8,4.3-1.1" fill="#263238"/><path d="M1179.8,469.7c.3,0,.8,4,.9,9s-.2,9-.5,9-.3-4-.5-9l.1-9M1122.3,488c1.9-.9,3.8-1.5,5.8-2.1c3.6-1.1,8.7-2.5,14.4-3.9s10.8-2.4,14.6-3.1c2-.5,4.1-.7,6.1-.8-2,.6-4,1.1-6,1.5l-14.5,3.3-14.4,3.6c-2,.8-4,1.2-6,1.5" fill="#263238"/></g><g id="eNqEZfGlXnj159_tr" transform="translate(1171.6,537.276795) rotate(0)"><g transform="translate(-1171.6,-537.276795)"><path d="M1169.4,544c-6.9-5.2-14.2-6.3-22.9-5.9s-17.1,3-25,6.5c-13.5,5.9-26.3,14.7-34.4,27s-10.9,28.8-4.8,42.2c.5,1.4,1.4,2.6,2.7,3.3c1.4.6,3.1.1,4.5-.3c15.4-5,30.9-10.1,45.1-18s27.1-18.8,34.7-33.1c2-3.4,3.2-7.1,3.6-11c.4-3.8-.7-7.9-3.5-10.7" fill="#ef724b"/><path d="M1169.6,542.4c-.4.2-.7.3-1.1.5l-3.2,1.1-2.3.8-2.7,1.1-6.6,2.7c-1.2.5-2.5,1.1-3.8,1.7l-4,2.1c-2.8,1.4-5.6,3.1-8.6,4.9-12.9,8-24.4,18.1-34,29.9l-6,7.9-2.5,3.7-2.2,3.5c-1.5,2.2-2.5,4.4-3.6,6.2l-1.4,2.6-1.1,2.2-1.5,3.1c-.2.4-.4.7-.6,1c.1-.4.2-.8.4-1.1l1.3-3.1c.3-.7.6-1.4,1-2.3l1.3-2.6l3.4-6.3c.7-1.1,1.4-2.3,2.1-3.6l2.5-3.8c1.7-2.6,3.8-5.2,5.9-8c9.6-11.9,21.1-22.1,34.2-30.1c3-1.8,5.9-3.5,8.7-4.9c1.4-.7,2.7-1.4,4.1-2l3.8-1.7c2.4-1.1,4.7-1.9,6.7-2.6l2.8-1l2.4-.7l3.3-.9c.5-.1.9-.2,1.3-.3m-54,29.2c.1.3-7.4,2.7-16.8,5.4s-17,4.7-17.1,4.5s7.4-2.7,16.8-5.4s17-4.7,17.1-4.5" fill="#263238"/><path d="M1114.9,608.7c-.3-1.7-.4-3.5-.4-5.2-.1-3.2-.1-7.7,0-12.6s.4-9.4.7-12.6c0-1.8.3-3.5.7-5.2.2,1.7.2,3.5,0,5.2l-.4,12.6-.3,12.6c.1,1.7,0,3.5-.3,5.2m31.8-16.2c-.3,0-1.1-9.1-1.9-20.3s-1.2-20.4-.9-20.4s1.1,9.1,1.9,20.3s1.1,20.4.9,20.4" fill="#263238"/><path d="M1107.1,551c1.8-.2,3.6-.3,5.4-.2c3.3,0,7.9.1,13,.3l13,.6c1.8,0,3.6.2,5.4.5-1.8.2-3.6.3-5.4.2-3.3,0-7.9-.1-13-.3l-13-.6c-1.8,0-3.6-.2-5.4-.5" fill="#263238"/></g></g><g transform="translate(0 0.000001)"><path d="M1229.5,590.3l7.3-.6c5.1-.4,10.1-2,14.6-4.5c2.2-1.3,4.5-2.4,6.8-3.4c9-3.6,19-3,28.6-3.4c15.8-.8,31.3-4.8,45.5-11.6.8-.4,1.5-1,2-1.8c1.5-2.7-1.3-5.1-3.7-6.6-12.2-7.5-24.6-15.1-38.5-18.9s-29.6-3.1-41.4,5c-13.8,9.5-18.8,29.1-21.2,45.8" fill="#ef724b"/><g><path d="M1334.5,564c-.4-.2-.8-.3-1.2-.6l-3.4-1.8c-3-1.6-7.3-3.9-12.7-6.5-6.3-3.1-12.9-5.6-19.6-7.6-8.3-2.4-16.9-3.1-25.5-2.1-9,1.2-17.3,4.7-23.2,10s-9.5,11.6-12.1,17c-2,4.3-3.7,8.7-5.3,13.2l-1.3,3.7c-.1.4-.3.9-.5,1.3.1-.4.2-.9.3-1.3l1.1-3.7c1.4-4.6,3.1-9,5-13.4c2.5-5.5,6.1-11.9,12.1-17.4c6-5.4,14.5-9.1,23.7-10.3c8.7-1,17.5-.3,25.8,2.2c6.8,2,13.4,4.6,19.7,7.8c5.4,2.7,9.6,5.1,12.6,6.8l3.4,2c.4.2.8.4,1.1.7" fill="#263238"/><path d="M1317.1,573.4c-.1.2-9.6-5.9-21.2-13.7s-20.8-14.3-20.6-14.5s9.6,5.9,21.2,13.7s20.8,14.2,20.6,14.5M1307,544.7c0,.2-3,.9-6.9,1.2s-7,.1-7-.1s3.1-.4,7-.7l6.9-.4m-41.5-5.4c.2.1-1.2,2.3-3.1,4.9s-3.7,4.6-3.9,4.5s1.2-2.3,3.1-4.9s3.7-4.6,3.9-4.5m8.5,39.6c-1.6-.7-3.1-1.5-4.6-2.5-2.7-1.7-6.4-4.1-10.4-7s-7.4-5.6-9.9-7.6c-1.4-1-2.7-2.1-3.9-3.4c1.5.8,3,1.8,4.3,2.8l10.1,7.3c3.4,2.4,6.8,4.8,10.2,7.2c1.5,1.1,2.9,2.1,4.2,3.2" fill="#263238"/></g></g><g id="eNqEZfGlXnj169_tr" transform="translate(1200,556.183418) rotate(0)"><g transform="translate(-1200,-556.183417)"><path d="M1202.8,557.7c-.6-6.3-7-11-13.3-11.1s-12.2,3.7-16.1,8.7-6,11.1-7.7,17.2c-4.3,14.8-6.6,30.4-4.8,45.7s8,30.4,19,41.2c1.8,1.8,4.1,3.5,6.6,3c1.3-.4,2.5-1.1,3.5-2.1c21.8-19.9,33.9-48.3,33.2-77.8-.2-5.8-.9-11.9-4.2-16.7s-10.7-10-16.2-8.1" fill="#ef724b"/><path d="M1187.6,609c-.9,1.3-2,2.5-3.2,3.5-2.1,2.1-5,4.9-8.4,7.8s-6.5,5.5-8.8,7.3c-1.2,1-2.5,2-3.9,2.7c1.1-1.2,2.2-2.3,3.5-3.2l8.6-7.5l8.6-7.6c1.1-1.1,2.3-2.1,3.6-3m25.5,20.5c-1.3-1.5-2.4-3.1-3.4-4.7l-7.9-11.6-8.1-11.5c-1.2-1.5-2.3-3.1-3.2-4.8c1.4,1.4,2.7,2.8,3.8,4.4c2.2,2.8,5.2,6.8,8.3,11.3s5.8,8.7,7.7,11.8c1,1.6,2,3.3,2.8,5.1m-13.4-64.4c.1.2-8.3,5.9-18.9,12.7s-19.2,12.1-19.4,11.9s8.3-5.9,18.9-12.7s19.3-12.1,19.4-11.9m23.8,25.7c-.2.2-5.9-5.1-12.8-11.8s-12.3-12.3-12.1-12.5s5.9,5.1,12.8,11.8s12.3,12.3,12.1,12.5" fill="#263238"/><path d="M1183.4,661.6c-.1-.4-.1-.7-.1-1.1l-.1-3.1c-.1-2.7-.2-6.6,0-11.4.1-4.8.4-10.5,1-16.8s1.5-13.3,2.8-20.5s2.9-14,4.6-20.2c1.7-6.1,3.4-11.6,5-16.1s3-8.2,4.1-10.7l1.2-2.8c.1-.3.3-.7.5-1-.1.4-.2.7-.3,1l-1.1,2.9c-.9,2.5-2.2,6.2-3.8,10.7-1.5,4.6-3.2,10-4.8,16.2-1.6,6.1-3.2,12.9-4.5,20.1s-2.2,14.1-2.9,20.4c-.6,6.3-1,12-1.2,16.8s-.3,8.7-.3,11.3v3.1c0,.5,0,.9-.1,1.2" fill="#263238"/></g></g><g id="eNqEZfGlXnj173_tr" transform="translate(1223.211548,728.560865) rotate(0)"><g transform="translate(-1223.211548,-728.560865)"><path d="M1203.9,734.9c-.3,0-.6-44.4-.8-99.3l.2-99.3c.3,0,.6,44.4.8,99.3l-.2,99.3M1234,623.6c-.1.4-.2.7-.4,1l-1.2,2.9c-.3.6-.6,1.3-.9,2.1l-.9,2.5-1,2.9c-.4,1-.6,2.1-1,3.3-1.6,5.4-2.9,11-3.8,16.5-1.1,6.9-1.8,13.8-2.1,20.7-.5,12.6-.1,25.2,1.1,37.8l1.2,11.4.3,3.1c.1.4.1.7.1,1.1-.1-.3-.2-.7-.2-1.1l-.5-3.1c-.4-2.7-1-6.6-1.5-11.4-1.4-12.6-1.9-25.3-1.4-37.9.3-7,1.1-13.9,2.2-20.8c1-5.6,2.3-11.2,4-16.6.4-1.2.7-2.3,1.1-3.3l1.1-2.9l1-2.5c.3-.8.7-1.4,1-2l1.4-2.8c0-.2.1-.6.4-.9" fill="#263238"/><path d="M1240.2,621.1c-6.9-1.8-15.2,4.9-16.6,11.9s1.2,14.2,4.3,20.6c6.8,14.3,16.2,27.5,28.6,37.4s27.9,16.2,43.7,16.1c-2.9-13.6.8-27.8-.9-41.6-3-25-22.8-44.7-47.9-47.4-4.3-.4-9.4-1.1-11.2,3" fill="#ef724b"/><path d="M1300.2,707.1c-.3-.1-.7-.3-1-.5-.9-.5-1.8-1.1-2.6-1.7-2.2-1.6-4.7-4.8-6.8-9.1-1.1-2.1-2.3-4.5-3.5-7l-3.7-8.2c-1.3-3-2.9-6-4.6-8.8-1.9-3-4-5.9-6.3-8.6-4.7-5.6-9.8-10.4-14.2-15-4-4-7.6-8.4-10.8-13-2.2-3.1-3.9-6.5-5.3-10.1-.4-1.3-.8-2.3-.9-3-.1-.3-.2-.7-.2-1.1.1,0,.5,1.4,1.5,3.9c1.5,3.5,3.3,6.8,5.5,9.9c3.3,4.5,6.9,8.8,10.9,12.8c4.4,4.5,9.5,9.3,14.3,15c2.3,2.7,4.5,5.6,6.4,8.7c1.7,2.9,3.2,5.8,4.6,8.9l3.6,8.3c1.2,2.6,2.4,4.9,3.4,7.1c1.5,3.5,3.7,6.6,6.5,9.2c1.9,1.6,3.3,2.2,3.2,2.3m-35.7-11.2c0-1.6.2-3.1.6-4.7.5-2.8,1.4-6.8,2.6-11s2.5-8.1,3.5-10.8c.5-1.5,1.1-2.9,1.9-4.3-.3,1.5-.7,3.1-1.2,4.5l-3.2,10.8-2.9,10.9c-.3,1.6-.8,3.1-1.3,4.6" fill="#263238"/><path d="M1298.9,662.5c-1.7-.2-3.3-.6-4.9-1.1l-11.7-2.9c-4.6-1-8.8-1.8-11.8-2.4s-4.9-.9-4.9-1.1c1.7,0,3.3.1,5,.4c3.1.4,7.3,1.1,11.9,2.1s8.7,2.2,11.7,3.2c1.7.5,3.2,1.1,4.7,1.8m-60.1,9.7c.1-1.8.3-3.6.7-5.4.6-3.3,1.6-7.8,2.9-12.8s2.7-9.4,3.8-12.6c.5-1.7,1.2-3.4,2-5.1-.3,1.8-.7,3.5-1.3,5.3l-3.5,12.6-3.1,12.7c-.4,1.8-.9,3.6-1.5,5.3m44.2-38.7c0,.3-8.7-.4-19.3-1.6s-19.2-2.3-19.2-2.5s8.7.4,19.3,1.6s19.3,2.2,19.2,2.5" fill="#263238"/></g></g><g><path d="M1141.4,719.7h135.1v18.6h-135.1v-18.6Z" fill="#455a64"/><path d="M1276.7,738.5h-135.6v-19h135.6v19Zm-135.1-.5h134.6v-18.1h-134.6v18.1Z" fill="#455a64"/><path d="M1153.9,732.1l19.4,95.9h71.9l18.8-89.8-110.1-6.1Z" fill="#455a64"/><path d="M1153.9,818.9l10.4,14.3h87.5l12.4-14.3h-110.3Z" fill="#455a64"/></g><path d="M1276.7,738.2c0,.3-30.3.5-67.8.5-37.4,0-67.8-.2-67.8-.5s30.3-.5,67.8-.5l67.8.5" fill="#263238"/><g><path d="M1255.6,777.2c0,.3-20.4.5-45.7.5s-45.7-.2-45.7-.5s20.4-.5,45.7-.5l45.7.5m-.8,5.6c0,.3-20.1.5-44.9.5s-44.9-.2-44.9-.5s20.1-.5,44.9-.5l44.9.5m1.6-10.2c0,.3-21.1.5-47.2.5s-47.2-.2-47.2-.5s21.1-.5,47.2-.5l47.2.5" fill="#fafafa"/></g></g></g></g><g id="eNqEZfGlXnj186_ts" transform="translate(915.449982,241.400002) scale(0.5,0.5)"><g id="eNqEZfGlXnj186" transform="translate(-915.449982,-241.400002)" opacity="0"><g><path d="M996.8,270.9h-162.7c-3.8,0-6.9-3.1-6.9-6.9v0-45.2c0-3.8,3.1-6.9,6.9-6.9v0h162.7c3.8,0,6.9,3.1,6.9,6.9v0v45.2c0,3.8-3.1,6.9-6.9,6.9v0" fill="#6e6e6e"/><g><g><g clip-path="url(#eNqEZfGlXnj193)"><path d="M893.1,266.6c-.3,0-.5-11.6-.5-25.8c0-14.3.2-25.8.5-25.8s.5,11.6.5,25.8-.3,25.8-.5,25.8" fill="#fff"/><clipPath id="eNqEZfGlXnj193"><use width="1" height="51.700001" xlink:href="#eNqEZfGlXnj19" transform="translate(892.6 214.9)"/></clipPath></g></g></g><path d="M903.5,226.3h2.7c1.8-.1,3.4,1.2,3.5,3.1c0,.7-.1,1.3-.5,1.9-.6,1-1.8,1.7-3,1.6h-2.7v-6.6Zm2.6,6c1.5.1,2.8-1,2.9-2.5c0-.5-.1-1.1-.4-1.6-.5-.9-1.5-1.3-2.5-1.3h-1.9v5.3h1.9v.1Z" fill="#fff"/><path d="M910.6,230.4c0-1.4,1.1-2.5,2.5-2.5s2.5,1.1,2.5,2.5v0c0,1.4-1.1,2.5-2.5,2.5-1.3,0-2.5-1-2.5-2.3c0-.1,0-.1,0-.2m4.3,0c0-1-.9-1.8-1.9-1.7-1,0-1.8.9-1.8,1.9s.8,1.8,1.8,1.8s1.8-.8,1.8-1.8c.1-.1.1-.1.1-.2" fill="#fff"/><path d="M924,227.9l-1.9,4.9h-.6l-1.5-4-1.6,4h-.6l-1.9-4.9h.6l1.5,4.2l1.6-4.2h.6l1.6,4.2l1.6-4.2h.6Zm5.5,2.1v2.9h-.7v-2.8c.1-.4-.1-.8-.4-1.1s-.7-.5-1.1-.4c-.9-.1-1.7.6-1.7,1.5c0,.1,0,.2,0,.3v2.6h-.6v-4.9h.6v.9c.4-.6,1.1-1,1.9-.9c1-.1,1.9.7,2,1.7c0,0,0,.1,0,.2m1.8-4.1h.7v6.9h-.7v-6.9Zm2.1,4.5c0-1.4,1.1-2.5,2.5-2.5s2.5,1.1,2.5,2.5-1.1,2.5-2.5,2.5c-1.3,0-2.5-1-2.5-2.3c0-.1,0-.1,0-.2m4.3,0c0-1-.9-1.8-1.9-1.7-1,0-1.8.9-1.8,1.9s.8,1.8,1.8,1.8s1.8-.8,1.8-1.8c.1-.1.1-.1.1-.2" fill="#fff"/><path d="M943.4,229.8v3h-.6v-.8c-.4.6-1,.9-1.7.8-1.1,0-1.8-.6-1.8-1.4s.5-1.4,1.9-1.4h1.6v-.3c0-.8-.5-1.3-1.4-1.3-.6,0-1.2.2-1.6.6l-.3-.5c.6-.4,1.3-.7,2-.7.5-.1,1.1.1,1.5.5.3.4.5,1,.4,1.5m-.7,1.6v-.8h-1.5c-1,0-1.3.4-1.3.9c0,.6.5.9,1.2.9.8,0,1.4-.4,1.6-1m7-5.5v6.9h-.6v-1c-.4.7-1.1,1-1.9,1-1.4,0-2.5-1.1-2.5-2.5s1.1-2.5,2.5-2.5c.8,0,1.5.3,1.9,1v-3l.6.1Zm-.6,4.5c0-1-.9-1.8-1.9-1.7-1,0-1.8.9-1.8,1.9s.8,1.8,1.8,1.8s1.8-.8,1.8-1.8c.1-.1.1-.2.1-.2m-34.4,21.4c0,2.8-2.3,4.6-5.2,4.6-3.9,0-6.2-2.5-6.2-7.1c0-4.9,2.9-7.6,7-7.6c1.3,0,2.6.3,3.8.9l-1,2c-.8-.5-1.8-.7-2.7-.7-2.7,0-4.4,1.7-4.4,4.9v0c1-1,2.4-1.6,3.8-1.5c2.8.1,4.9,1.8,4.9,4.5m-2.5.1c0-1.5-1.1-2.4-2.9-2.4-1.7,0-2.9,1-2.9,2.5c0,1.4,1.1,2.4,3,2.4c1.6-.1,2.7-1,2.8-2.5m4,2.8c0-.9.8-1.7,1.7-1.7s1.7.8,1.7,1.7-.8,1.7-1.7,1.7-1.7-.8-1.7-1.7m15.5-2.9c0,2.5-1.8,4.6-5.7,4.6-1.9,0-3.8-.5-5.4-1.7l1.1-2.1c1.2.9,2.7,1.4,4.2,1.4c1.9,0,3-.8,3-2.2s-.9-2.2-3.8-2.2h-3.5l.7-7.8h8.4v2.2h-6.2l-.3,3.3h1.4c4.4.2,6.1,2,6.1,4.5m1.5-2.7c0-4.7,2.6-7.4,6-7.4s6,2.7,6,7.4-2.6,7.4-6,7.4c-3.4-.1-6-2.7-6-7.4m9.3,0c0-3.5-1.3-5.1-3.3-5.1-1.9,0-3.3,1.6-3.3,5.1s1.3,5.1,3.3,5.1c2-.1,3.3-1.7,3.3-5.1m4.5,0c0-4.7,2.6-7.4,6-7.4s6,2.7,6,7.4-2.6,7.4-6,7.4c-3.4-.1-6-2.7-6-7.4m9.3,0c0-3.5-1.3-5.1-3.3-5.1-1.9,0-3.3,1.6-3.3,5.1s1.3,5.1,3.3,5.1c1.9-.1,3.3-1.7,3.3-5.1m-93.9,8.1c-7.5,0-13.5-6.1-13.5-13.5c0-7.5,6.1-13.5,13.5-13.5c7.5,0,13.5,6.1,13.5,13.5s-6,13.5-13.5,13.5m0-25.2c-6.4,0-11.6,5.2-11.6,11.6s5.2,11.6,11.6,11.6s11.6-5.2,11.6-11.6v0c.1-6.3-5.1-11.5-11.6-11.6m0,19.9c-.3,0-.5-.1-.7-.3l-5.7-6.9c-.3-.4-.3-1,.1-1.3s1-.3,1.3.1l5,6l4.5-6.3c.3-.4.9-.5,1.3-.2s.5.9.2,1.3l-5.2,7.3c-.2.2-.5.3-.8.3v0" fill="#fff"/><path d="M862.3,251.7c-.5,0-.9-.4-.9-.9v-13.3c0-.5.4-1,1-1s1,.4,1,1v13.3c-.2.4-.6.9-1.1.9" fill="#fff"/></g></g></g><g id="eNqEZfGlXnj200_ts" transform="translate(706.799988,241.349998) scale(0.5,0.5)"><g id="eNqEZfGlXnj200" transform="translate(-706.799988,-241.349998)" opacity="0"><g><path d="M789.8,270.9h-166c-2.9,0-5.3-2.4-5.3-5.3v-48.5c0-2.9,2.4-5.3,5.3-5.3h166c2.9,0,5.3,2.4,5.3,5.3v48.5c0,2.9-2.4,5.3-5.3,5.3" fill="#dda494"/><path d="M700,228.6c0,1.4-1,2.2-2.7,2.2h-1.8v2.1h-.7v-6.5h2.5c1.6-.1,2.7.8,2.7,2.2m-.7,0c0-1-.7-1.6-2-1.6h-1.7v3.3h1.7c1.3-.1,2-.7,2-1.7m6.3,2h-4.1c.1,1,.9,1.8,1.9,1.7v0c.6,0,1.1-.2,1.5-.6l.4.4c-1,1-2.6,1.1-3.7.1-.5-.5-.8-1.1-.8-1.8-.1-1.3.9-2.4,2.2-2.5.1,0,.1,0,.2,0c.7,0,1.3.3,1.7.7.5.5.7,1.1.6,1.8l.1.2m-4.1-.5h3.5c-.1-.9-.8-1.6-1.7-1.6s-1.8.7-1.8,1.6m7.9-2.2v.6c-.1,0-.1,0-.2,0-.9,0-1.6.6-1.7,1.5c0,.1,0,.2,0,.3v2.5h-.7v-4.9h.6v1c.5-.7,1.3-1.1,2-1m2-.5v.6h1.5v.6h-1.5v4.4h-.7v-4.4h-.9v-.6h.9v-.6c0-.4.1-.8.4-1.1s.7-.4,1.1-.4.7.1,1,.3l-.2.5c-.2-.2-.5-.3-.7-.2-.6-.1-.9.3-.9.9m1.9,3c0-1.4,1.1-2.5,2.5-2.5s2.5,1.1,2.5,2.5-1.1,2.5-2.5,2.5c-.7,0-1.3-.2-1.8-.7s-.7-1.1-.7-1.8m4.3,0c0-1-.9-1.8-1.9-1.7-1,0-1.8.9-1.8,1.9s.8,1.8,1.8,1.8s1.8-.8,1.8-1.8c.1-.1.1-.1.1-.2m4.5-2.5v.6c-.1,0-.1,0-.2,0-.9,0-1.6.6-1.7,1.5c0,.1,0,.2,0,.3v2.5h-.7v-4.9h.6v1c.5-.7,1.3-1.1,2-1m9.3,2.1v2.9h-.7v-2.8c0-1-.5-1.6-1.4-1.6s-1.6.6-1.7,1.5c0,.1,0,.2,0,.3v2.6h-.6v-2.8c0-1-.5-1.6-1.4-1.6-.5,0-.9.2-1.2.5s-.5.8-.4,1.3v2.6h-.7v-4.9h.6v.9c.4-.6,1.1-1,1.8-.9.7-.1,1.4.4,1.7,1c.4-.7,1.2-1.1,1.9-1c.6,0,1.1.2,1.5.6s.7.9.6,1.4m5.6-.2v3h-.6v-.8c-.4.6-1,.9-1.7.8-1.1,0-1.8-.6-1.8-1.4s.5-1.4,1.9-1.4h1.6v-.3c0-.8-.5-1.3-1.4-1.3-.6,0-1.2.2-1.6.6l-.3-.5c.6-.4,1.3-.7,2-.7.5-.1,1.1.1,1.5.5.2.4.4,1,.4,1.5m-.7,1.6v-.8h-1.5c-1,0-1.3.4-1.3.9c0,.6.5.9,1.2.9s1.4-.4,1.6-1m7-1.4v2.9h-.7v-2.8c.1-.4-.1-.8-.4-1.1s-.7-.5-1.1-.4c-.9-.1-1.7.6-1.7,1.5c0,.1,0,.2,0,.3v2.6h-.7v-4.9h.6v.9c.4-.6,1.1-1,1.9-.9.6,0,1.1.2,1.5.6.5.2.7.7.6,1.3m1.3.4c0-1.3,1-2.5,2.3-2.5.1,0,.1,0,.2,0c.8,0,1.5.3,1.9,1l-.5.3c-.3-.5-.9-.7-1.4-.7-1,0-1.9.9-1.9,1.9s.8,1.9,1.9,1.9c.6,0,1.1-.3,1.4-.7l.5.3c-.4.6-1.2,1-1.9,1-1.3.1-2.5-1-2.5-2.3c0-.1,0-.1,0-.2m10,.2h-4.1c.1,1,.9,1.8,1.9,1.7v0c.6,0,1.1-.2,1.5-.6l.4.4c-1,1-2.6,1.1-3.7.1-.5-.5-.8-1.1-.8-1.8-.1-1.3.9-2.5,2.2-2.6s2.5.9,2.6,2.2c0,.1,0,.2,0,.4v.2m-4.1-.5h3.5c-.1-.9-.8-1.6-1.7-1.6s-1.8.7-1.8,1.6m-44.2,22c0,2.7-2.3,4.3-5.9,4.3s-5.8-1.7-5.8-4.3c0-1.5.9-2.9,2.3-3.4-1.1-.6-1.8-1.7-1.8-3c0-2.5,2.1-4,5.3-4s5.4,1.5,5.4,4c0,1.3-.7,2.4-1.8,3c1.4.5,2.3,1.9,2.3,3.4m-2.7-.1c0-1.4-1.2-2.3-3.2-2.3s-3.2.9-3.2,2.3c0,1.5,1.2,2.3,3.2,2.3s3.2-.8,3.2-2.3m-5.9-6.2c0,1.2,1,2,2.7,2s2.7-.8,2.7-2c0-1.3-1.1-2-2.7-2s-2.7.7-2.7,2m10.4,8.9c0-.9.7-1.7,1.6-1.7.3,0,.6.1.9.2.5.3.8.9.8,1.5c0,.9-.7,1.7-1.6,1.7-.3,0-.6-.1-.9-.2-.5-.3-.8-.9-.8-1.5m15.5-2.9c0,2.5-1.8,4.6-5.7,4.6-1.9,0-3.8-.5-5.4-1.7l1.1-2.1c1.2.9,2.7,1.4,4.2,1.4c1.9,0,3-.8,3-2.2s-.9-2.2-3.8-2.2h-3.5l.7-7.8h8.4v2.2h-6.2l-.3,3.3h1.4c4.4.2,6.1,2,6.1,4.5" fill="#fff"/><path d="M725.1,249.1c0-4.7,2.6-7.4,6-7.4s6,2.7,6,7.4-2.6,7.4-6,7.4c-3.4-.1-6-2.7-6-7.4m9.3,0c0-3.5-1.3-5.1-3.3-5.1-1.9,0-3.3,1.6-3.3,5.1s1.3,5.1,3.3,5.1c2-.1,3.3-1.7,3.3-5.1" fill="#fff"/><path d="M738.9,249.1c0-4.7,2.6-7.4,6-7.4s6,2.7,6,7.4-2.6,7.4-6,7.4c-3.4-.1-6-2.7-6-7.4m9.3,0c0-3.5-1.3-5.1-3.3-5.1-1.9,0-3.3,1.6-3.3,5.1s1.3,5.1,3.3,5.1c1.9-.1,3.3-1.7,3.3-5.1M647,253.5c-1.2,0-2.2-1-2.2-2.3c0-.1,0-.2,0-.3l.9-6.8c0-.1,0-.2-.1-.3l-5-4.6c-.9-.8-1-2.3-.1-3.2.3-.4.8-.6,1.3-.7l6.7-1.2c.1,0,.2-.1.3-.2l2.8-6.2c.4-.8,1.1-1.3,2-1.3s1.7.4,2.1,1.2l3.2,6c.1.1.2.2.3.2l6.8.7c.8.1,1.6.7,1.9,1.5s.1,1.7-.5,2.3l-4.7,4.9c-.1.1-.1.2-.1.3l1.4,6.7c.2.8-.1,1.7-.8,2.2s-1.6.6-2.4.3l-6.1-3c-.1,0-.2,0-.3,0l-5.9,3.4c-.7.3-1.1.4-1.5.4m6.5-25.2v0c-.1,0-.3.1-.3.2l-2.8,6.2c-.3.7-.9,1.2-1.6,1.3l-6.7,1.2c-.2,0-.3.2-.3.4c0,.1.1.1.1.2l5,4.6c.5.5.8,1.2.7,2l-.9,6.8c0,.2.1.4.3.4.1,0,.2,0,.2,0l5.9-3.4c.6-.4,1.4-.4,2.1-.1l6.2,3c.2.1.4,0,.5-.2c0-.1,0-.1,0-.2l-1.4-6.7c-.2-.7.1-1.5.6-2l4.7-4.9c.1-.1.1-.4,0-.5s-.1-.1-.2-.1l-6.8-.7c-.7-.1-1.4-.5-1.7-1.2l-3.2-6c-.2-.2-.3-.3-.4-.3" fill="#fff"/></g></g></g><g id="eNqEZfGlXnj206_ts" transform="translate(498.249969,241.400002) scale(0.5,0.5)"><g id="eNqEZfGlXnj206" transform="translate(-498.249969,-241.400002)" opacity="0"><g><path d="M577.7,270.9h-158.9c-4.9,0-8.8-3.9-8.8-8.8v-41.4c0-4.9,3.9-8.8,8.8-8.8h158.9c4.9,0,8.8,3.9,8.8,8.8v41.4c0,4.8-4,8.8-8.8,8.8" fill="#ef724b"/><path d="M447.9,253.2l-4.9-8.4-2,2.3c-.7.8-1.9.9-2.7.2-.4-.3-.6-.8-.7-1.3l-1.2-15.4c-.1-1.1.7-2,1.8-2.1.4,0,.8.1,1.2.3l12.8,7.9c.9.6,1.2,1.7.6,2.6-.2.4-.6.7-1.1.8l-2.7.8l5.9,7.9-7,4.4Zm-4.7-11.6l5.3,9l3.5-2.2-6.2-8.4l5.3-1.6-12.8-7.9-1,.1.9-.1l1.2,15.4l3.8-4.3Z" fill="#fff"/><g opacity="0.4"><g><g><g clip-path="url(#eNqEZfGlXnj215)"><path d="M475.8,266.6c-.3,0-.5-11.6-.5-25.8c0-14.3.2-25.8.5-25.8s.5,11.6.5,25.8-.2,25.8-.5,25.8" fill="#fff"/><clipPath id="eNqEZfGlXnj215"><use width="1" height="51.700001" xlink:href="#eNqEZfGlXnj20" transform="translate(475.3 214.9)"/></clipPath></g></g></g></g><path d="M490.6,233.8v14.3h-2.7v-12.1h-3v-2.2h5.7Z" fill="#fff"/><path d="M493.4,240.9c0-4.7,2.6-7.4,6-7.4s6,2.7,6,7.4-2.6,7.4-6,7.4-6-2.7-6-7.4m9.3,0c0-3.5-1.4-5.1-3.3-5.1s-3.3,1.6-3.3,5.1s1.4,5.1,3.3,5.1s3.3-1.6,3.3-5.1" fill="#fff"/><path d="M506.8,246.5c0-.9.7-1.7,1.6-1.7.3,0,.6.1.9.2.5.3.8.9.8,1.5c0,.9-.7,1.7-1.6,1.7-.3,0-.6-.1-.9-.2-.5-.3-.8-.9-.8-1.5" fill="#fff"/><path d="M522.3,243.7c0,2.5-1.8,4.6-5.7,4.6-1.9,0-3.8-.5-5.4-1.7l1.1-2.1c1.2.9,2.7,1.4,4.2,1.4c1.9,0,3-.8,3-2.2s-.9-2.2-3.8-2.2h-3.5l.7-7.8h8.4v2.2h-6.2l-.3,3.3h1.4c4.4.1,6.1,1.9,6.1,4.5m1.5-2.8c0-4.7,2.6-7.4,6-7.4s6,2.7,6,7.4-2.6,7.4-6,7.4-6-2.7-6-7.4m9.3,0c0-3.5-1.3-5.1-3.3-5.1-1.9,0-3.3,1.6-3.3,5.1s1.4,5.1,3.3,5.1c2,0,3.3-1.6,3.3-5.1m4.5,0c0-4.7,2.6-7.4,6-7.4s6,2.7,6,7.4-2.6,7.4-6,7.4-6-2.7-6-7.4m9.3,0c0-3.5-1.3-5.1-3.3-5.1-1.9,0-3.3,1.6-3.3,5.1s1.4,5.1,3.3,5.1s3.3-1.6,3.3-5.1" fill="#fff"/></g></g></g><g id="eNqEZfGlXnj221_to" transform="translate(1131.5,343.200012)"><g transform="translate(-1131.5,-343.200012)"><g><g><path d="M957.2,262.8h348.3v161h-348.3v-161Z" fill="#fafafa"/><g><path d="M1305.6,423.8v-2.9-8.4l-.1-32.1-.2-117.7.4.4-348.3.1v0l.5-.5v161l-.5-.5l250.1.2l72.2.1l19.3.1c2.2,0,3.9,0,5,0l1.6.2h-1.6-4.9l-19.2.1-72.1.1-250.4.2h-.5v-.5-161-.5h.5l348.3.1h.4v.4l-.2,117.9-.1,32v8.3l-.2,2.9" fill="none"/><path d="M981.7,374v5.1h-.5v-4.6h-1.2v-.5h1.7Z" fill="#263238"/><path d="M983,376.5c0-1.6.8-2.6,2-2.6s2,1,2,2.6-.9,2.6-2,2.6-2-.9-2-2.6" fill="none"/><path d="M986.5,376.5c0-1.4-.6-2.1-1.5-2.1s-1.5.7-1.5,2.1.6,2.1,1.5,2.1s1.5-.7,1.5-2.1" fill="#263238"/><path d="M983.8,347v.5h-3.6v-.4l2.1-2.1c.6-.6.7-.9.7-1.3c0-.6-.4-1-1.2-1-.5,0-1,.2-1.4.6l-.4-.3c.5-.5,1.1-.8,1.8-.7c1,0,1.7.5,1.7,1.4c0,.6-.3,1.2-.8,1.6L981,347h2.8Z" fill="none"/><path d="M984.4,344.9c0-1.6.8-2.6,2-2.6s2,1,2,2.6-.9,2.6-2,2.6-2-.9-2-2.6" fill="none"/><path d="M988,344.9c0-1.4-.6-2.1-1.5-2.1s-1.5.7-1.5,2.1.6,2.1,1.5,2.1s1.5-.7,1.5-2.1" fill="none"/><path d="M983.7,314.4c0,.9-.6,1.5-1.8,1.5-.7,0-1.3-.2-1.8-.7l.3-.4c.4.4,1,.6,1.6.6.8,0,1.3-.4,1.3-1s-.4-1-1.4-1h-.4v-.4l1.4-1.8h-2.6v-.5h3.3v.4l-1.4,1.8c1,.1,1.5.7,1.5,1.5" fill="none"/><path d="M984.4,313.3c0-1.6.8-2.6,2-2.6s2,1,2,2.6-.9,2.6-2,2.6-2-1-2-2.6" fill="none"/><path d="M988,313.3c0-1.4-.6-2.1-1.5-2.1s-1.5.7-1.5,2.1.6,2.1,1.5,2.1s1.5-.7,1.5-2.1" fill="none"/><path d="M1004.2,393.2c0-1.6.8-2.6,2-2.6s2,1,2,2.6-.9,2.6-2,2.6-2-1-2-2.6" fill="none"/><path d="M1007.7,393.2c0-1.4-.6-2.1-1.5-2.1s-1.5.7-1.5,2.1.6,2.1,1.5,2.1s1.5-.7,1.5-2.1" fill="none"/><polygon points="1041.8,390.7 1041.8,395.8 1041.3,395.8 1041.3,391.1 1040.1,391.1 1040.1,390.7" fill="none"/><path d="M1081.5,395.3v.5h-3.6v-.4l2.1-2.1c.6-.6.7-.9.7-1.3c0-.6-.4-1-1.2-1-.5,0-1,.2-1.4.6l-.4-.3c.5-.5,1.1-.8,1.8-.7c1,0,1.7.5,1.7,1.4c0,.6-.3,1.2-.8,1.6l-1.7,1.7h2.8Z" fill="none"/><path d="M1119,394.3c0,.9-.6,1.5-1.8,1.5-.7,0-1.3-.2-1.8-.7l.3-.4c.4.4,1,.6,1.6.6.8,0,1.3-.4,1.3-1s-.4-1-1.4-1h-.4v-.4l1.4-1.8h-2.6v-.5h3.3v.4l-1.4,1.8c.9.1,1.5.7,1.5,1.5" fill="none"/><polygon points="1157.5,394.4 1156.5,394.4 1156.5,395.8 1156,395.8 1156,394.4 1153.1,394.4 1153.1,394.1 1155.8,390.7 1156.4,390.7 1153.8,394 1156,394 1156,392.8 1156.5,392.8 1156.5,394 1157.5,394" fill="none"/><path d="M1194.3,394.3c0,.9-.6,1.5-1.8,1.5-.7,0-1.3-.2-1.8-.7l.3-.4c.4.4,1,.6,1.6.6.9,0,1.3-.4,1.3-1c0-.7-.4-1.1-1.7-1.1h-1.1l.3-2.6h2.8v.5h-2.3l-.2,1.6h.7c1.3.1,1.9.7,1.9,1.6" fill="none"/><path d="M1232.2,394.3c0,.4-.2.9-.5,1.2s-.8.4-1.2.4c-1.3,0-2.1-.9-2.1-2.5c0-1.7.9-2.6,2.3-2.6.4,0,.8.1,1.2.3l-.2.4c-.3-.2-.6-.3-1-.2-1.1,0-1.8.7-1.8,2.1c0,.1,0,.3,0,.4.3-.6.9-.9,1.6-.9.4,0,.9.1,1.2.4.4.1.5.5.5,1" fill="none"/><path d="M1231.7,394.3c0-.7-.5-1.1-1.3-1.1-.3,0-.6.1-.9.3s-.4.5-.4.8c0,.6.5,1.1,1.3,1.1.6.1,1.2-.4,1.2-1c.1,0,.1-.1.1-.1" fill="none"/><path d="M1269.6,390.7v.4l-2.1,4.7h-.6l2.1-4.6h-2.6v1h-.5v-1.4h3.7v-.1Z" fill="#263238"/><path d="M1269.9,376.8c0,.3-58.8.5-131.4.5s-131.4-.2-131.4-.5s58.8-.5,131.4-.5l131.4.5" fill="#263238"/><path d="M1269.9,345c0,.3-58.8.5-131.4.5s-131.4-.2-131.4-.5s58.8-.5,131.4-.5l131.4.5" fill="#263238"/><path d="M1269.9,313.2c0,.3-58.8.5-131.4.5s-131.4-.2-131.4-.5s58.8-.5,131.4-.5l131.4.5" fill="#263238"/></g><g><path d="M1007,376.3c0,.9-.8,1.7-1.7,1.7-.4,0-.9-.2-1.2-.5-.7-.7-.7-1.7,0-2.4.3-.3.7-.5,1.2-.5.4,0,.9.2,1.2.5s.5.8.5,1.2" fill="#e8505b"/><path d="M1044.8,376.3c0,.9-.8,1.7-1.7,1.7s-1.7-.8-1.7-1.7.8-1.7,1.7-1.7v0c.4,0,.9.2,1.2.5s.5.8.5,1.2" fill="none"/><path d="M1082.6,376.3c0,.9-.8,1.7-1.7,1.7s-1.7-.8-1.7-1.7.8-1.7,1.7-1.7v0c1,0,1.7.8,1.7,1.7" fill="none"/><path d="M1120.4,376.3c0,.9-.8,1.7-1.7,1.7s-1.7-.8-1.7-1.7.8-1.7,1.7-1.7v0c.4,0,.9.2,1.2.5s.5.8.5,1.2" fill="none"/><path d="M1158.2,376.3c0,.9-.8,1.7-1.7,1.7s-1.7-.8-1.7-1.7.8-1.7,1.7-1.7v0c.4,0,.9.2,1.2.5s.5.8.5,1.2" fill="none"/><path d="M1233.8,376.3c0,.9-.8,1.7-1.7,1.7s-1.7-.8-1.7-1.7.8-1.7,1.7-1.7v0c.4,0,.9.2,1.2.5s.5.8.5,1.2" fill="none"/><path d="M1196,376.3c0,.9-.8,1.7-1.7,1.7s-1.7-.8-1.7-1.7.8-1.7,1.7-1.7v0c.4,0,.9.2,1.2.5s.5.8.5,1.2" fill="none"/><path d="M1271.6,376.3c0,.9-.8,1.7-1.7,1.7s-1.7-.8-1.7-1.7.8-1.7,1.7-1.7v0c.4,0,.9.2,1.2.5s.5.8.5,1.2" fill="#e8505b"/></g><g><path d="M1024.2,376.8c0,.6-.5,1.1-1.1,1.1s-1.1-.5-1.1-1.1.5-1.1,1.1-1.1s1.1.5,1.1,1.1" fill="#e0e0e0"/><path d="M1062.2,376.8c0,.6-.5,1.1-1.1,1.1-.3,0-.6-.1-.8-.3-.4-.4-.4-1.1,0-1.6.2-.2.5-.3.8-.3.6,0,1.1.5,1.1,1.1" fill="#e0e0e0"/><path d="M1100.1,376.8c0,.6-.5,1.1-1.1,1.1s-1.1-.5-1.1-1.1.5-1.1,1.1-1.1s1.1.5,1.1,1.1" fill="#e0e0e0"/><path d="M1138.1,376.8c0,.6-.5,1.1-1.1,1.1s-1.1-.5-1.1-1.1.5-1.1,1.1-1.1s1.1.5,1.1,1.1" fill="none"/><path d="M1176,376.8c0,.6-.5,1.1-1.1,1.1s-1.1-.5-1.1-1.1.5-1.1,1.1-1.1v0c.6,0,1.1.5,1.1,1.1" fill="none"/><path d="M1213.9,376.8c0,.6-.5,1.1-1.1,1.1s-1.1-.5-1.1-1.1.5-1.1,1.1-1.1v0c.6,0,1.1.5,1.1,1.1" fill="none"/><path d="M1251.9,376.8c0,.6-.5,1.1-1.1,1.1s-1.1-.5-1.1-1.1.5-1.1,1.1-1.1s1.1.5,1.1,1.1" fill="#e0e0e0"/></g><g><path d="M1047.3,362.7c0,2.3-1.9,4.1-4.1,4.1-1.1,0-2.2-.4-2.9-1.2-1.6-1.6-1.6-4.2,0-5.9.8-.8,1.8-1.2,2.9-1.2c2.2.1,4.1,2,4.1,4.2v0" fill="#ef724b"/><path d="M1080.2,343.3c0,2.3-1.9,4.1-4.1,4.1s-4.1-1.9-4.1-4.1c0-2.3,1.9-4.1,4.1-4.1s4.1,1.8,4.1,4.1v0" fill="none"/><path d="M1121.2,345c0,2.3-1.9,4.1-4.1,4.1s-4.1-1.9-4.1-4.1c0-2.3,1.9-4.1,4.1-4.1s4.1,1.8,4.1,4.1v0" fill="none"/><path d="M1161.1,309.6c0,2.3-1.9,4.1-4.1,4.1s-4.1-1.9-4.1-4.1c0-2.3,1.9-4.1,4.1-4.1s4.1,1.9,4.1,4.1v0" fill="none"/><path d="M1198.4,332.1c0,2.3-1.9,4.1-4.1,4.1s-4.1-1.9-4.1-4.1c0-2.3,1.9-4.1,4.1-4.1s4.1,1.9,4.1,4.1v0" fill="none"/><path d="M1236.2,338.1c0,2.3-1.9,4.1-4.1,4.1s-4.1-1.9-4.1-4.1c0-2.3,1.9-4.1,4.1-4.1s4.1,1.8,4.1,4.1v0" fill="#ef724b"/><path d="M1271.6,362.7c-.3,0-.6,0-1,0-.9-.1-1.9-.2-2.8-.4-3.6-.7-7-2.3-9.8-4.7-2-1.8-3.6-3.9-4.8-6.3-1.4-2.8-3.1-5.4-5.1-7.8-2.1-2.5-4.9-5.1-8.5-6-1.9-.4-3.8-.4-5.7.2s-3.7,1.6-5.2,3c-3.2,2.7-5.6,6.5-8.7,10-1.6,1.9-3.5,3.4-5.7,4.4-2.3,1-5,1.3-7.5.6-2.6-.8-4.6-2.7-5.7-5.2-1.1-2.4-1.9-4.9-2.4-7.5s-1.3-5.2-2.3-7.7c-.5-1.2-1.3-2.2-2.4-2.9-1.2-.6-2.5-.8-3.8-.7-2.8.3-5.6.8-8.3,1.5-1.4.3-2.9.5-4.4.5-1.5.1-3.1-.2-4.5-.9s-2.6-1.7-3.5-3-1.6-2.6-2.2-4c-1.2-2.8-2-5.7-3.1-8.5-.5-1.4-1.2-2.7-2-4-.8-1.2-1.9-2.2-3.3-2.7-.3-.1-.7-.2-1-.3l-1.1-.1c-.7,0-1.4.1-2,.4-1.3.8-2.3,1.9-3,3.2-1.5,2.7-2.7,5.7-3.5,8.7-.9,3-1.7,6.2-2.4,9.3l-3.6,15.5c-.6,2.5-1.4,5-2.3,7.5-.8,2.5-2.2,4.8-3.9,6.8-1,1-2.3,1.6-3.7,1.7-1.4,0-2.7-.4-3.8-1.2-2.2-1.4-4-3.3-5.4-5.4-2.9-4.1-4.7-8.8-6.5-13.2s-3.9-8.7-7.2-11.6-7.9-4-12.1-3c-2,.5-4,1.4-5.8,2.5s-3.5,2.3-5,3.7c-3.1,2.6-5.9,5.4-8.4,8.5v0v0c-3.8,3.8-8,7.3-12.5,10.4-4,2.8-8.3,5.1-12.8,6.9-4.3,1.6-8.6,2.5-12.5,2.1-3.6-.4-7.1-1.3-10.4-2.5-4.7-1.7-9.2-3.8-13.5-6.2-1.1-.6-2.3-1.3-3.4-1.9-.8-.5-1.1-.7-1.1-.7s.4.2,1.2.6l3.4,1.8c4.4,2.3,8.9,4.3,13.6,6c3.3,1.2,6.8,2,10.3,2.4c3.8.4,8.1-.6,12.2-2.1c4.5-1.8,8.7-4.1,12.6-6.9c4.4-3.1,8.5-6.5,12.3-10.3v0c2.6-3.1,5.4-6,8.5-8.6c1.6-1.4,3.3-2.6,5.1-3.7c1.9-1.2,3.9-2.1,6-2.7c4.6-1.1,9.4,0,13,3.1s5.7,7.6,7.5,12s3.6,8.9,6.4,13c1.3,2.1,3,3.8,5.1,5.1c1,.6,2.2,1,3.3,1c1.2-.1,2.2-.5,3-1.4c1.6-1.9,2.9-4.1,3.7-6.5.9-2.4,1.7-4.9,2.3-7.4c1.3-5.1,2.4-10.2,3.6-15.5.7-3.2,1.5-6.3,2.4-9.4.8-3.1,2.1-6.1,3.6-8.9.8-1.5,2-2.7,3.4-3.5.8-.4,1.6-.6,2.5-.5l1.2.1c.4.1.8.2,1.2.4c1.5.6,2.8,1.7,3.7,3.1.9,1.3,1.6,2.7,2.1,4.2c1.1,2.9,1.9,5.8,3.1,8.5c1.1,2.7,2.6,5.4,5.2,6.5c2.5,1.2,5.5.8,8.3.3c2.8-.7,5.6-1.2,8.5-1.5c1.5-.1,3,.2,4.3.9c1.3.8,2.2,1.9,2.8,3.3c1,2.5,1.8,5.2,2.3,7.8.5,2.5,1.3,5,2.4,7.4.9,2.3,2.8,4,5.2,4.8c2.3.6,4.7.4,6.9-.6c2.1-1,3.9-2.4,5.4-4.2c3.1-3.4,5.5-7.2,8.8-10c1.6-1.4,3.5-2.4,5.5-3.1c1.9-.6,4-.6,6-.2c3.9,1,6.7,3.6,8.8,6.2c2,2.5,3.6,5.1,5.1,8c1.1,2.4,2.7,4.5,4.7,6.2c2.8,2.4,6.1,4,9.6,4.8.9.2,1.9.4,2.8.5.3,0,.7,0,.7,0" fill="#ef724b"/></g><path d="M1047.7,291.5c0,.3-14.7.5-32.8.5s-32.8-.2-32.8-.5s14.7-.5,32.8-.5s32.8.2,32.8.5" fill="#263238"/></g></g></g></g><g transform="translate(0 0.000001)"><g id="eNqEZfGlXnj276_tr" transform="translate(188.6,262.2) rotate(0)"><g transform="translate(-188.6,-262.2)"><g><path d="M166.3,273.8l39.8-3.2c.2-4.6-.1-22.6-.1-22.6s16.6-2.6,16.8-19.1-2.7-54.6-2.7-54.6c-19.2-8.2-41.3-5.5-57.9,7.3l-2.5,1.9l6.6,90.3Z" fill="#ffbe9d"/><path d="M206,247.7c-7.6.1-15.2-2-21.6-6.1c0,0,5.1,11.9,21.6,10.4v-4.3Z" fill="#eb996e"/><path d="M161.9,200.5c-.3-.1-11.4-3.4-11,8s11.7,8.6,11.7,8.3-.7-16.3-.7-16.3" fill="#ffbe9d"/><path d="M158.9,212.6c-.1,0-.2.1-.5.3-.5.2-1,.2-1.5.1-1.2-.4-2.3-2.3-2.4-4.3-.1-1,.1-1.9.5-2.8.2-.7.7-1.3,1.4-1.6.5-.1,1,.1,1.2.5.2.3.1.5.2.6c0,0,.2-.2.1-.7-.1-.3-.2-.5-.5-.7s-.7-.3-1.1-.3c-.9.2-1.7.9-2,1.8-.5,1-.7,2.1-.6,3.2.1,2.3,1.4,4.4,3,4.8.6.2,1.3,0,1.8-.4.4-.2.5-.5.4-.5" fill="#eb996e"/><g><path d="M201.2,216.9c0-.1,1.6-.4,4.1-.7.6-.1,1.3-.2,1.4-.6.1-.7-.1-1.3-.4-1.9-.6-1.6-1.3-3.2-1.9-4.9-2.7-7-4.6-12.8-4.3-12.9s2.7,5.5,5.4,12.6c.6,1.7,1.3,3.4,1.8,5c.4.8.5,1.7.3,2.6-.2.5-.6.8-1.1.9-.4.1-.7.1-1.1.2-2.6-.2-4.2-.2-4.2-.3" fill="#263238"/><path d="M193.7,218.6c.4,0,.4,2.7,2.8,4.7s5.3,1.7,5.3,2c0,.2-.7.5-1.9.6-1.6,0-3.2-.5-4.4-1.5s-2-2.4-2.2-3.9c-.1-1.2.2-1.9.4-1.9" fill="#263238"/><path d="M228.2,163.7c.2-2.1-.6-4.2-2.3-5.5s-4.1-1.1-5.6.4c.6-2.7-1.1-5.4-3.8-6-.2,0-.4-.1-.5-.1-2.7-.2-5,1.9-7.6,2.6-2.6.5-5.3.2-7.7-.9l-7.2-3.3c-10.9-4-23,1.6-27.1,12.4-3.6-1.1-7.7.7-10,3.8s-2.8,7.1-2.4,10.9c.4,2.5,1,5,1.9,7.4c0,.2,0,.4,0,.6.2,9.1,1.2,19.8,5.1,19.9c6.8.1,5.2-12.7,5.2-12.7c8.3-3.2,5.2-15.7,7.3-17.6s6.4-6.3,23.8,2.6c6.8,3.5,15.7,3.3,20.6,2.2.1,0,.3-.1.4-.1h.1c.1,0,.1,0,.1-.1c1.6-.4,3.1-1,4.5-1.9c1.6-.9,2.9-2.4,3.7-4.1.7-1.8.4-3.8-.9-5.2c1.3-1.3,2.1-3.2,2.4-5.3" fill="#263238"/></g></g><g><g><g id="eNqEZfGlXnj288_to" transform="translate(214.400002,201.399994)"><g id="eNqEZfGlXnj288_ts" transform="scale(1,1)"><path d="M216.8,201.3c0,1.3-1,2.3-2.3,2.4-.6,0-1.2-.2-1.7-.6s-.7-1-.8-1.6c0-1.3,1-2.3,2.3-2.4.6,0,1.2.2,1.7.6s.8,1,.8,1.6" transform="translate(-214.400002,-201.399994)" fill="#263238"/></g></g><g id="eNqEZfGlXnj290_to" transform="translate(189.599998,201.399994)"><g id="eNqEZfGlXnj290_ts" transform="scale(1,1)"><path d="M192,201.3c0,1.3-1,2.3-2.3,2.4-.6,0-1.2-.2-1.7-.6s-.7-1-.8-1.6c0-1.3,1-2.3,2.3-2.4c1.3,0,2.4.9,2.5,2.2v0" transform="translate(-189.599998,-201.399994)" fill="#263238"/></g></g><g id="eNqEZfGlXnj292_to" transform="translate(186.781219,187.815239)"><g id="eNqEZfGlXnj292_tr" transform="rotate(0)"><path d="M192.6,188c-.3.7-2.8.4-5.8.7s-5.4,1.2-5.8.6c-.2-.3.2-.9,1.2-1.6c2.6-1.7,5.9-2,8.8-1c1.2.4,1.7,1,1.6,1.3" transform="translate(-186.781219,-187.815239)" fill="#263238"/></g></g><g id="eNqEZfGlXnj293_to" transform="translate(211.727058,188.957672)"><g id="eNqEZfGlXnj293_tr" transform="rotate(0)"><path d="M216,190.1c-.4.6-2.2,0-4.3,0-2.1-.1-3.9.4-4.3-.2-.2-.3.1-.9.9-1.4c2.1-1.3,4.9-1.3,6.9.2.8.6,1.1,1.1.8,1.4" transform="translate(-211.727058,-188.957672)" fill="#263238"/></g></g></g></g></g></g><g><g><path d="M274.2,782.5l2,33.6c0,0,34.5,6.5,35.4,12.7l-64.7,9-5.2-52.3l32.5-3Z" fill="#ef724b"/><g><path d="M255.8,815.2c-1.3.5-1.9,1.9-1.5,3.2.5,1.3,1.9,2,3.2,1.6c1.3-.6,2-2,1.6-3.4-.5-1.2-2.4-2-3.5-1.3" fill="none"/><path d="M246.9,837.8l-.5-5.2l61.4-7.3c0,0,3.8,1.7,3.9,3.7l-64.8,8.8Z" fill="#ebebeb"/></g><g><path d="M277.2,815.7c0,.3-1.6.6-3,1.8-1.5,1.1-2.2,2.6-2.5,2.5-.3,0,0-2,1.8-3.4s3.8-1.2,3.7-.9" fill="none"/><path d="M284.3,817.8c.1.3-1.2,1-2.2,2.4s-1.1,2.9-1.4,2.9c-.3.1-.7-1.8.5-3.5s3.1-2.1,3.1-1.8" fill="none"/><path d="M289,825.7c-.3.1-.9-1.5-.2-3.3s2.1-2.7,2.2-2.4c.2.2-.7,1.3-1.2,2.8-.6,1.4-.5,2.8-.8,2.9" fill="none"/><path d="M275.9,808.1c-.1.3-1.6,0-3.4.3s-3.1,1-3.3.7c-.2-.2,1-1.5,3.2-1.8c2.1-.4,3.6.5,3.5.8" fill="none"/><path d="M275.4,801.3c0,.1-1.2.4-3.3.3-1.2-.1-2.4-.3-3.5-.7-.7-.2-1.3-.5-2-.8-.4-.2-.7-.4-1.1-.7-.5-.4-.6-1.1-.3-1.7.3-.5.8-.8,1.3-.9.4,0,.8,0,1.2.1.7.1,1.4.3,2.1.5c1.1.4,2.2,1,3.2,1.7c1.6,1.3,2.3,2.4,2.2,2.5s-1-.8-2.6-1.8c-1-.6-2-1-3.1-1.4-.6-.2-1.3-.3-1.9-.4-.7-.1-1.3-.1-1.4.3-.1.1-.1.2.1.4s.5.4.8.5c.6.3,1.2.6,1.8.8c1.1.4,2.2.7,3.3.9c1.9.2,3.2.2,3.2.4" fill="#263238"/><path d="M275,801.8c-.1.1-.8-1-1.2-3.1-.3-1.9,0-3.9.7-5.7.3-.9,1-1.6,1.9-1.8.6,0,1.2.3,1.4.8.2.4.4.8.4,1.2.2.7.3,1.5.2,2.2-.1,1.2-.4,2.4-1.1,3.5-1.1,1.8-2.4,2.3-2.4,2.2-.1-.1.9-.9,1.7-2.6.5-1,.7-2.1.7-3.2c0-.6-.1-1.3-.2-1.9-.2-.7-.5-1.2-.7-1.1-.3,0-.8.6-1,1.2-.3.6-.5,1.2-.6,1.8-.3,1.1-.4,2.2-.3,3.3.2,2,.7,3.1.5,3.2" fill="#263238"/></g><path d="M127.9,778.1l-7.5,41.6L105,850.9c-.9,1.7-.5,3.8,1,5.1s3.6,1.5,5.2.5c7.6-4.8,35.3-22.5,35.7-25.5.4-3.6,10.8-43.4,10.8-43.4l-29.8-9.5Z" fill="#ef724b"/><g><path d="M107.2,856.9l40.2-28.7-.4,1.8c-.3,1.5-1.1,2.9-2.4,3.8-3.3,2.6-12.4,9.4-33.4,22.8-1.2.7-2.7.9-4,.3" fill="none"/><path d="M141.6,816.1c-1.2.6-1.8,1.9-1.4,3.2.5,1.2,1.9,1.8,3.2,1.4c1.3-.6,1.9-2.1,1.5-3.4-.6-1.1-2.4-1.9-3.5-1.1" fill="#ebebeb"/></g><g><path d="M120.3,840.7c-.3.1-.7-2.3-3-4-2.2-1.7-4.6-1.6-4.6-1.9c0-.1.6-.3,1.6-.3c2.7.3,4.9,2,5.8,4.5.4,1.1.3,1.7.2,1.7" fill="none"/><path d="M116.2,845.6c-.2.1-1.3-1.5-3.3-2.5-2-1.1-3.9-1.1-3.9-1.3-.1-.2,2.1-.7,4.4.5s3.1,3.3,2.8,3.3" fill="none"/><path d="M127.3,834.7c-.2.2-1.8-2.3-4.8-4.3s-5.9-2.4-5.9-2.7c0-.2,3.2-.2,6.4,1.9c3.1,2.1,4.5,5,4.3,5.1" transform="translate(0 0.000001)" fill="none"/><path d="M130.6,822.3c-.2.2-2.3-1.2-5.2-1.9-2.9-.8-5.5-.5-5.5-.8-.1-.2,2.6-1,5.7-.1c3.2.7,5.2,2.6,5,2.8" fill="none"/><path d="M133.1,810.1c-.2.2-2.2-1.6-5.4-2.1-3.2-.6-5.7.5-5.8.3-.1-.1.5-.5,1.6-.9c2.9-.9,6-.4,8.4,1.4.9.6,1.3,1.2,1.2,1.3" fill="none"/><path d="M128.3,805.7c0-.5.1-1.1.3-1.6.4-1.4,1.1-2.7,2.1-3.8.6-.9,1.5-1.6,2.5-1.9.7-.2,1.5.2,1.8.8s.4,1.3.3,2c-.8,2.8-3.5,4.7-6.4,4.5-2.9-.3-5.3-2.3-6.1-5-.2-.7-.1-1.4.3-2c.5-.6,1.2-.8,1.9-.5c1,.4,1.8,1.1,2.4,2c.9,1.1,1.7,2.4,2.2,3.8.2.5.3,1,.3,1.6-.8-1.8-1.8-3.4-3-4.9-.6-.7-1.3-1.3-2.2-1.7-.4-.2-.8,0-1.1.3-.2.4-.3.9-.1,1.3.8,2.4,2.9,4,5.3,4.3c2.5.2,4.7-1.4,5.5-3.7.1-.5.1-1-.1-1.4-.2-.3-.6-.5-1-.4-.9.3-1.6.8-2.2,1.6-1.1,1.1-2.1,2.8-2.7,4.7" fill="#263238"/><path d="M130.5,497.1c-.4,0-14.2,315.1-14.2,315.1h42.1l20.5-170.7L189.4,511l21.9,122.1L237.8,807l42.4-9.1-28.7-310.4-60.1-33.3-60.9,42.9Z" fill="#263238"/></g><path d="M318.6,405.1c.2.1.3.3.4.5.7.9,2,3.4.7,7.6-1.6,4.7-3.4,9.3-5.5,13.8c0,0,1.3,5.7,0,7s-22.9,0-22.9,0-3.7-2.1-.9-3.9h15.2" fill="#ffbe9d"/><g><path d="M124.4,281.6c0,0-18.7,5.9-27.4,42.8-6.4,27.1-24.5,81-19.9,89.6c5.7,10.7,71.7,27.7,71.7,27.7l5.6-25.2-33-22.5l17.7-59.9c0,0,2-49.7-14.7-52.5" fill="#ef724b"/><path d="M129.6,350.4c0,2.8,8.4,59,8.4,59l-16.7,91.4l64.8,3.4l7.2-39.4l8.9,39.4L260.5,490l-14.9-62.3l5.7-80.1L245,281l-23.9-8.2-12.4-14.5-20,12.5L164,256.1l-7.8,10.7-31.8,14.9c-3.2,5.7,5.2,68.7,5.2,68.7" fill="#ef724b"/></g><path d="M164,256.1l-.8,17.7l34.1,90.6l13.8-89.1-4.5-17.1-17.9,12.6L164,256.1Z" fill="#fff"/><path d="M245,281c0,0,16.3,13.2,21.9,28.8s14.7,36.2,14.7,36.2h-30.4L245,281Z" fill="#ef724b"/><g><path d="M196.5,367.8c-.3-.3-.6-.6-.8-1l-2.2-2.9-7.9-10.9-25.8-36c-1.4-2-2.9-4-4.3-6l-.2-.3.2-.3l6.8-9.8.1.6-15-11.2-.2-.2.1-.3l6.5-16.8c.8-1.9,1.4-3.4,1.8-4.6.2-.5.4-1.1.7-1.6-.1.6-.3,1.1-.5,1.7-.4,1.2-1,2.7-1.6,4.7l-6.1,16.9-.1-.5l15.1,11.1.4.3-.3.4-6.7,9.8v-.6l4.3,6l25.6,36.2l7.7,11l2,3c0,.6.2,1,.4,1.3" fill="#263238"/><path d="M193.6,462.3c-.1-.3-.1-.7-.1-1v-2.8l.3-10.4L195,414l1.1-34.2.3-10.4.1-2.8c0-.3,0-.7.1-1c.1.3.1.7.1,1l.1,2.8c.1,2.5.1,6,0,10.4-.1,8.8-.3,20.9-.8,34.2l-1.4,34.2-.6,10.4-.2,2.8c-.1.3-.2.6-.2.9" fill="none"/><path d="M197.9,365.2c.1-.4.2-.7.3-1l1.1-2.9l4.3-10.6L218.2,316l3.5-8.2.1.5-7.9-9.5-.3-.3.3-.3l11.5-11.9-.1.4-3.7-10.7-1-2.9c-.1-.3-.2-.7-.3-1c.2.3.3.6.5,1l1.1,2.9l4,10.6.1.2-.1.2-11.3,12v-.6l8,9.4.2.2-.1.3c-1.1,2.7-2.3,5.4-3.5,8.2L204.3,351l-4.6,10.4-1.3,2.8c-.1.4-.3.7-.5,1" fill="#263238"/></g><g><path d="M84.5,419.8c.1-.1,1.5.8,4.5,2s7.4,2.9,13,4.8c11.2,3.9,27.1,9,45.7,14.6l-.6.3l7.1-26.5.2.5-1.1-.7L121,394.4l-.3-.2.1-.3l11.6-39.7l3.4-11.3.9-3c.1-.3.2-.7.4-1c0,.4-.1.7-.2,1.1l-.8,3-3.1,11.4-11.2,39.8-.2-.5l32.3,20.4l1.1.7.3.2-.1.4-7.2,26.5-.1.5-.5-.1c-18.6-5.7-34.5-10.9-45.6-14.9-5.6-2-10-3.8-12.9-5.1-1.6-.8-3-1.6-4.4-2.5" fill="none"/><path d="M123.8,290.9c0-.1.5.2,1.3.8c1.1.8,2.2,1.8,3.2,2.8c6.6,6.7,10.5,15.6,11,25.1.1,1.4,0,2.8-.1,4.2c0,.5-.1,1-.3,1.5-.2,0,0-2.2-.3-5.7-.8-9.2-4.6-17.8-10.8-24.6l-4-4.1" fill="none"/><path d="M248.9,336.6c-.3,0-1.2-10.3-2.1-23.1s-1.3-23.1-1.1-23.1s1.2,10.3,2.1,23.1s1.4,23.1,1.1,23.1" fill="none"/><path d="M210.9,275.7c-.3.4-.6.8-1,1.1l-3.1,3c-3.7,3.6-7.7,6.8-11.9,9.7l-.6.4v-.8c0-3.4-.5-6.8-1.5-10.1-.6-1.8-1.5-3.4-2.5-5-.5-.8-1.1-1.6-1.6-2.4l-.2-.3-.1-.1v0v0v0c-.6-.1.7.2.6.1v0c-.2.1-.3.3-.4.5-.3.4-.5.8-.7,1.2-1.3,2.7-1.8,5.8-2.4,8.6l-1.4,8.3-.1.8-.6-.5-14.5-11.5c-1.7-1.4-3-2.5-4.1-3.3-.5-.4-1-.8-1.4-1.3.6.3,1.1.6,1.6,1c1.1.8,2.5,1.9,4.2,3.1l14.7,11.2-.7.3l1.3-8.4c.6-2.9,1-6,2.4-8.9.2-.5.5-.9.8-1.4.2-.2.4-.4.6-.6l.1-.1v0c-.1,0,1.2.3.6.1v0v0v0l.1.2.2.3c.6.8,1.2,1.6,1.7,2.5c1,1.6,1.9,3.4,2.5,5.2c1.1,3.4,1.6,6.9,1.5,10.4l-.7-.3c4.2-2.8,8.3-5.9,12-9.3l3.2-2.8c.6-.3,1-.7,1.4-.9" fill="#263238"/><path d="M196.4,363.6c-.3,0-2.2-20.6-4.4-46l-3.4-46.1c.3,0,2.2,20.6,4.4,46l3.4,46.1" fill="#263238"/></g><path d="M169.4,411.1l17,18.9h119.2l39.6-76c.9-1.7.8-3.8-.2-5.4s-2.8-2.7-4.7-2.7h-116.7c-2.2,0-4.2,1.3-5.1,3.4l-24,57.9-23.1-.6c-1.5,0-2.7,1.1-2.7,2.6c0,.8.3,1.4.7,1.9" fill="#455a64"/><path d="M169.5,407.5c.5.3.9.7,1.3,1.2.9.9,2,2,3.5,3.5l12.3,12.6-.7.1l12-26.8l14.8-34.9l4.4-10.6l1.2-2.9c.1-.3.3-.7.5-1-.1.4-.2.7-.3,1.1l-1.1,2.9-4.1,10.7c-3.6,9-8.6,21.4-14.6,35l-12.1,26.7-.3.6-.4-.4-12-12.9c-1.4-1.5-2.5-2.7-3.3-3.6-.4-.4-.7-.8-1.1-1.3" fill="#263238"/><path d="M271.4,393.6c-3.7,1.8-8.1.6-9.6-2.7s.2-7.4,3.9-9.2s8.1-.6,9.6,2.7-.1,7.4-3.9,9.2" fill="#fff"/><path d="M154.7,416.4l10.8-1c0,0,19.4-6.5,22.6-5.9.5,2.1-.5,4.3-2.5,5.3-3.4,2.1-8.6,4.6-8.6,4.6l7.7,8.9c1,1.1,2.5,1.8,4,1.8h25.4c0,0-1,3.2-3.6,4l-21.2,6.3-40.1-4.2l5.5-19.8Z" fill="#ffbe9d"/></g></g></g></svg>